<svg width="65" height="65" viewBox="0 0 65 65" fill="none" xmlns="http://www.w3.org/2000/svg">
<path d="M54.5364 10.4636L65 -1.90735e-05L65 65H54.5364L54.5364 10.4636Z" fill="#FDCA4A"/>
<path d="M40.9024 24.0977L51.366 13.6341L51.366 65H40.9024L40.9024 24.0977Z" fill="#FFA926"/>
<path d="M27.2683 37.7318L37.7319 27.2682L37.7319 65H27.2683V37.7318Z" fill="#F9872E"/>
<path d="M13.6341 51.3659L24.0977 40.9023L24.0977 65L13.6341 65L13.6341 51.3659Z" fill="#FB6B0A"/>
<path d="M0 65L10.3815 54.6185L10.3792 65L0 65Z" fill="#FB580B"/>
<path d="M0 5.32578e-05L65 4.57764e-05L54.5364 10.4636L1.78129e-06 10.4637L0 5.32578e-05Z" fill="#BD9941"/>
<path d="M1.06877e-06 13.6341L51.3659 13.6341L40.9023 24.0977L0 24.0977L1.06877e-06 13.6341Z" fill="#BF842A"/>
<path d="M2.85006e-06 27.2681L37.7318 27.2681L27.2682 37.7317H0L2.85006e-06 27.2681Z" fill="#BA6C2E"/>
<path d="M3.56258e-07 40.9023L24.0977 40.9023L13.6341 51.3659L0 51.3659L3.56258e-07 40.9023Z" fill="#BE5816"/>
<path d="M2.85006e-06 54.6207L10.3815 54.6183L0 64.9999L2.85006e-06 54.6207Z" fill="#BD4B17"/>
</svg>
