<svg width="1600" height="904" viewBox="0 0 1600 904" fill="none" xmlns="http://www.w3.org/2000/svg">
<g clip-path="url(#clip0)">
<mask id="mask0" mask-type="alpha" maskUnits="userSpaceOnUse" x="0" y="-50" width="1600" height="941">
<path d="M1600 -50H0V891H1600V-50Z" fill="#C4C4C4"/>
</mask>
<g mask="url(#mask0)">
<path fill-rule="evenodd" clip-rule="evenodd" d="M1747.87 230.546C1736.37 327.53 1994.02 620.985 1872.37 695.556C1745.67 773.222 1618.94 840.426 1369 869.547C1117.66 898.83 985.478 815.763 753.726 809.499C566.824 804.448 331.272 857.377 168.759 837.109C-13.6677 814.357 -143.775 762.316 -159.892 695.556C-176.266 627.73 -153.233 2.6511 -6.4996 -65.9539C131.329 -130.396 249.573 -21.73 452.001 -65.9539C660.438 -111.491 1057.58 -52.9024 1279.37 -65.9539C1524.46 -80.3764 1458.95 -110.067 1609 -65.9539C1758.56 -21.9867 1771.87 28.2258 1747.87 230.546Z" fill="url(#paint0_linear)"/>
</g>
<mask id="mask1" mask-type="alpha" maskUnits="userSpaceOnUse" x="1" y="-50" width="1600" height="872">
<path d="M1601 -50H1V822H1601V-50Z" fill="#C4C4C4"/>
</mask>
<g mask="url(#mask1)">
<g filter="url(#filter0_d)">
<path fill-rule="evenodd" clip-rule="evenodd" d="M1697.02 176.5C1685.52 273.484 1943.17 566.939 1821.52 641.51C1694.82 719.176 1568.09 786.379 1318.15 815.5C1066.81 844.784 934.627 761.717 702.875 755.453C515.973 750.402 280.421 803.331 117.908 783.063C-64.5187 760.311 -194.626 708.27 -210.743 641.51C-227.116 573.684 -155.213 -51.3949 -8.47946 -120C129.349 -184.442 257.593 -56.776 460.02 -101C668.457 -146.537 1006.73 -106.948 1228.52 -120C1473.61 -134.422 1438.47 -126.114 1588.52 -82C1738.08 -38.0327 1721.02 -25.8202 1697.02 176.5Z" fill="url(#paint1_linear)"/>
</g>
<path d="M511.133 101.498L511.96 107.232L517.928 108.099L512.471 110.776L513.298 116.51L509.099 112.43L503.642 115.107L506.503 109.909L502.303 105.829L508.272 106.696L511.133 101.498Z" fill="url(#paint2_linear)" fill-opacity="0.8"/>
<path d="M275.159 328.193L275.986 333.927L281.954 334.794L276.497 337.471L277.324 343.206L273.124 339.126L267.667 341.803L270.529 336.604L266.329 332.525L272.297 333.392L275.159 328.193Z" fill="url(#paint3_linear)" fill-opacity="0.8"/>
<path d="M64.7621 426.355L65.5892 432.089L71.5574 432.956L66.1003 435.633L66.9273 441.368L62.7276 437.288L57.2706 439.965L60.1321 434.767L55.9324 430.687L61.9006 431.554L64.7621 426.355Z" fill="url(#paint4_linear)" fill-opacity="0.8"/>
<path d="M466.21 210.764L467.037 216.498L473.005 217.365L467.548 220.042L468.375 225.776L464.175 221.696L458.718 224.374L461.58 219.175L457.38 215.095L463.348 215.962L466.21 210.764Z" fill="url(#paint5_linear)" fill-opacity="0.8"/>
<path d="M161.991 279.083L159.414 286.402L165.814 290.822L157.821 290.926L155.244 298.245L152.882 290.99L144.89 291.093L151.422 286.506L149.06 279.251L155.459 283.671L161.991 279.083Z" fill="url(#paint6_linear)" fill-opacity="0.8"/>
<path d="M1316.49 250.531L1322.22 251.377L1324.76 245.906L1325.77 251.9L1331.5 252.746L1326.39 255.605L1327.39 261.6L1323.23 257.372L1318.12 260.23L1320.66 254.759L1316.49 250.531Z" fill="url(#paint7_linear)" fill-opacity="0.8"/>
<path d="M1528.98 540.408L1534.71 541.254L1537.25 535.782L1538.25 541.777L1543.99 542.623L1538.88 545.482L1539.88 551.476L1535.72 547.248L1530.61 550.107L1533.15 544.635L1528.98 540.408Z" fill="url(#paint8_linear)" fill-opacity="0.8"/>
<path d="M1500.23 771.126L1505.96 771.972L1508.5 766.501L1509.51 772.495L1515.24 773.341L1510.13 776.2L1511.13 782.194L1506.97 777.967L1501.86 780.825L1504.4 775.354L1500.23 771.126Z" fill="url(#paint9_linear)" fill-opacity="0.8"/>
<path d="M1357.12 422.748L1362.85 423.594L1365.38 418.123L1366.39 424.117L1372.12 424.963L1367.01 427.822L1368.02 433.817L1363.85 429.589L1358.74 432.447L1361.28 426.976L1357.12 422.748Z" fill="url(#paint10_linear)" fill-opacity="0.8"/>
<path d="M85.7233 687.341L86.2307 681.57L80.6194 679.36L86.5443 678.003L87.0517 672.231L90.2061 677.164L96.1311 675.807L92.1557 680.213L95.3101 685.145L89.6987 682.935L85.7233 687.341Z" fill="url(#paint11_linear)" fill-opacity="0.8"/>
<path d="M345.734 687.962L346.241 682.191L340.63 679.981L346.555 678.624L347.062 672.852L350.217 677.785L356.142 676.428L352.166 680.834L355.321 685.766L349.709 683.556L345.734 687.962Z" fill="url(#paint12_linear)" fill-opacity="0.8"/>
<path d="M691.723 766.77L692.231 760.998L686.619 758.789L692.544 757.432L693.052 751.66L696.206 756.593L702.131 755.236L698.156 759.641L701.31 764.574L695.699 762.364L691.723 766.77Z" fill="url(#paint13_linear)" fill-opacity="0.8"/>
<path d="M151.723 788.77L152.231 782.998L146.619 780.789L152.544 779.432L153.052 773.66L156.206 778.593L162.131 777.236L158.156 781.641L161.31 786.574L155.699 784.364L151.723 788.77Z" fill="url(#paint14_linear)" fill-opacity="0.8"/>
<path d="M575.45 556.694L570.74 560.067L572.717 565.765L567.829 562.152L563.119 565.526L564.808 559.92L559.919 556.307L565.851 556.455L567.54 550.849L569.518 556.546L575.45 556.694Z" fill="url(#paint15_linear)" fill-opacity="0.8"/>
<path d="M811.999 627.946L807.288 631.32L809.266 637.017L804.378 633.405L799.668 636.779L801.356 631.172L796.468 627.56L802.4 627.708L804.089 622.101L806.066 627.799L811.999 627.946Z" fill="url(#paint16_linear)" fill-opacity="0.8"/>
<path d="M1115.51 706.058L1118.17 711.204L1124.09 710.065L1119.82 714.384L1122.48 719.529L1117.17 717.053L1112.9 721.372L1113.89 715.523L1108.59 713.047L1114.51 711.908L1115.51 706.058Z" fill="url(#paint17_linear)" fill-opacity="0.8"/>
<path d="M1133.96 820.051L1139.71 825.252L1146.26 821.054L1143.27 828.467L1149.03 833.668L1141.43 833.049L1138.44 840.462L1136.73 832.666L1129.12 832.046L1135.67 827.847L1133.96 820.051Z" fill="url(#paint18_linear)" fill-opacity="0.8"/>
<path d="M831.076 432.605L832.443 437.287L837.915 437.038L833.289 440.18L834.656 444.861L830.429 442.122L825.803 445.264L827.817 440.429L823.59 437.69L829.062 437.441L831.076 432.605Z" fill="url(#paint19_linear)" fill-opacity="0.8"/>
<path d="M1069.35 185.801L1070.72 190.482L1076.19 190.233L1071.56 193.375L1072.93 198.057L1068.7 195.318L1064.07 198.46L1066.09 193.625L1061.86 190.885L1067.33 190.636L1069.35 185.801Z" fill="url(#paint20_linear)" fill-opacity="0.8"/>
<path d="M850.151 328.578L848.623 335.148L854.869 337.812L847.679 339.208L846.151 345.778L843.235 340.071L836.044 341.466L841.432 336.543L838.516 330.836L844.762 333.501L850.151 328.578Z" fill="url(#paint21_linear)" fill-opacity="0.8"/>
<path d="M1298.45 710.081L1298.4 721.164L1309.11 724.129L1298.37 728.013L1298.32 739.096L1291.74 730.414L1281 734.299L1287.67 725.048L1281.08 716.366L1291.78 719.331L1298.45 710.081Z" fill="url(#paint22_linear)"/>
<path d="M1511.45 194.081L1511.4 205.164L1522.11 208.129L1511.37 212.013L1511.32 223.096L1504.74 214.414L1494 218.299L1500.67 209.048L1494.08 200.366L1504.78 203.331L1511.45 194.081Z" fill="url(#paint23_linear)"/>
<path d="M162.411 65.6889L158.73 76.1428L167.87 82.4557L156.455 82.6036L152.774 93.0574L149.4 82.695L137.984 82.843L147.314 76.2907L143.94 65.9283L153.081 72.2412L162.411 65.6889Z" fill="url(#paint24_linear)"/>
<path d="M247.883 793.83L258.566 789.827L257.925 778.948L265.169 787.353L275.853 783.35L269.646 792.547L276.891 800.952L265.811 798.232L259.604 807.429L258.963 796.551L247.883 793.83Z" fill="url(#paint25_linear)"/>
<path d="M653.883 618.83L664.566 614.827L663.925 603.948L671.169 612.353L681.853 608.35L675.646 617.547L682.891 625.952L671.811 623.232L665.604 632.429L664.963 621.551L653.883 618.83Z" fill="url(#paint26_linear)"/>
<path d="M979.03 658.267L978.982 669.35L989.688 672.314L978.953 676.199L978.905 687.282L972.318 678.6L961.583 682.485L968.247 673.234L961.66 664.552L972.366 667.517L979.03 658.267Z" fill="url(#paint27_linear)"/>
<path d="M371.074 618.853C371.752 619.353 372.708 619.209 373.208 618.531C373.708 617.853 373.564 616.897 372.886 616.397C372.208 615.897 371.252 616.041 370.752 616.719C370.252 617.397 370.396 618.353 371.074 618.853Z" fill="white" fill-opacity="0.4"/>
<path d="M82.5777 121.684C82.9699 122.679 84.094 123.167 85.0884 122.775C86.0828 122.382 86.5711 121.258 86.1789 120.264C85.7867 119.269 84.6627 118.781 83.6682 119.173C82.6738 119.566 82.1855 120.69 82.5777 121.684Z" fill="white" fill-opacity="0.4"/>
<path d="M426.526 804.118C427.369 804.118 428.052 803.663 428.052 803.101C428.052 802.539 427.369 802.084 426.526 802.084C425.683 802.084 425 802.539 425 803.101C425 803.663 425.683 804.118 426.526 804.118Z" fill="white" fill-opacity="0.4"/>
<path d="M609.072 292.543C609.75 293.043 610.57 293.082 610.904 292.63C611.237 292.178 610.958 291.406 610.28 290.906C609.602 290.405 608.782 290.366 608.448 290.818C608.115 291.27 608.394 292.042 609.072 292.543Z" fill="white" fill-opacity="0.4"/>
<path d="M542.989 686.542C543.667 687.043 544.487 687.082 544.821 686.63C545.154 686.178 544.875 685.406 544.197 684.906C543.519 684.405 542.699 684.366 542.365 684.818C542.032 685.27 542.311 686.042 542.989 686.542Z" fill="white" fill-opacity="0.4"/>
<path d="M194.404 616.717C195.264 617.352 196.305 617.402 196.728 616.828C197.151 616.255 196.796 615.275 195.936 614.641C195.076 614.006 194.035 613.957 193.612 614.53C193.189 615.104 193.544 616.083 194.404 616.717Z" fill="white" fill-opacity="0.4"/>
<path d="M649.078 749.769C649.64 749.769 650.095 749.086 650.095 748.243C650.095 747.4 649.64 746.717 649.078 746.717C648.516 746.717 648.061 747.4 648.061 748.243C648.061 749.086 648.516 749.769 649.078 749.769Z" fill="white" fill-opacity="0.4"/>
<path d="M35.8845 699.373C36.458 699.796 37.4373 699.441 38.0719 698.581C38.7065 697.721 38.756 696.68 38.1825 696.257C37.609 695.834 36.6296 696.189 35.9951 697.049C35.3605 697.909 35.311 698.95 35.8845 699.373Z" fill="white" fill-opacity="0.4"/>
<path d="M43.8845 485.373C44.458 485.796 45.4374 485.441 46.0719 484.581C46.7065 483.721 46.756 482.68 46.1825 482.257C45.609 481.834 44.6297 482.189 43.9951 483.049C43.3605 483.909 43.311 484.95 43.8845 485.373Z" fill="white" fill-opacity="0.4"/>
<path d="M344.345 213.344C344.951 213.93 345.917 213.913 346.502 213.307C347.088 212.701 347.071 211.735 346.465 211.15C345.859 210.564 344.893 210.581 344.308 211.187C343.722 211.793 343.739 212.759 344.345 213.344Z" fill="white" fill-opacity="0.4"/>
<path d="M475.524 111.691C476.202 112.191 477.158 112.047 477.658 111.369C478.158 110.691 478.014 109.735 477.336 109.235C476.658 108.735 475.702 108.879 475.202 109.557C474.702 110.235 474.846 111.191 475.524 111.691Z" fill="white" fill-opacity="0.4"/>
<path d="M629.072 390.361C629.75 390.861 630.706 390.717 631.206 390.039C631.706 389.361 631.562 388.405 630.884 387.905C630.206 387.405 629.25 387.549 628.75 388.227C628.25 388.905 628.394 389.861 629.072 390.361Z" fill="white" fill-opacity="0.4"/>
<path d="M91.4037 772.756C92.2639 773.39 93.4757 773.207 94.1103 772.347C94.7449 771.487 94.5619 770.275 93.7017 769.64C92.8414 769.006 91.6296 769.189 90.9951 770.049C90.3605 770.909 90.5434 772.121 91.4037 772.756Z" fill="white" fill-opacity="0.4"/>
<path d="M234.403 592.756C235.263 593.39 236.475 593.207 237.11 592.347C237.744 591.487 237.561 590.275 236.701 589.64C235.841 589.006 234.629 589.189 233.994 590.049C233.36 590.909 233.543 592.121 234.403 592.756Z" fill="white" fill-opacity="0.4"/>
<path d="M29.0768 305.547C30.2238 306.393 31.8396 306.149 32.6856 305.002C33.5317 303.855 33.2878 302.239 32.1408 301.393C30.9938 300.547 29.3781 300.791 28.532 301.938C27.6859 303.085 27.9298 304.701 29.0768 305.547Z" fill="white" fill-opacity="0.4"/>
<path d="M557.227 56.3612C557.905 56.8614 558.861 56.7171 559.361 56.0391C559.861 55.361 559.717 54.4058 559.039 53.9057C558.361 53.4055 557.405 53.5497 556.905 54.2278C556.405 54.9058 556.549 55.861 557.227 56.3612Z" fill="white" fill-opacity="0.4"/>
<path d="M174.404 679.756C175.264 680.39 176.476 680.207 177.111 679.347C177.745 678.487 177.562 677.275 176.702 676.64C175.842 676.006 174.63 676.189 173.995 677.049C173.361 677.909 173.544 679.121 174.404 679.756Z" fill="white" fill-opacity="0.4"/>
<path d="M179.482 473.482C180.387 474.149 181.66 473.957 182.327 473.053C182.994 472.148 182.802 470.875 181.898 470.208C180.993 469.541 179.72 469.733 179.053 470.637C178.386 471.542 178.578 472.815 179.482 473.482Z" fill="white" fill-opacity="0.4"/>
<path d="M122.117 61.2762C122.64 62.6021 124.139 63.2531 125.465 62.7302C126.791 62.2073 127.442 60.7085 126.919 59.3826C126.396 58.0567 124.897 57.4057 123.571 57.9286C122.245 58.4515 121.594 59.9503 122.117 61.2762Z" fill="white" fill-opacity="0.4"/>
<path d="M1535.07 160.361C1535.75 160.861 1536.71 160.717 1537.21 160.039C1537.71 159.361 1537.56 158.405 1536.89 157.905C1536.21 157.405 1535.25 157.549 1534.75 158.227C1534.25 158.905 1534.4 159.861 1535.07 160.361Z" fill="white" fill-opacity="0.4"/>
<path d="M1405.53 154.034C1406.37 154.034 1407.06 153.579 1407.06 153.017C1407.06 152.455 1406.37 152 1405.53 152C1404.69 152 1404 152.455 1404 153.017C1404 153.579 1404.69 154.034 1405.53 154.034Z" fill="white" fill-opacity="0.4"/>
<path d="M1422.71 62.8021C1422.32 63.7972 1422.54 64.8149 1423.2 65.0751C1423.87 65.3353 1424.72 64.7395 1425.11 63.7444C1425.5 62.7492 1425.28 61.7315 1424.62 61.4713C1423.95 61.2111 1423.1 61.8069 1422.71 62.8021Z" fill="white" fill-opacity="0.4"/>
<path d="M1510.66 739.551C1511.12 739.884 1511.89 739.605 1512.39 738.927C1512.89 738.249 1512.93 737.429 1512.48 737.095C1512.02 736.762 1511.25 737.041 1510.75 737.719C1510.25 738.397 1510.21 739.217 1510.66 739.551Z" fill="white" fill-opacity="0.4"/>
<path d="M1415.59 458.173C1416.43 458.173 1417.12 457.49 1417.12 456.647C1417.12 455.804 1416.43 455.121 1415.59 455.121C1414.75 455.121 1414.06 455.804 1414.06 456.647C1414.06 457.49 1414.75 458.173 1415.59 458.173Z" fill="white" fill-opacity="0.4"/>
<path d="M732.402 323.265C733.262 323.899 734.474 323.716 735.109 322.856C735.743 321.996 735.56 320.784 734.7 320.149C733.84 319.515 732.628 319.698 731.993 320.558C731.359 321.418 731.542 322.63 732.402 323.265Z" fill="white" fill-opacity="0.4"/>
<path d="M1327.48 670.973C1328.39 671.64 1329.66 671.448 1330.33 670.544C1330.99 669.639 1330.8 668.366 1329.9 667.699C1328.99 667.032 1327.72 667.224 1327.05 668.128C1326.39 669.033 1326.58 670.306 1327.48 670.973Z" fill="white" fill-opacity="0.4"/>
<path d="M1078.92 157.686C1080.06 158.532 1081.68 158.288 1082.53 157.141C1083.37 155.994 1083.13 154.378 1081.98 153.532C1080.83 152.686 1079.22 152.93 1078.37 154.077C1077.53 155.224 1077.77 156.84 1078.92 157.686Z" fill="white" fill-opacity="0.4"/>
<path d="M1273.94 46.4025C1273.42 47.7294 1274.07 49.227 1275.4 49.7474C1276.72 50.2678 1278.22 49.6139 1278.74 48.287C1279.26 46.9601 1278.61 45.4626 1277.28 44.9422C1275.96 44.4218 1274.46 45.0756 1273.94 46.4025Z" fill="white" fill-opacity="0.4"/>
<path d="M1539.22 36.3612C1539.9 36.8614 1540.86 36.7171 1541.36 36.0391C1541.86 35.361 1541.71 34.4058 1541.04 33.9057C1540.36 33.4055 1539.4 33.5497 1538.9 34.2278C1538.4 34.9058 1538.55 35.861 1539.22 36.3612Z" fill="white" fill-opacity="0.4"/>
<path d="M1496.07 625.797C1496.75 626.297 1497.71 626.153 1498.21 625.475C1498.71 624.797 1498.56 623.841 1497.89 623.341C1497.21 622.841 1496.25 622.985 1495.75 623.663C1495.25 624.341 1495.4 625.297 1496.07 625.797Z" fill="white" fill-opacity="0.4"/>
<path d="M826.402 497.265C827.262 497.899 828.474 497.716 829.109 496.856C829.743 495.996 829.56 494.784 828.7 494.149C827.84 493.515 826.628 493.698 825.993 494.558C825.359 495.418 825.542 496.63 826.402 497.265Z" fill="white" fill-opacity="0.4"/>
<path d="M1430.46 351.987C1430.12 352.844 1430.54 353.812 1431.4 354.148C1432.26 354.484 1433.23 354.062 1433.56 353.205C1433.9 352.348 1433.48 351.38 1432.62 351.044C1431.76 350.708 1430.79 351.13 1430.46 351.987Z" fill="white" fill-opacity="0.4"/>
<path d="M737.921 160.686C739.068 161.532 740.684 161.288 741.53 160.141C742.376 158.994 742.132 157.378 740.985 156.532C739.838 155.686 738.222 155.93 737.376 157.077C736.53 158.224 736.774 159.84 737.921 160.686Z" fill="white" fill-opacity="0.4"/>
<path d="M892.921 305.686C894.068 306.532 895.684 306.288 896.53 305.141C897.376 303.994 897.132 302.378 895.985 301.532C894.838 300.686 893.222 300.93 892.376 302.077C891.53 303.224 891.774 304.84 892.921 305.686Z" fill="white" fill-opacity="0.4"/>
<path d="M1164.44 807.938C1163.93 808.875 1164.27 810.051 1165.21 810.565C1166.15 811.079 1167.32 810.736 1167.84 809.798C1168.35 808.861 1168.01 807.685 1167.07 807.171C1166.13 806.657 1164.96 807 1164.44 807.938Z" fill="white" fill-opacity="0.4"/>
<path d="M949.558 199.265C950.418 199.899 951.63 199.716 952.265 198.856C952.899 197.996 952.716 196.784 951.856 196.149C950.996 195.515 949.784 195.698 949.149 196.558C948.515 197.418 948.698 198.63 949.558 199.265Z" fill="white" fill-opacity="0.4"/>
<path d="M1047.6 292.301C1048.46 292.935 1049.67 292.752 1050.31 291.892C1050.94 291.032 1050.76 289.82 1049.9 289.185C1049.04 288.551 1047.83 288.734 1047.19 289.594C1046.56 290.454 1046.74 291.666 1047.6 292.301Z" fill="white" fill-opacity="0.4"/>
<path d="M1228.44 199.5C1227.83 200.086 1226.87 200.069 1226.28 199.463C1225.7 198.857 1225.71 197.891 1226.32 197.306C1226.93 196.72 1227.89 196.737 1228.48 197.343C1229.06 197.949 1229.05 198.915 1228.44 199.5Z" fill="#FBA10D" fill-opacity="0.2"/>
<path d="M1119.91 56.3612C1119.23 56.8614 1118.27 56.7172 1117.77 56.0391C1117.27 55.361 1117.42 54.4059 1118.09 53.9057C1118.77 53.4055 1119.73 53.5497 1120.23 54.2278C1120.73 54.9058 1120.58 55.861 1119.91 56.3612Z" fill="#FBA10D" fill-opacity="0.2"/>
<path d="M1362.58 424.802C1362.97 425.797 1362.48 426.921 1361.49 427.311C1360.49 427.701 1359.37 427.211 1358.98 426.216C1358.59 425.221 1359.08 424.097 1360.07 423.707C1361.07 423.317 1362.19 423.807 1362.58 424.802Z" fill="#FBA10D" fill-opacity="0.2"/>
<path d="M984.06 308.543C983.382 309.043 982.562 309.082 982.228 308.63C981.895 308.178 982.174 307.406 982.852 306.905C983.53 306.405 984.35 306.366 984.684 306.818C985.017 307.27 984.738 308.042 984.06 308.543Z" fill="#FBA10D" fill-opacity="0.2"/>
<path d="M1398.73 632.717C1397.87 633.352 1396.83 633.401 1396.4 632.828C1395.98 632.254 1396.33 631.275 1397.19 630.641C1398.05 630.006 1399.09 629.956 1399.52 630.53C1399.94 631.104 1399.59 632.083 1398.73 632.717Z" fill="#FBA10D" fill-opacity="0.2"/>
<path d="M944.053 765.769C943.491 765.769 943.036 765.086 943.036 764.243C943.036 763.4 943.491 762.717 944.053 762.717C944.615 762.717 945.07 763.4 945.07 764.243C945.07 765.086 944.615 765.769 944.053 765.769Z" fill="#FBA10D" fill-opacity="0.2"/>
<path d="M1069.25 786.777C1068.79 787.11 1068.02 786.831 1067.52 786.153C1067.02 785.475 1066.98 784.655 1067.43 784.321C1067.89 783.988 1068.66 784.267 1069.16 784.945C1069.66 785.623 1069.7 786.443 1069.25 786.777Z" fill="#FBA10D" fill-opacity="0.2"/>
<path d="M1557.25 715.373C1556.68 715.796 1555.7 715.441 1555.06 714.581C1554.43 713.721 1554.38 712.68 1554.95 712.257C1555.52 711.834 1556.5 712.189 1557.14 713.049C1557.77 713.909 1557.82 714.95 1557.25 715.373Z" fill="#FBA10D" fill-opacity="0.2"/>
<path d="M1549.25 501.373C1548.68 501.796 1547.7 501.441 1547.06 500.581C1546.43 499.721 1546.38 498.68 1546.95 498.257C1547.52 497.834 1548.5 498.189 1549.14 499.049C1549.77 499.909 1549.82 500.95 1549.25 501.373Z" fill="#FBA10D" fill-opacity="0.2"/>
<path d="M964.06 406.361C963.382 406.861 962.426 406.717 961.926 406.039C961.426 405.361 961.57 404.405 962.248 403.905C962.926 403.405 963.882 403.549 964.382 404.227C964.882 404.905 964.738 405.861 964.06 406.361Z" fill="#FBA10D" fill-opacity="0.2"/>
<path d="M1501.73 788.756C1500.87 789.39 1499.66 789.207 1499.02 788.347C1498.39 787.487 1498.57 786.275 1499.43 785.64C1500.29 785.006 1501.5 785.189 1502.14 786.049C1502.77 786.909 1502.59 788.121 1501.73 788.756Z" fill="#FBA10D" fill-opacity="0.2"/>
<path d="M1564.05 321.547C1562.9 322.393 1561.29 322.149 1560.44 321.002C1559.6 319.855 1559.84 318.239 1560.99 317.393C1562.13 316.547 1563.75 316.791 1564.6 317.938C1565.44 319.085 1565.2 320.701 1564.05 321.547Z" fill="#FBA10D" fill-opacity="0.2"/>
<path d="M1035.91 72.3612C1035.23 72.8614 1034.27 72.7172 1033.77 72.0391C1033.27 71.361 1033.42 70.4059 1034.09 69.9057C1034.77 69.4055 1035.73 69.5497 1036.23 70.2278C1036.73 70.9058 1036.58 71.861 1035.91 72.3612Z" fill="#FBA10D" fill-opacity="0.2"/>
<path d="M1418.73 695.756C1417.87 696.39 1416.66 696.207 1416.02 695.347C1415.39 694.487 1415.57 693.275 1416.43 692.64C1417.29 692.006 1418.5 692.189 1419.14 693.049C1419.77 693.909 1419.59 695.121 1418.73 695.756Z" fill="#FBA10D" fill-opacity="0.2"/>
<path d="M1471.01 77.2762C1470.49 78.6021 1468.99 79.2531 1467.66 78.7302C1466.34 78.2073 1465.69 76.7085 1466.21 75.3826C1466.73 74.0567 1468.23 73.4057 1469.56 73.9286C1470.88 74.4515 1471.53 75.9503 1471.01 77.2762Z" fill="#FBA10D" fill-opacity="0.2"/>
<path d="M253.58 411.237C253.97 412.232 253.48 413.356 252.485 413.746C251.489 414.136 250.366 413.646 249.976 412.651C249.586 411.656 250.076 410.532 251.071 410.142C252.066 409.752 253.19 410.242 253.58 411.237Z" fill="#FBA10D" fill-opacity="0.2"/>
<path d="M187.606 170.034C186.763 170.034 186.08 169.579 186.08 169.017C186.08 168.455 186.763 168 187.606 168C188.449 168 189.132 168.455 189.132 169.017C189.132 169.579 188.449 170.034 187.606 170.034Z" fill="#FBA10D" fill-opacity="0.2"/>
<path d="M82.4669 755.551C82.0149 755.884 81.2429 755.605 80.7428 754.927C80.2426 754.249 80.2036 753.429 80.6556 753.095C81.1077 752.762 81.8796 753.041 82.3798 753.719C82.88 754.397 82.919 755.217 82.4669 755.551Z" fill="#FBA10D" fill-opacity="0.2"/>
<path d="M190.093 811.882C189.519 812.305 188.54 811.95 187.906 811.09C187.271 810.23 187.222 809.189 187.795 808.766C188.369 808.343 189.348 808.698 189.982 809.558C190.617 810.418 190.667 811.459 190.093 811.882Z" fill="#FBA10D" fill-opacity="0.2"/>
<path d="M78.6497 252.482C77.7456 253.149 76.4721 252.957 75.8052 252.053C75.1382 251.148 75.3305 249.875 76.2346 249.208C77.1387 248.541 78.4123 248.733 79.0792 249.637C79.7461 250.542 79.5538 251.815 78.6497 252.482Z" fill="#FBA10D" fill-opacity="0.2"/>
<path d="M514.21 173.686C513.063 174.532 511.447 174.288 510.601 173.141C509.755 171.994 509.999 170.378 511.146 169.532C512.293 168.686 513.909 168.93 514.755 170.077C515.601 171.224 515.357 172.84 514.21 173.686Z" fill="#FBA10D" fill-opacity="0.2"/>
<path d="M319.19 62.4025C319.71 63.7294 319.056 65.227 317.729 65.7474C316.402 66.2678 314.905 65.614 314.384 64.287C313.864 62.9601 314.518 61.4626 315.845 60.9422C317.172 60.4218 318.669 61.0756 319.19 62.4025Z" fill="#FBA10D" fill-opacity="0.2"/>
<path d="M53.9042 52.3612C53.2261 52.8614 52.2709 52.7172 51.7708 52.0391C51.2706 51.361 51.4148 50.4059 52.0929 49.9057C52.7709 49.4055 53.7261 49.5497 54.2263 50.2278C54.7265 50.9058 54.5823 51.861 53.9042 52.3612Z" fill="#FBA10D" fill-opacity="0.2"/>
<path d="M97.059 641.797C96.381 642.297 95.4258 642.153 94.9256 641.475C94.4254 640.797 94.5696 639.841 95.2477 639.341C95.9258 638.841 96.8809 638.985 97.3811 639.663C97.8813 640.341 97.7371 641.297 97.059 641.797Z" fill="#FBA10D" fill-opacity="0.2"/>
<path d="M162.678 367.987C163.014 368.844 162.592 369.812 161.735 370.148C160.878 370.484 159.91 370.062 159.574 369.205C159.238 368.348 159.66 367.38 160.517 367.044C161.374 366.708 162.342 367.13 162.678 367.987Z" fill="#FBA10D" fill-opacity="0.2"/>
<path d="M855.211 176.686C854.064 177.532 852.448 177.288 851.602 176.141C850.756 174.994 851 173.378 852.147 172.532C853.294 171.686 854.91 171.93 855.756 173.077C856.602 174.224 856.358 175.84 855.211 176.686Z" fill="#FBA10D" fill-opacity="0.2"/>
<path d="M643.573 215.265C642.713 215.899 641.501 215.716 640.866 214.856C640.232 213.996 640.415 212.784 641.275 212.149C642.135 211.515 643.347 211.698 643.982 212.558C644.616 213.418 644.433 214.63 643.573 215.265Z" fill="#FBA10D" fill-opacity="0.2"/>
<path d="M1321.62 403.713C1357.66 403.713 1386.87 374.498 1386.87 338.46C1386.87 302.422 1357.66 273.207 1321.62 273.207C1285.58 273.207 1256.37 302.422 1256.37 338.46C1256.37 374.498 1285.58 403.713 1321.62 403.713Z" fill="#2A3347"/>
<path d="M1383.86 330.58C1383.86 363.614 1359.31 390.92 1327.47 395.241C1324.59 395.626 1321.63 395.833 1318.62 395.833C1314.2 395.833 1309.87 395.389 1305.7 394.56C1275.85 388.552 1253.37 362.193 1253.37 330.58C1253.37 301.01 1273.05 276.027 1300.03 268.02C1305.92 266.274 1312.17 265.342 1318.62 265.342C1322.63 265.342 1326.57 265.712 1330.37 266.407C1360.79 271.942 1383.86 298.568 1383.86 330.58Z" fill="#70C4CB"/>
<path d="M1383.86 330.58C1383.86 363.614 1359.31 390.92 1327.47 395.241C1327.56 392.666 1327.58 390.061 1327.31 388.744C1326.67 385.666 1326.61 378.798 1326.55 376.149C1326.5 373.5 1328.82 363.051 1328.82 363.051C1328.82 363.051 1331.53 351.404 1331.33 346.564C1331.14 341.739 1327.81 333.066 1327.81 333.066C1327.81 333.066 1322.47 323.92 1320.75 320.975C1319.04 318.044 1316.59 314.655 1316.09 309.89C1315.59 305.139 1318.01 301.616 1318.62 298.804C1319.21 296.007 1324.35 289.14 1325.04 283.945C1325.55 280.097 1328.74 270.921 1330.37 266.407C1360.79 271.942 1383.86 298.568 1383.86 330.58Z" fill="#BED35A"/>
<path d="M1305.7 394.56C1275.85 388.552 1253.37 362.193 1253.37 330.58C1253.37 301.01 1273.05 276.027 1300.03 268.02C1296.55 274.74 1290.83 285.647 1288.77 288.74C1285.71 293.299 1274.72 298.124 1272.89 304.354C1271.07 310.585 1275.88 322.736 1278.44 325.267C1280.99 327.783 1288.1 330.772 1293.05 335.094C1297.99 339.401 1301.99 343.841 1302.87 348.192C1303.75 352.528 1301.63 363.244 1300.61 365.819C1299.57 368.394 1297.65 369.622 1297.58 373.382C1297.52 377.141 1302.71 383.357 1304.13 387.738C1304.69 389.469 1305.24 392.044 1305.7 394.56Z" fill="#BED35A"/>
<path opacity="0.4" d="M1298.27 275.128C1330.21 263.352 1365.43 278.145 1379.76 308.322L1380.02 308.224C1367.56 274.411 1330.04 257.106 1296.22 269.573C1262.41 282.04 1245.11 319.558 1257.57 353.371L1257.84 353.273C1249.13 321.023 1266.33 286.903 1298.27 275.128Z" fill="white"/>
<path d="M1140 637C1253.22 637 1345 545.218 1345 432C1345 318.782 1253.22 227 1140 227C1026.78 227 935 318.782 935 432C935 545.218 1026.78 637 1140 637Z" fill="url(#paint28_linear)"/>
<path opacity="0.4" d="M1237.19 290.509C1243.47 290.509 1248.56 285.418 1248.56 279.137C1248.56 272.856 1243.47 267.764 1237.19 267.764C1230.91 267.764 1225.82 272.856 1225.82 279.137C1225.82 285.418 1230.91 290.509 1237.19 290.509Z" fill="white"/>
<path opacity="0.6" d="M1237.19 285.533C1240.72 285.533 1243.59 282.669 1243.59 279.137C1243.59 275.604 1240.72 272.74 1237.19 272.74C1233.66 272.74 1230.8 275.604 1230.8 279.137C1230.8 282.669 1233.66 285.533 1237.19 285.533Z" fill="white"/>
<g filter="url(#filter1_d)">
<path d="M957.877 542.985L1069.17 575.086C1097.82 583.35 1127.76 566.829 1136.02 538.197L1149.11 492.798C1157.37 464.166 1140.83 434.241 1112.18 425.978L1000.88 393.877C972.235 385.613 942.299 402.134 934.041 430.766L920.947 476.164C912.688 504.796 929.228 534.722 957.877 542.985Z" fill="#FBAE0D"/>
<path d="M1046.4 445.063C1096.8 459.601 1149.44 430.551 1163.97 380.177C1178.5 329.803 1149.42 277.182 1099.01 262.643C1048.61 248.105 995.969 277.155 981.44 327.529C966.911 377.903 995.994 430.525 1046.4 445.063Z" fill="#CCCCCC"/>
<path d="M909.133 635.472L885.551 615.776C879.452 610.682 878.647 601.621 883.727 595.539L927.753 542.828C932.843 536.733 941.905 535.934 947.991 541.017L971.573 560.714C977.672 565.807 978.476 574.869 973.397 580.951L929.371 633.662C924.291 639.744 915.219 640.555 909.133 635.472Z" fill="#E6E6E6"/>
<path d="M946.147 614.504L899.59 575.619C899.146 575.248 898.472 575.309 898.101 575.752L896.101 578.147C895.731 578.591 895.791 579.265 896.235 579.636L942.792 618.521C943.235 618.892 943.91 618.831 944.28 618.388L946.281 615.993C946.662 615.537 946.59 614.875 946.147 614.504Z" fill="#B3B3B3"/>
<path d="M941.839 619.661L895.283 580.776C894.839 580.406 894.164 580.466 893.794 580.909L891.794 583.304C891.423 583.748 891.484 584.422 891.928 584.793L938.484 623.678C938.928 624.049 939.603 623.988 939.973 623.545L941.973 621.15C942.344 620.707 942.283 620.032 941.839 619.661Z" fill="#B3B3B3"/>
<path d="M937.32 625.072L890.764 586.187C890.32 585.816 889.645 585.876 889.275 586.32L887.687 588.221C887.317 588.664 887.378 589.339 887.821 589.709L934.378 628.594C934.822 628.965 935.497 628.905 935.867 628.461L937.454 626.561C937.835 626.104 937.764 625.443 937.32 625.072Z" fill="#B3B3B3"/>
<path d="M1062.35 687.816L1092.8 683.704C1100.67 682.64 1106.18 675.399 1105.12 667.546L1095.93 599.486C1094.86 591.616 1087.62 586.114 1079.76 587.175L1049.31 591.288C1041.44 592.351 1035.93 599.592 1036.99 607.445L1046.18 675.506C1047.24 683.359 1054.49 688.877 1062.35 687.816Z" fill="#E6E6E6"/>
<path d="M1042.19 650.357L1102.3 642.238C1102.87 642.161 1103.41 642.571 1103.49 643.144L1103.91 646.236C1103.98 646.809 1103.57 647.347 1103 647.425L1042.89 655.543C1042.31 655.621 1041.78 655.21 1041.7 654.638L1041.28 651.545C1041.2 650.957 1041.61 650.434 1042.19 650.357Z" fill="#B3B3B3"/>
<path d="M1043.09 657.016L1103.2 648.897C1103.77 648.82 1104.31 649.23 1104.39 649.803L1104.81 652.895C1104.88 653.468 1104.47 654.006 1103.9 654.084L1043.79 662.202C1043.21 662.279 1042.67 661.869 1042.6 661.296L1042.18 658.204C1042.1 657.632 1042.51 657.093 1043.09 657.016Z" fill="#B3B3B3"/>
<path d="M1044.03 664.002L1104.14 655.883C1104.72 655.806 1105.26 656.216 1105.33 656.789L1105.66 659.243C1105.74 659.816 1105.33 660.354 1104.76 660.432L1044.64 668.55C1044.07 668.627 1043.53 668.217 1043.45 667.644L1043.12 665.19C1043.04 664.601 1043.46 664.079 1044.03 664.002Z" fill="#B3B3B3"/>
<path d="M952.429 577.135L1051.81 605.799C1071.27 611.411 1091.58 600.19 1097.18 580.758L1121.11 497.797C1134.32 451.986 1107.87 404.134 1062.04 390.913C1014.08 377.082 963.992 404.714 950.166 452.65L927.345 531.773C921.756 551.209 932.97 571.523 952.429 577.135Z" fill="#CCCCCC"/>
<path d="M1052.47 424.029C1091.25 435.215 1131.75 412.864 1142.93 374.107C1154.11 335.349 1131.73 294.863 1092.95 283.677C1054.17 272.491 1013.67 294.843 1002.49 333.6C991.308 372.357 1013.68 412.844 1052.47 424.029Z" fill="#2B2A70"/>
<path d="M987.906 452.44C998.489 426.092 996.052 400.311 982.463 394.855C968.875 389.399 949.28 406.334 938.697 432.681C928.115 459.028 930.551 484.81 944.14 490.266C957.729 495.722 977.323 478.787 987.906 452.44Z" fill="#FBAE0D"/>
<path d="M1108.09 537.544C1122.49 540.162 1138.29 519.638 1143.36 491.702C1148.44 463.766 1140.87 438.997 1126.46 436.378C1112.06 433.76 1096.26 454.283 1091.19 482.219C1086.11 510.156 1093.68 534.925 1108.09 537.544Z" fill="#FBAE0D"/>
<path d="M1188.05 455.444L1188.65 455.487C1192.11 455.768 1195.16 453.176 1195.44 449.71L1195.89 444.173C1196.17 440.708 1193.57 437.658 1190.11 437.376L1189.51 437.334C1186.04 437.052 1182.99 439.645 1182.71 443.11L1182.27 448.647C1181.99 452.112 1184.58 455.162 1188.05 455.444Z" fill="#CCCCCC"/>
<path d="M1197.62 468.287L1197.7 468.88C1198.12 472.331 1201.27 474.794 1204.72 474.368L1210.24 473.687C1213.69 473.262 1216.15 470.106 1215.73 466.655L1215.65 466.062C1215.23 462.611 1212.07 460.148 1208.62 460.573L1203.11 461.254C1199.66 461.679 1197.19 464.835 1197.62 468.287Z" fill="#CCCCCC"/>
<path d="M1195.08 460.914L1195.55 461.287C1198.24 463.493 1202.21 463.119 1204.43 460.443L1207.96 456.168C1210.16 453.481 1209.78 449.507 1207.11 447.289L1206.64 446.916C1203.95 444.709 1199.98 445.084 1197.76 447.759L1194.23 452.035C1192.01 454.723 1192.41 458.696 1195.08 460.914Z" fill="#CCCCCC"/>
<path d="M1193.93 478.421L1193.69 478.969C1192.27 482.145 1193.68 485.878 1196.85 487.308L1201.91 489.579C1205.08 490.994 1208.82 489.579 1210.25 486.411L1210.48 485.863C1211.9 482.687 1210.49 478.954 1207.32 477.524L1202.26 475.253C1199.08 473.815 1195.36 475.252 1193.93 478.421Z" fill="#CCCCCC"/>
<path d="M1102.73 468.579L1106.84 497.135C1107.8 503.925 1114.11 508.632 1120.89 507.666L1126.04 506.933C1132.83 505.972 1137.54 499.666 1136.57 492.892L1131.73 459.177C1130.77 452.387 1124.46 447.68 1117.68 448.646C1108.03 450.022 1101.35 458.953 1102.73 468.579Z" fill="#CCCCCC"/>
<path d="M982.493 438.29L963.808 460.272C959.376 465.506 951.528 466.129 946.306 461.702L942.341 458.342C937.103 453.91 936.477 446.066 940.904 440.848L962.954 414.888C967.387 409.655 975.234 409.032 980.456 413.459C987.889 419.761 988.791 430.88 982.493 438.29Z" fill="#CCCCCC"/>
<path d="M1134.79 496.263L1187.45 489.583C1199.15 488.098 1207.45 477.41 1205.97 465.699L1205.73 463.849C1204.25 452.155 1193.55 443.859 1181.84 445.346L1129.18 452.026C1117.48 453.511 1109.18 464.2 1110.66 475.91L1110.9 477.761C1112.38 489.454 1123.08 497.75 1134.79 496.263Z" fill="#E6E6E6"/>
<path d="M1147.13 448.318L1153.1 495.356C1153.17 495.929 1153.7 496.344 1154.28 496.271L1155.92 496.063C1156.49 495.99 1156.91 495.455 1156.83 494.882L1150.86 447.844C1150.79 447.271 1150.26 446.856 1149.68 446.929L1148.04 447.137C1147.47 447.226 1147.06 447.745 1147.13 448.318Z" fill="#B3B3B3"/>
<path d="M1151.93 447.709L1157.9 494.747C1157.97 495.32 1158.51 495.735 1159.08 495.662L1160.72 495.454C1161.29 495.381 1161.71 494.846 1161.63 494.273L1155.67 447.235C1155.59 446.662 1155.06 446.247 1154.48 446.32L1152.85 446.528C1152.27 446.617 1151.86 447.136 1151.93 447.709Z" fill="#B3B3B3"/>
<path d="M1156.96 447.071L1162.93 494.108C1163 494.682 1163.54 495.096 1164.11 495.023L1165.29 494.874C1165.86 494.801 1166.28 494.266 1166.21 493.693L1160.24 446.655C1160.17 446.082 1159.63 445.667 1159.06 445.74L1157.88 445.89C1157.31 445.979 1156.89 446.498 1156.96 447.071Z" fill="#B3B3B3"/>
<path d="M915.019 377.6L914.491 377.318C911.408 375.711 910.209 371.893 911.818 368.811L914.39 363.888C915.999 360.806 919.819 359.606 922.902 361.213L923.43 361.495C926.513 363.102 927.713 366.92 926.104 370.002L923.532 374.926C921.923 378.007 918.102 379.207 915.019 377.6Z" fill="#CCCCCC"/>
<path d="M900.083 383.375L899.701 383.835C897.505 386.531 893.523 386.936 890.829 384.738L886.526 381.226C883.832 379.029 883.427 375.045 885.623 372.349L886.006 371.889C888.202 369.194 892.183 368.789 894.877 370.986L899.181 374.499C901.875 376.696 902.279 380.68 900.083 383.375Z" fill="#CCCCCC"/>
<path d="M906.153 378.484L905.56 378.552C902.11 378.987 898.946 376.555 898.495 373.109L897.785 367.611C897.35 364.163 899.785 361 903.233 360.549L903.825 360.481C907.276 360.045 910.44 362.478 910.891 365.923L911.6 371.421C912.055 374.883 909.6 378.032 906.153 378.484Z" fill="#CCCCCC"/>
<path d="M897.81 393.919L897.719 394.508C897.226 397.951 894.043 400.358 890.601 399.882L885.111 399.111C881.671 398.619 879.265 395.434 879.741 391.99L879.833 391.4C880.326 387.957 883.509 385.55 886.951 386.026L892.441 386.797C895.899 387.274 898.287 390.475 897.81 393.919Z" fill="#CCCCCC"/>
<path d="M938.357 440.511L897.348 406.815C888.234 399.327 886.9 385.859 894.394 376.739L895.578 375.297C903.061 366.19 916.53 364.864 925.656 372.362L966.666 406.058C975.779 413.546 977.113 427.014 969.62 436.134L968.435 437.576C960.952 446.683 947.483 448.009 938.357 440.511Z" fill="#E6E6E6"/>
<path d="M953.45 393.362L923.349 429.996C922.983 430.443 922.309 430.508 921.862 430.141L920.585 429.093C920.139 428.726 920.073 428.052 920.439 427.605L950.54 390.971C950.907 390.524 951.581 390.459 952.028 390.826L953.304 391.874C953.741 392.254 953.817 392.916 953.45 393.362Z" fill="#B3B3B3"/>
<path d="M949.711 390.289L919.61 426.924C919.243 427.37 918.569 427.436 918.122 427.069L916.846 426.02C916.399 425.653 916.333 424.979 916.7 424.532L946.801 387.898C947.167 387.452 947.841 387.386 948.288 387.753L949.565 388.802C950.001 389.181 950.078 389.843 949.711 390.289Z" fill="#B3B3B3"/>
<path d="M945.792 387.07L915.692 423.704C915.325 424.15 914.651 424.216 914.204 423.849L913.285 423.094C912.838 422.727 912.772 422.053 913.139 421.606L943.24 384.972C943.607 384.526 944.281 384.46 944.727 384.827L945.646 385.582C946.083 385.962 946.159 386.623 945.792 387.07Z" fill="#B3B3B3"/>
<path d="M1053.37 302.662C1084.48 289.103 1084.57 295.384 1081.24 292.038C1078.13 290.487 1062.81 285.459 1039.53 299.959C1022.91 310.307 1018.24 321.217 1016.41 330.718C1016.11 334.515 1017.07 338.912 1017.76 341.642C1019.25 347.505 1022.26 316.221 1053.37 302.662Z" fill="#EEEEEE" fill-opacity="0.96"/>
<path d="M1014.03 348.084C1014.03 348.441 1009.51 361.612 1007.86 361.612C1006.2 361.612 1007.44 351.27 1007.53 349.584C1007.63 347.584 1011.03 330.584 1013.53 340.585C1015.04 346.044 1014.03 347.728 1014.03 348.084Z" fill="#EEEEEE" fill-opacity="0.95"/>
</g>
<path d="M1041 494.5C1053.98 494.5 1064.5 483.979 1064.5 471C1064.5 458.021 1053.98 447.5 1041 447.5C1028.02 447.5 1017.5 458.021 1017.5 471C1017.5 483.979 1028.02 494.5 1041 494.5Z" stroke="#E6E6E6"/>
<path d="M1048.6 460.065L1055.1 461.672L1040.29 488.362L1040.33 477.309L1048.6 460.065ZM1039.34 457.775L1038.96 488.033L1033.6 486.707L1032.85 456.173L1039.34 457.775Z" fill="#DF9E15"/>
</g>
</g>
<defs>
<filter id="filter0_d" x="-238.031" y="-159.554" width="2117.26" height="1010.29" filterUnits="userSpaceOnUse" color-interpolation-filters="sRGB">
<feFlood flood-opacity="0" result="BackgroundImageFix"/>
<feColorMatrix in="SourceAlpha" type="matrix" values="0 0 0 0 0 0 0 0 0 0 0 0 0 0 0 0 0 0 127 0"/>
<feOffset dy="4"/>
<feGaussianBlur stdDeviation="12.5"/>
<feColorMatrix type="matrix" values="0 0 0 0 0.17539 0 0 0 0 0.0809271 0 0 0 0 0.2125 0 0 0 1 0"/>
<feBlend mode="normal" in2="BackgroundImageFix" result="effect1_dropShadow"/>
<feBlend mode="normal" in="SourceGraphic" in2="effect1_dropShadow" result="shape"/>
</filter>
<filter id="filter1_d" x="844.681" y="213.896" width="426.096" height="519.051" filterUnits="userSpaceOnUse" color-interpolation-filters="sRGB">
<feFlood flood-opacity="0" result="BackgroundImageFix"/>
<feColorMatrix in="SourceAlpha" type="matrix" values="0 0 0 0 0 0 0 0 0 0 0 0 0 0 0 0 0 0 127 0"/>
<feOffset dx="10"/>
<feGaussianBlur stdDeviation="22.5"/>
<feColorMatrix type="matrix" values="0 0 0 0 0 0 0 0 0 0 0 0 0 0 0 0 0 0 0.2 0"/>
<feBlend mode="normal" in2="BackgroundImageFix" result="effect1_dropShadow"/>
<feBlend mode="normal" in="SourceGraphic" in2="effect1_dropShadow" result="shape"/>
</filter>
<linearGradient id="paint0_linear" x1="1464.41" y1="-50.8463" x2="1369.46" y2="1186.85" gradientUnits="userSpaceOnUse">
<stop offset="0.201042" stop-color="#231E33"/>
<stop offset="1" stop-color="#482251"/>
</linearGradient>
<linearGradient id="paint1_linear" x1="1871.36" y1="-293.223" x2="1723.86" y2="1187.92" gradientUnits="userSpaceOnUse">
<stop offset="0.201042" stop-color="#231E33"/>
<stop offset="1" stop-color="#482251"/>
</linearGradient>
<linearGradient id="paint2_linear" x1="504.632" y1="95.1369" x2="524.835" y2="101.76" gradientUnits="userSpaceOnUse">
<stop stop-color="#FB7A0D"/>
<stop offset="1" stop-color="#FBAE0D"/>
</linearGradient>
<linearGradient id="paint3_linear" x1="268.658" y1="321.832" x2="288.861" y2="328.455" gradientUnits="userSpaceOnUse">
<stop stop-color="#FB7A0D"/>
<stop offset="1" stop-color="#FBAE0D"/>
</linearGradient>
<linearGradient id="paint4_linear" x1="58.2611" y1="419.994" x2="78.4642" y2="426.618" gradientUnits="userSpaceOnUse">
<stop stop-color="#FB7A0D"/>
<stop offset="1" stop-color="#FBAE0D"/>
</linearGradient>
<linearGradient id="paint5_linear" x1="459.709" y1="204.403" x2="479.912" y2="211.026" gradientUnits="userSpaceOnUse">
<stop stop-color="#FB7A0D"/>
<stop offset="1" stop-color="#FBAE0D"/>
</linearGradient>
<linearGradient id="paint6_linear" x1="158.362" y1="267.798" x2="177.844" y2="287.071" gradientUnits="userSpaceOnUse">
<stop stop-color="#FB7A0D"/>
<stop offset="1" stop-color="#FBAE0D"/>
</linearGradient>
<linearGradient id="paint7_linear" x1="1308.54" y1="254.943" x2="1320.66" y2="237.475" gradientUnits="userSpaceOnUse">
<stop stop-color="#FB7A0D"/>
<stop offset="1" stop-color="#FBAE0D"/>
</linearGradient>
<linearGradient id="paint8_linear" x1="1521.03" y1="544.82" x2="1533.15" y2="527.352" gradientUnits="userSpaceOnUse">
<stop stop-color="#FB7A0D"/>
<stop offset="1" stop-color="#FBAE0D"/>
</linearGradient>
<linearGradient id="paint9_linear" x1="1492.28" y1="775.538" x2="1504.4" y2="758.07" gradientUnits="userSpaceOnUse">
<stop stop-color="#FB7A0D"/>
<stop offset="1" stop-color="#FBAE0D"/>
</linearGradient>
<linearGradient id="paint10_linear" x1="1349.16" y1="427.16" x2="1361.28" y2="409.692" gradientUnits="userSpaceOnUse">
<stop stop-color="#FB7A0D"/>
<stop offset="1" stop-color="#FBAE0D"/>
</linearGradient>
<linearGradient id="paint11_linear" x1="90.5959" y1="695.021" x2="72.445" y2="683.949" gradientUnits="userSpaceOnUse">
<stop stop-color="#FB7A0D"/>
<stop offset="1" stop-color="#FBAE0D"/>
</linearGradient>
<linearGradient id="paint12_linear" x1="350.606" y1="695.642" x2="332.455" y2="684.57" gradientUnits="userSpaceOnUse">
<stop stop-color="#FB7A0D"/>
<stop offset="1" stop-color="#FBAE0D"/>
</linearGradient>
<linearGradient id="paint13_linear" x1="696.596" y1="774.45" x2="678.445" y2="763.378" gradientUnits="userSpaceOnUse">
<stop stop-color="#FB7A0D"/>
<stop offset="1" stop-color="#FBAE0D"/>
</linearGradient>
<linearGradient id="paint14_linear" x1="156.596" y1="796.45" x2="138.445" y2="785.378" gradientUnits="userSpaceOnUse">
<stop stop-color="#FB7A0D"/>
<stop offset="1" stop-color="#FBAE0D"/>
</linearGradient>
<linearGradient id="paint15_linear" x1="578.104" y1="547.994" x2="581.524" y2="568.979" gradientUnits="userSpaceOnUse">
<stop stop-color="#FB7A0D"/>
<stop offset="1" stop-color="#FBAE0D"/>
</linearGradient>
<linearGradient id="paint16_linear" x1="814.653" y1="619.247" x2="818.073" y2="640.231" gradientUnits="userSpaceOnUse">
<stop stop-color="#FB7A0D"/>
<stop offset="1" stop-color="#FBAE0D"/>
</linearGradient>
<linearGradient id="paint17_linear" x1="1107.28" y1="702.182" x2="1128.54" y2="701.811" gradientUnits="userSpaceOnUse">
<stop stop-color="#FB7A0D"/>
<stop offset="1" stop-color="#FBAE0D"/>
</linearGradient>
<linearGradient id="paint18_linear" x1="1122.15" y1="819.045" x2="1147.44" y2="808.508" gradientUnits="userSpaceOnUse">
<stop stop-color="#FB7A0D"/>
<stop offset="1" stop-color="#FBAE0D"/>
</linearGradient>
<linearGradient id="paint19_linear" x1="824.527" y1="428.327" x2="843.11" y2="432.212" gradientUnits="userSpaceOnUse">
<stop stop-color="#FB7A0D"/>
<stop offset="1" stop-color="#FBAE0D"/>
</linearGradient>
<linearGradient id="paint20_linear" x1="1062.8" y1="181.522" x2="1081.38" y2="185.407" gradientUnits="userSpaceOnUse">
<stop stop-color="#FB7A0D"/>
<stop offset="1" stop-color="#FBAE0D"/>
</linearGradient>
<linearGradient id="paint21_linear" x1="845.656" y1="319.692" x2="864.161" y2="334.152" gradientUnits="userSpaceOnUse">
<stop stop-color="#FB7A0D"/>
<stop offset="1" stop-color="#FBAE0D"/>
</linearGradient>
<linearGradient id="paint22_linear" x1="1288.26" y1="696.555" x2="1323.58" y2="713.431" gradientUnits="userSpaceOnUse">
<stop stop-color="#FB7A0D"/>
<stop offset="1" stop-color="#FBAE0D"/>
</linearGradient>
<linearGradient id="paint23_linear" x1="1501.26" y1="180.555" x2="1536.58" y2="197.431" gradientUnits="userSpaceOnUse">
<stop stop-color="#FB7A0D"/>
<stop offset="1" stop-color="#FBAE0D"/>
</linearGradient>
<linearGradient id="paint24_linear" x1="157.228" y1="49.5705" x2="185.053" y2="77.0983" gradientUnits="userSpaceOnUse">
<stop stop-color="#FB7A0D"/>
<stop offset="1" stop-color="#FBAE0D"/>
</linearGradient>
<linearGradient id="paint25_linear" x1="238.188" y1="808.089" x2="240.677" y2="769.467" gradientUnits="userSpaceOnUse">
<stop stop-color="#FB7A0D"/>
<stop offset="1" stop-color="#FBAE0D"/>
</linearGradient>
<linearGradient id="paint26_linear" x1="644.188" y1="633.089" x2="646.677" y2="594.467" gradientUnits="userSpaceOnUse">
<stop stop-color="#FB7A0D"/>
<stop offset="1" stop-color="#FBAE0D"/>
</linearGradient>
<linearGradient id="paint27_linear" x1="968.846" y1="644.741" x2="1004.16" y2="661.617" gradientUnits="userSpaceOnUse">
<stop stop-color="#FB7A0D"/>
<stop offset="1" stop-color="#FBAE0D"/>
</linearGradient>
<linearGradient id="paint28_linear" x1="964.025" y1="190.074" x2="1239.79" y2="637.046" gradientUnits="userSpaceOnUse">
<stop stop-color="#231E33"/>
<stop offset="1" stop-color="#362042" stop-opacity="0.27"/>
</linearGradient>
<clipPath id="clip0">
<rect width="1600" height="904" fill="white"/>
</clipPath>
</defs>
</svg>
