<svg width="1600" height="904" viewBox="0 0 1600 904" fill="none" xmlns="http://www.w3.org/2000/svg">
<mask id="mask0" mask-type="alpha" maskUnits="userSpaceOnUse" x="0" y="-50" width="1600" height="941">
<rect y="-50" width="1600" height="941" fill="#C4C4C4"/>
</mask>
<g mask="url(#mask0)">
<path fill-rule="evenodd" clip-rule="evenodd" d="M1747.87 230.546C1736.37 327.53 1994.02 620.985 1872.37 695.556C1745.67 773.222 1618.94 840.426 1369 869.547C1117.66 898.83 985.477 815.763 753.726 809.499C566.823 804.448 331.272 857.377 168.759 837.109C-13.6679 814.357 -143.776 762.316 -159.892 695.556C-176.266 627.73 -153.233 2.65117 -6.49983 -65.9538C131.329 -130.396 249.573 -21.7299 452.001 -65.9538C660.438 -111.491 1057.58 -52.9023 1279.37 -65.9538C1524.46 -80.3763 1458.95 -110.067 1609 -65.9538C1758.56 -21.9866 1771.87 28.2259 1747.87 230.546Z" fill="url(#paint0_linear)"/>
</g>
<mask id="mask1" mask-type="alpha" maskUnits="userSpaceOnUse" x="0" y="-50" width="1600" height="872">
<rect y="-50" width="1600" height="872" fill="#C4C4C4"/>
</mask>
<g mask="url(#mask1)">
<g filter="url(#filter0_d)">
<path fill-rule="evenodd" clip-rule="evenodd" d="M1696.02 176.5C1684.52 273.485 1942.17 566.939 1820.52 641.51C1693.82 719.176 1567.09 786.379 1317.15 815.5C1065.81 844.784 933.626 761.717 701.875 755.453C514.972 750.402 279.421 803.331 116.908 783.063C-65.5189 760.311 -195.627 708.27 -211.743 641.51C-228.117 573.684 -156.213 -51.3948 -9.47969 -120C128.349 -184.442 256.592 -56.7759 459.02 -101C667.457 -146.536 1005.73 -106.948 1227.52 -120C1472.61 -134.422 1437.47 -126.113 1587.52 -81.9999C1737.08 -38.0326 1720.02 -25.8201 1696.02 176.5Z" fill="url(#paint1_linear)"/>
</g>
</g>
<path d="M511.133 101.498L511.96 107.232L517.929 108.099L512.472 110.776L513.299 116.51L509.099 112.431L503.642 115.108L506.503 109.909L502.304 105.829L508.272 106.696L511.133 101.498Z" fill="url(#paint2_linear)" fill-opacity="0.8"/>
<path d="M275.159 328.193L275.986 333.927L281.954 334.794L276.497 337.471L277.324 343.206L273.124 339.126L267.667 341.803L270.529 336.604L266.329 332.525L272.297 333.392L275.159 328.193Z" fill="url(#paint3_linear)" fill-opacity="0.8"/>
<path d="M64.7624 426.355L65.5894 432.089L71.5576 432.956L66.1005 435.633L66.9276 441.368L62.7279 437.288L57.2708 439.965L60.1323 434.767L55.9327 430.687L61.9008 431.554L64.7624 426.355Z" fill="url(#paint4_linear)" fill-opacity="0.8"/>
<path d="M466.21 210.764L467.037 216.498L473.005 217.365L467.548 220.042L468.375 225.776L464.175 221.697L458.718 224.374L461.58 219.175L457.38 215.096L463.348 215.962L466.21 210.764Z" fill="url(#paint5_linear)" fill-opacity="0.8"/>
<path d="M161.992 279.083L159.415 286.402L165.814 290.822L157.822 290.926L155.245 298.245L152.882 290.99L144.89 291.093L151.422 286.506L149.06 279.251L155.459 283.671L161.992 279.083Z" fill="url(#paint6_linear)" fill-opacity="0.8"/>
<path d="M1316.49 250.531L1322.22 251.377L1324.76 245.906L1325.77 251.9L1331.5 252.747L1326.39 255.605L1327.39 261.6L1323.23 257.372L1318.12 260.23L1320.66 254.759L1316.49 250.531Z" fill="url(#paint7_linear)" fill-opacity="0.8"/>
<path d="M1528.98 540.408L1534.71 541.254L1537.25 535.782L1538.25 541.777L1543.99 542.623L1538.88 545.482L1539.88 551.476L1535.72 547.248L1530.61 550.107L1533.15 544.635L1528.98 540.408Z" fill="url(#paint8_linear)" fill-opacity="0.8"/>
<path d="M1500.23 771.126L1505.96 771.972L1508.5 766.501L1509.51 772.495L1515.24 773.341L1510.13 776.2L1511.13 782.194L1506.97 777.967L1501.86 780.825L1504.4 775.354L1500.23 771.126Z" fill="url(#paint9_linear)" fill-opacity="0.8"/>
<path d="M1357.11 422.748L1362.85 423.594L1365.38 418.123L1366.39 424.117L1372.12 424.963L1367.01 427.822L1368.02 433.817L1363.85 429.589L1358.74 432.447L1361.28 426.976L1357.11 422.748Z" fill="url(#paint10_linear)" fill-opacity="0.8"/>
<path d="M85.7239 687.341L86.2313 681.569L80.6199 679.36L86.5449 678.003L87.0523 672.231L90.2067 677.164L96.1316 675.807L92.1562 680.212L95.3107 685.145L89.6993 682.935L85.7239 687.341Z" fill="url(#paint11_linear)" fill-opacity="0.8"/>
<path d="M345.734 687.962L346.241 682.191L340.63 679.981L346.555 678.624L347.062 672.852L350.216 677.785L356.141 676.428L352.166 680.834L355.32 685.766L349.709 683.556L345.734 687.962Z" fill="url(#paint12_linear)" fill-opacity="0.8"/>
<path d="M691.724 766.77L692.231 760.999L686.62 758.789L692.545 757.432L693.052 751.66L696.207 756.593L702.132 755.236L698.156 759.642L701.311 764.574L695.699 762.364L691.724 766.77Z" fill="url(#paint13_linear)" fill-opacity="0.8"/>
<path d="M151.724 788.77L152.231 782.999L146.62 780.789L152.545 779.432L153.052 773.66L156.207 778.593L162.132 777.236L158.156 781.642L161.311 786.574L155.699 784.364L151.724 788.77Z" fill="url(#paint14_linear)" fill-opacity="0.8"/>
<path d="M575.45 556.693L570.74 560.067L572.718 565.764L567.829 562.152L563.119 565.526L564.808 559.919L559.92 556.307L565.852 556.455L567.541 550.848L569.518 556.546L575.45 556.693Z" fill="url(#paint15_linear)" fill-opacity="0.8"/>
<path d="M811.999 627.946L807.289 631.32L809.267 637.017L804.378 633.405L799.668 636.778L801.357 631.172L796.468 627.56L802.401 627.707L804.089 622.101L806.067 627.799L811.999 627.946Z" fill="url(#paint16_linear)" fill-opacity="0.8"/>
<path d="M1115.51 706.058L1118.17 711.204L1124.09 710.065L1119.82 714.384L1122.48 719.53L1117.17 717.053L1112.9 721.373L1113.89 715.523L1108.59 713.047L1114.51 711.908L1115.51 706.058Z" fill="url(#paint17_linear)" fill-opacity="0.8"/>
<path d="M1228.27 851.709L1233.88 853.158L1236.98 847.987L1237.34 854.054L1242.95 855.503L1237.57 857.804L1237.93 863.871L1234.24 859.226L1228.86 861.526L1231.96 856.355L1228.27 851.709Z" fill="url(#paint18_linear)" fill-opacity="0.8"/>
<path d="M1133.96 820.051L1139.71 825.252L1146.26 821.054L1143.27 828.467L1149.03 833.668L1141.43 833.049L1138.44 840.462L1136.73 832.666L1129.12 832.046L1135.67 827.847L1133.96 820.051Z" fill="url(#paint19_linear)" fill-opacity="0.8"/>
<path d="M831.076 432.605L832.444 437.287L837.916 437.038L833.289 440.18L834.657 444.861L830.43 442.122L825.803 445.264L827.817 440.429L823.59 437.69L829.062 437.441L831.076 432.605Z" fill="url(#paint20_linear)" fill-opacity="0.8"/>
<path d="M1069.35 185.801L1070.72 190.482L1076.19 190.233L1071.56 193.375L1072.93 198.057L1068.7 195.317L1064.07 198.46L1066.09 193.624L1061.86 190.885L1067.33 190.636L1069.35 185.801Z" fill="url(#paint21_linear)" fill-opacity="0.8"/>
<path d="M850.151 328.577L848.623 335.147L854.869 337.812L847.679 339.208L846.151 345.778L843.235 340.07L836.045 341.466L841.433 336.543L838.517 330.836L844.763 333.5L850.151 328.577Z" fill="url(#paint22_linear)" fill-opacity="0.8"/>
<path d="M1298.45 710.081L1298.4 721.164L1309.11 724.129L1298.37 728.013L1298.32 739.096L1291.74 730.414L1281 734.299L1287.67 725.048L1281.08 716.366L1291.78 719.331L1298.45 710.081Z" fill="url(#paint23_linear)"/>
<path d="M1511.45 194.081L1511.4 205.164L1522.11 208.129L1511.37 212.013L1511.32 223.096L1504.74 214.414L1494 218.299L1500.67 209.048L1494.08 200.366L1504.78 203.331L1511.45 194.081Z" fill="url(#paint24_linear)"/>
<path d="M162.411 65.6889L158.73 76.1428L167.87 82.4557L156.455 82.6036L152.774 93.0574L149.4 82.695L137.984 82.843L147.314 76.2907L143.94 65.9283L153.081 72.2412L162.411 65.6889Z" fill="url(#paint25_linear)"/>
<path d="M247.883 793.83L258.566 789.827L257.925 778.948L265.169 787.353L275.853 783.35L269.646 792.547L276.891 800.952L265.811 798.232L259.604 807.429L258.963 796.551L247.883 793.83Z" fill="url(#paint26_linear)"/>
<path d="M653.883 618.83L664.566 614.827L663.925 603.948L671.169 612.353L681.853 608.35L675.646 617.547L682.891 625.952L671.811 623.232L665.604 632.429L664.963 621.551L653.883 618.83Z" fill="url(#paint27_linear)"/>
<path d="M979.03 658.266L978.982 669.349L989.688 672.314L978.953 676.199L978.905 687.282L972.318 678.6L961.583 682.484L968.247 673.234L961.66 664.552L972.366 667.517L979.03 658.266Z" fill="url(#paint28_linear)"/>
<circle cx="371.98" cy="617.625" r="1.52566" transform="rotate(36.4146 371.98 617.625)" fill="white" fill-opacity="0.4"/>
<circle cx="84.3783" cy="120.974" r="1.93556" transform="rotate(68.4773 84.3783 120.974)" fill="white" fill-opacity="0.4"/>
<ellipse cx="426.526" cy="803.101" rx="1.52566" ry="1.01711" fill="white" fill-opacity="0.4"/>
<ellipse cx="609.676" cy="291.724" rx="1.52566" ry="1.01711" transform="rotate(36.4146 609.676 291.724)" fill="white" fill-opacity="0.4"/>
<ellipse cx="543.593" cy="685.724" rx="1.52566" ry="1.01711" transform="rotate(36.4146 543.593 685.724)" fill="white" fill-opacity="0.4"/>
<ellipse cx="195.171" cy="615.679" rx="1.93556" ry="1.29038" transform="rotate(36.4146 195.171 615.679)" fill="white" fill-opacity="0.4"/>
<ellipse cx="649.079" cy="748.243" rx="1.01711" ry="1.52566" fill="white" fill-opacity="0.4"/>
<ellipse cx="37.034" cy="697.815" rx="1.29038" ry="1.93556" transform="rotate(36.4146 37.034 697.815)" fill="white" fill-opacity="0.4"/>
<ellipse cx="45.034" cy="483.815" rx="1.29038" ry="1.93556" transform="rotate(36.4146 45.034 483.815)" fill="white" fill-opacity="0.4"/>
<circle cx="345.406" cy="212.247" r="1.52566" transform="rotate(44.0076 345.406 212.247)" fill="white" fill-opacity="0.4"/>
<circle cx="476.43" cy="110.464" r="1.52566" transform="rotate(36.4146 476.43 110.464)" fill="white" fill-opacity="0.4"/>
<circle cx="629.977" cy="389.133" r="1.52566" transform="rotate(36.4146 629.977 389.133)" fill="white" fill-opacity="0.4"/>
<circle cx="92.5532" cy="771.198" r="1.93556" transform="rotate(36.4146 92.5532 771.198)" fill="white" fill-opacity="0.4"/>
<circle cx="235.552" cy="591.198" r="1.93556" transform="rotate(36.4146 235.552 591.198)" fill="white" fill-opacity="0.4"/>
<circle cx="30.6093" cy="303.47" r="2.58075" transform="rotate(36.4146 30.6093 303.47)" fill="white" fill-opacity="0.4"/>
<circle cx="558.134" cy="55.1334" r="1.52566" transform="rotate(36.4146 558.134 55.1334)" fill="white" fill-opacity="0.4"/>
<circle cx="175.553" cy="678.198" r="1.93556" transform="rotate(36.4146 175.553 678.198)" fill="white" fill-opacity="0.4"/>
<circle cx="180.69" cy="471.845" r="2.03422" transform="rotate(36.4146 180.69 471.845)" fill="white" fill-opacity="0.4"/>
<circle cx="124.518" cy="60.3295" r="2.58075" transform="rotate(68.4773 124.518 60.3295)" fill="white" fill-opacity="0.4"/>
<circle cx="1535.98" cy="159.133" r="1.52566" transform="rotate(36.4146 1535.98 159.133)" fill="white" fill-opacity="0.4"/>
<ellipse cx="1405.53" cy="153.017" rx="1.52566" ry="1.01711" fill="white" fill-opacity="0.4"/>
<ellipse cx="1373.83" cy="901.724" rx="1.52566" ry="1.01711" transform="rotate(36.4146 1373.83 901.724)" fill="white" fill-opacity="0.4"/>
<ellipse cx="1423.91" cy="63.2732" rx="1.93556" ry="1.29038" transform="rotate(111.415 1423.91 63.2732)" fill="white" fill-opacity="0.4"/>
<ellipse cx="1511.57" cy="738.323" rx="1.01711" ry="1.52566" transform="rotate(36.4146 1511.57 738.323)" fill="white" fill-opacity="0.4"/>
<circle cx="1415.59" cy="456.647" r="1.52566" fill="white" fill-opacity="0.4"/>
<circle cx="1430.63" cy="830.88" r="1.52566" transform="rotate(36.4146 1430.63 830.88)" fill="white" fill-opacity="0.4"/>
<circle cx="733.551" cy="321.707" r="1.93556" transform="rotate(36.4146 733.551 321.707)" fill="white" fill-opacity="0.4"/>
<circle cx="1328.69" cy="669.336" r="2.03422" transform="rotate(36.4146 1328.69 669.336)" fill="white" fill-opacity="0.4"/>
<circle cx="1080.45" cy="155.609" r="2.58075" transform="rotate(36.4146 1080.45 155.609)" fill="white" fill-opacity="0.4"/>
<circle cx="1276.34" cy="47.3451" r="2.58075" transform="rotate(111.415 1276.34 47.3451)" fill="white" fill-opacity="0.4"/>
<circle cx="1540.13" cy="35.1334" r="1.52566" transform="rotate(36.4146 1540.13 35.1334)" fill="white" fill-opacity="0.4"/>
<circle cx="1496.98" cy="624.569" r="1.52566" transform="rotate(36.4146 1496.98 624.569)" fill="white" fill-opacity="0.4"/>
<circle cx="827.551" cy="495.707" r="1.93556" transform="rotate(36.4146 827.551 495.707)" fill="white" fill-opacity="0.4"/>
<circle cx="1432.01" cy="352.595" r="1.6668" transform="rotate(111.415 1432.01 352.595)" fill="white" fill-opacity="0.4"/>
<circle cx="739.453" cy="158.609" r="2.58075" transform="rotate(36.4146 739.453 158.609)" fill="white" fill-opacity="0.4"/>
<circle cx="894.453" cy="303.609" r="2.58075" transform="rotate(36.4146 894.453 303.609)" fill="white" fill-opacity="0.4"/>
<ellipse cx="1082.08" cy="872.111" rx="1.29038" ry="1.93556" transform="rotate(-166.268 1082.08 872.111)" fill="white" fill-opacity="0.4"/>
<circle cx="1166.14" cy="808.868" r="1.93556" transform="rotate(118.732 1166.14 808.868)" fill="white" fill-opacity="0.4"/>
<circle cx="903.382" cy="887.976" r="2.03422" transform="rotate(118.732 903.382 887.976)" fill="white" fill-opacity="0.4"/>
<circle cx="950.707" cy="197.707" r="1.93556" transform="rotate(36.4146 950.707 197.707)" fill="white" fill-opacity="0.4"/>
<circle cx="1048.75" cy="290.743" r="1.93556" transform="rotate(36.4146 1048.75 290.743)" fill="white" fill-opacity="0.4"/>
<circle r="1.52566" transform="matrix(-0.719248 0.694754 0.694754 0.719248 1227.38 198.403)" fill="#FBA10D" fill-opacity="0.2"/>
<circle r="1.52566" transform="matrix(-0.804743 0.593623 0.593623 0.804743 1119 55.1334)" fill="#FBA10D" fill-opacity="0.2"/>
<circle r="1.93556" transform="matrix(0.365113 0.930963 0.930963 -0.365113 1360.78 425.508)" fill="#FBA10D" fill-opacity="0.2"/>
<ellipse rx="1.52566" ry="1.01711" transform="matrix(-0.804743 0.593623 0.593623 0.804743 983.456 307.724)" fill="#FBA10D" fill-opacity="0.2"/>
<ellipse rx="1.93556" ry="1.29038" transform="matrix(-0.804743 0.593623 0.593623 0.804743 1397.96 631.679)" fill="#FBA10D" fill-opacity="0.2"/>
<ellipse rx="1.01711" ry="1.52566" transform="matrix(-1 0 0 1 944.053 764.243)" fill="#FBA10D" fill-opacity="0.2"/>
<ellipse rx="1.01711" ry="1.52566" transform="matrix(-0.804743 0.593623 0.593623 0.804743 1068.34 785.549)" fill="#FBA10D" fill-opacity="0.2"/>
<ellipse rx="1.29038" ry="1.93556" transform="matrix(-0.804743 0.593623 0.593623 0.804743 1556.1 713.815)" fill="#FBA10D" fill-opacity="0.2"/>
<ellipse rx="1.29038" ry="1.93556" transform="matrix(-0.804743 0.593623 0.593623 0.804743 1548.1 499.815)" fill="#FBA10D" fill-opacity="0.2"/>
<circle r="1.52566" transform="matrix(-0.804743 0.593623 0.593623 0.804743 963.154 405.133)" fill="#FBA10D" fill-opacity="0.2"/>
<circle r="1.93556" transform="matrix(-0.804743 0.593623 0.593623 0.804743 1500.58 787.198)" fill="#FBA10D" fill-opacity="0.2"/>
<circle r="2.58075" transform="matrix(-0.804743 0.593623 0.593623 0.804743 1562.52 319.47)" fill="#FBA10D" fill-opacity="0.2"/>
<circle r="1.52566" transform="matrix(-0.804743 0.593623 0.593623 0.804743 1035 71.1334)" fill="#FBA10D" fill-opacity="0.2"/>
<circle r="1.93556" transform="matrix(-0.804743 0.593623 0.593623 0.804743 1417.58 694.198)" fill="#FBA10D" fill-opacity="0.2"/>
<circle r="2.58075" transform="matrix(-0.36687 0.930272 0.930272 0.36687 1468.61 76.3295)" fill="#FBA10D" fill-opacity="0.2"/>
<circle r="1.93556" transform="matrix(0.365113 0.930963 0.930963 -0.365113 251.778 411.944)" fill="#FBA10D" fill-opacity="0.2"/>
<ellipse rx="1.52566" ry="1.01711" transform="matrix(-1 0 0 1 187.606 169.017)" fill="#FBA10D" fill-opacity="0.2"/>
<ellipse rx="1.01711" ry="1.52566" transform="matrix(-0.804743 0.593623 0.593623 0.804743 81.5618 754.323)" fill="#FBA10D" fill-opacity="0.2"/>
<ellipse rx="1.29038" ry="1.93556" transform="matrix(-0.804743 0.593623 0.593623 0.804743 188.945 810.324)" fill="#FBA10D" fill-opacity="0.2"/>
<circle r="1.52566" transform="matrix(-0.804743 0.593623 0.593623 0.804743 162.496 846.88)" fill="#FBA10D" fill-opacity="0.2"/>
<circle r="2.03422" transform="matrix(-0.804743 0.593623 0.593623 0.804743 77.4426 250.845)" fill="#FBA10D" fill-opacity="0.2"/>
<circle r="2.58075" transform="matrix(-0.804743 0.593623 0.593623 0.804743 512.678 171.609)" fill="#FBA10D" fill-opacity="0.2"/>
<circle r="2.58075" transform="matrix(0.365113 0.930963 0.930963 -0.365113 316.787 63.3451)" fill="#FBA10D" fill-opacity="0.2"/>
<circle r="1.52566" transform="matrix(-0.804743 0.593623 0.593623 0.804743 52.9982 51.1334)" fill="#FBA10D" fill-opacity="0.2"/>
<circle r="1.52566" transform="matrix(-0.804743 0.593623 0.593623 0.804743 96.1535 640.569)" fill="#FBA10D" fill-opacity="0.2"/>
<circle r="1.6668" transform="matrix(0.365113 0.930963 0.930963 -0.365113 161.126 368.596)" fill="#FBA10D" fill-opacity="0.2"/>
<circle r="2.58075" transform="matrix(-0.804743 0.593623 0.593623 0.804743 853.679 174.609)" fill="#FBA10D" fill-opacity="0.2"/>
<circle r="1.93556" transform="matrix(0.480716 0.876876 0.876876 -0.480716 426.992 824.868)" fill="#FBA10D" fill-opacity="0.2"/>
<circle r="1.93556" transform="matrix(-0.804743 0.593623 0.593623 0.804743 642.424 213.707)" fill="#FBA10D" fill-opacity="0.2"/>
<defs>
<filter id="filter0_d" x="-318.84" y="-346.046" width="2217.38" height="1355.14" filterUnits="userSpaceOnUse" color-interpolation-filters="sRGB">
<feFlood flood-opacity="0" result="BackgroundImageFix"/>
<feColorMatrix in="SourceAlpha" type="matrix" values="0 0 0 0 0 0 0 0 0 0 0 0 0 0 0 0 0 0 127 0"/>
<feOffset dy="4"/>
<feGaussianBlur stdDeviation="12.5"/>
<feColorMatrix type="matrix" values="0 0 0 0 0.17539 0 0 0 0 0.0809271 0 0 0 0 0.2125 0 0 0 1 0"/>
<feBlend mode="normal" in2="BackgroundImageFix" result="effect1_dropShadow"/>
<feBlend mode="normal" in="SourceGraphic" in2="effect1_dropShadow" result="shape"/>
</filter>
<linearGradient id="paint0_linear" x1="1464.41" y1="-50.8462" x2="1369.46" y2="1186.85" gradientUnits="userSpaceOnUse">
<stop offset="0.201042" stop-color="#231E33"/>
<stop offset="1" stop-color="#482251"/>
</linearGradient>
<linearGradient id="paint1_linear" x1="1870.36" y1="-293.223" x2="1722.86" y2="1187.92" gradientUnits="userSpaceOnUse">
<stop offset="0.201042" stop-color="#231E33"/>
<stop offset="1" stop-color="#482251"/>
</linearGradient>
<linearGradient id="paint2_linear" x1="504.632" y1="95.137" x2="524.836" y2="101.76" gradientUnits="userSpaceOnUse">
<stop stop-color="#FB7A0D"/>
<stop offset="1" stop-color="#FBAE0D"/>
</linearGradient>
<linearGradient id="paint3_linear" x1="268.658" y1="321.832" x2="288.861" y2="328.455" gradientUnits="userSpaceOnUse">
<stop stop-color="#FB7A0D"/>
<stop offset="1" stop-color="#FBAE0D"/>
</linearGradient>
<linearGradient id="paint4_linear" x1="58.2613" y1="419.994" x2="78.4645" y2="426.617" gradientUnits="userSpaceOnUse">
<stop stop-color="#FB7A0D"/>
<stop offset="1" stop-color="#FBAE0D"/>
</linearGradient>
<linearGradient id="paint5_linear" x1="459.709" y1="204.403" x2="479.912" y2="211.026" gradientUnits="userSpaceOnUse">
<stop stop-color="#FB7A0D"/>
<stop offset="1" stop-color="#FBAE0D"/>
</linearGradient>
<linearGradient id="paint6_linear" x1="158.363" y1="267.798" x2="177.844" y2="287.071" gradientUnits="userSpaceOnUse">
<stop stop-color="#FB7A0D"/>
<stop offset="1" stop-color="#FBAE0D"/>
</linearGradient>
<linearGradient id="paint7_linear" x1="1308.54" y1="254.943" x2="1320.66" y2="237.475" gradientUnits="userSpaceOnUse">
<stop stop-color="#FB7A0D"/>
<stop offset="1" stop-color="#FBAE0D"/>
</linearGradient>
<linearGradient id="paint8_linear" x1="1521.03" y1="544.82" x2="1533.15" y2="527.352" gradientUnits="userSpaceOnUse">
<stop stop-color="#FB7A0D"/>
<stop offset="1" stop-color="#FBAE0D"/>
</linearGradient>
<linearGradient id="paint9_linear" x1="1492.28" y1="775.538" x2="1504.4" y2="758.07" gradientUnits="userSpaceOnUse">
<stop stop-color="#FB7A0D"/>
<stop offset="1" stop-color="#FBAE0D"/>
</linearGradient>
<linearGradient id="paint10_linear" x1="1349.16" y1="427.16" x2="1361.28" y2="409.692" gradientUnits="userSpaceOnUse">
<stop stop-color="#FB7A0D"/>
<stop offset="1" stop-color="#FBAE0D"/>
</linearGradient>
<linearGradient id="paint11_linear" x1="90.5965" y1="695.021" x2="72.4456" y2="683.949" gradientUnits="userSpaceOnUse">
<stop stop-color="#FB7A0D"/>
<stop offset="1" stop-color="#FBAE0D"/>
</linearGradient>
<linearGradient id="paint12_linear" x1="350.606" y1="695.642" x2="332.455" y2="684.57" gradientUnits="userSpaceOnUse">
<stop stop-color="#FB7A0D"/>
<stop offset="1" stop-color="#FBAE0D"/>
</linearGradient>
<linearGradient id="paint13_linear" x1="696.597" y1="774.45" x2="678.446" y2="763.378" gradientUnits="userSpaceOnUse">
<stop stop-color="#FB7A0D"/>
<stop offset="1" stop-color="#FBAE0D"/>
</linearGradient>
<linearGradient id="paint14_linear" x1="156.597" y1="796.45" x2="138.446" y2="785.378" gradientUnits="userSpaceOnUse">
<stop stop-color="#FB7A0D"/>
<stop offset="1" stop-color="#FBAE0D"/>
</linearGradient>
<linearGradient id="paint15_linear" x1="578.105" y1="547.994" x2="581.524" y2="568.978" gradientUnits="userSpaceOnUse">
<stop stop-color="#FB7A0D"/>
<stop offset="1" stop-color="#FBAE0D"/>
</linearGradient>
<linearGradient id="paint16_linear" x1="814.654" y1="619.247" x2="818.073" y2="640.231" gradientUnits="userSpaceOnUse">
<stop stop-color="#FB7A0D"/>
<stop offset="1" stop-color="#FBAE0D"/>
</linearGradient>
<linearGradient id="paint17_linear" x1="1107.28" y1="702.182" x2="1128.54" y2="701.811" gradientUnits="userSpaceOnUse">
<stop stop-color="#FB7A0D"/>
<stop offset="1" stop-color="#FBAE0D"/>
</linearGradient>
<linearGradient id="paint18_linear" x1="1219.89" y1="855.253" x2="1233.79" y2="839.169" gradientUnits="userSpaceOnUse">
<stop stop-color="#FB7A0D"/>
<stop offset="1" stop-color="#FBAE0D"/>
</linearGradient>
<linearGradient id="paint19_linear" x1="1122.15" y1="819.045" x2="1147.44" y2="808.508" gradientUnits="userSpaceOnUse">
<stop stop-color="#FB7A0D"/>
<stop offset="1" stop-color="#FBAE0D"/>
</linearGradient>
<linearGradient id="paint20_linear" x1="824.528" y1="428.327" x2="843.111" y2="432.212" gradientUnits="userSpaceOnUse">
<stop stop-color="#FB7A0D"/>
<stop offset="1" stop-color="#FBAE0D"/>
</linearGradient>
<linearGradient id="paint21_linear" x1="1062.8" y1="181.522" x2="1081.38" y2="185.407" gradientUnits="userSpaceOnUse">
<stop stop-color="#FB7A0D"/>
<stop offset="1" stop-color="#FBAE0D"/>
</linearGradient>
<linearGradient id="paint22_linear" x1="845.656" y1="319.692" x2="864.162" y2="334.151" gradientUnits="userSpaceOnUse">
<stop stop-color="#FB7A0D"/>
<stop offset="1" stop-color="#FBAE0D"/>
</linearGradient>
<linearGradient id="paint23_linear" x1="1288.26" y1="696.555" x2="1323.58" y2="713.431" gradientUnits="userSpaceOnUse">
<stop stop-color="#FB7A0D"/>
<stop offset="1" stop-color="#FBAE0D"/>
</linearGradient>
<linearGradient id="paint24_linear" x1="1501.26" y1="180.555" x2="1536.58" y2="197.431" gradientUnits="userSpaceOnUse">
<stop stop-color="#FB7A0D"/>
<stop offset="1" stop-color="#FBAE0D"/>
</linearGradient>
<linearGradient id="paint25_linear" x1="157.228" y1="49.5705" x2="185.053" y2="77.0983" gradientUnits="userSpaceOnUse">
<stop stop-color="#FB7A0D"/>
<stop offset="1" stop-color="#FBAE0D"/>
</linearGradient>
<linearGradient id="paint26_linear" x1="238.188" y1="808.089" x2="240.677" y2="769.467" gradientUnits="userSpaceOnUse">
<stop stop-color="#FB7A0D"/>
<stop offset="1" stop-color="#FBAE0D"/>
</linearGradient>
<linearGradient id="paint27_linear" x1="644.188" y1="633.089" x2="646.677" y2="594.467" gradientUnits="userSpaceOnUse">
<stop stop-color="#FB7A0D"/>
<stop offset="1" stop-color="#FBAE0D"/>
</linearGradient>
<linearGradient id="paint28_linear" x1="968.846" y1="644.74" x2="1004.16" y2="661.616" gradientUnits="userSpaceOnUse">
<stop stop-color="#FB7A0D"/>
<stop offset="1" stop-color="#FBAE0D"/>
</linearGradient>
</defs>
</svg>
