<svg width="678" height="582" viewBox="0 0 678 582" fill="none" xmlns="http://www.w3.org/2000/svg">
<path d="M574.622 242.713C610.661 242.713 639.876 213.499 639.876 177.46C639.876 141.422 610.661 112.207 574.622 112.207C538.584 112.207 509.369 141.422 509.369 177.46C509.369 213.499 538.584 242.713 574.622 242.713Z" fill="#2A3347"/>
<path d="M639.861 168.58C639.861 201.614 615.308 228.92 583.473 233.241C580.587 233.626 577.627 233.833 574.622 233.833C570.197 233.833 565.876 233.389 561.702 232.561C531.85 226.552 509.369 200.193 509.369 168.58C509.369 139.01 529.053 114.027 556.034 106.021C561.924 104.274 568.17 103.342 574.622 103.342C578.633 103.342 582.57 103.712 586.374 104.407C616.787 109.943 639.861 136.568 639.861 168.58Z" fill="#70C4CB"/>
<path d="M639.861 168.58C639.861 201.614 615.308 228.92 583.473 233.241C583.562 230.666 583.576 228.061 583.31 226.744C582.674 223.666 582.614 216.798 582.555 214.149C582.496 211.5 584.82 201.051 584.82 201.051C584.82 201.051 587.528 189.404 587.336 184.564C587.143 179.739 583.813 171.066 583.813 171.066C583.813 171.066 578.47 161.92 576.754 158.975C575.037 156.044 572.595 152.655 572.092 147.89C571.588 143.139 574.016 139.616 574.622 136.804C575.214 134.007 580.35 127.14 581.046 121.945C581.549 118.097 584.746 108.921 586.374 104.407C616.788 109.942 639.861 136.568 639.861 168.58Z" fill="#BED35A"/>
<path d="M561.702 232.56C531.85 226.552 509.369 200.193 509.369 168.58C509.369 139.01 529.053 114.027 556.034 106.021C552.556 112.74 546.828 123.647 544.771 126.741C541.707 131.299 530.726 136.124 528.89 142.354C527.07 148.585 531.88 160.736 534.44 163.267C536.986 165.783 544.105 168.772 549.048 173.094C553.991 177.401 557.987 181.841 558.875 186.192C559.748 190.528 557.632 201.244 556.611 203.819C555.575 206.394 553.651 207.622 553.577 211.382C553.518 215.141 558.712 221.357 560.133 225.738C560.696 227.469 561.243 230.044 561.702 232.56Z" fill="#BED35A"/>
<path opacity="0.4" d="M554.272 113.127C586.211 101.352 621.43 116.145 635.758 146.322L636.022 146.224C623.555 112.411 586.038 95.1063 552.224 107.573C518.411 120.04 501.106 157.557 513.573 191.37L513.837 191.273C505.133 159.023 522.334 124.903 554.272 113.127Z" fill="white"/>
<path d="M402 470C515.218 470 607 378.218 607 265C607 151.782 515.218 60 402 60C288.782 60 197 151.782 197 265C197 378.218 288.782 470 402 470Z" fill="url(#paint0_linear)"/>
<path opacity="0.4" d="M493.192 128.509C499.473 128.509 504.565 123.417 504.565 117.136C504.565 110.855 499.473 105.764 493.192 105.764C486.911 105.764 481.819 110.855 481.819 117.136C481.819 123.417 486.911 128.509 493.192 128.509Z" fill="white"/>
<path opacity="0.6" d="M493.192 123.532C496.724 123.532 499.588 120.669 499.588 117.136C499.588 113.604 496.724 110.74 493.192 110.74C489.66 110.74 486.796 113.604 486.796 117.136C486.796 120.669 489.66 123.532 493.192 123.532Z" fill="white"/>
<g clip-path="url(#clip0)" filter="url(#filter0_d)">
<path d="M213.878 380.985L325.176 413.086C353.825 421.349 383.761 404.829 392.019 376.197L405.113 330.798C413.372 302.166 396.832 272.241 368.183 263.978L256.885 231.876C228.235 223.613 198.3 240.133 190.042 268.765L176.947 314.164C168.689 342.796 185.228 372.721 213.878 380.985Z" fill="#FBAE0D"/>
<path d="M302.4 283.063C352.805 297.601 405.444 268.551 419.974 218.177C434.503 167.803 405.42 115.181 355.015 100.643C304.609 86.1049 251.97 115.155 237.441 165.529C222.911 215.903 251.995 268.525 302.4 283.063Z" fill="#CCCCCC"/>
<path d="M165.133 473.473L141.55 453.776C135.452 448.682 134.647 439.621 139.727 433.539L183.753 380.828C188.843 374.733 197.905 373.934 203.991 379.017L227.573 398.714C233.672 403.808 234.476 412.869 229.396 418.951L185.371 471.662C180.291 477.744 171.219 478.556 165.133 473.473Z" fill="#E6E6E6"/>
<path d="M202.146 452.504L155.59 413.619C155.146 413.249 154.471 413.309 154.101 413.752L152.101 416.147C151.73 416.591 151.791 417.265 152.235 417.636L198.792 456.521C199.235 456.892 199.91 456.831 200.28 456.388L202.281 453.993C202.662 453.537 202.59 452.875 202.146 452.504Z" fill="#B3B3B3"/>
<path d="M197.84 457.662L151.283 418.776C150.839 418.406 150.165 418.466 149.794 418.91L147.794 421.304C147.424 421.748 147.485 422.422 147.928 422.793L194.485 461.678C194.929 462.049 195.603 461.989 195.974 461.545L197.974 459.15C198.344 458.707 198.284 458.032 197.84 457.662Z" fill="#B3B3B3"/>
<path d="M193.32 463.072L146.764 424.187C146.32 423.816 145.645 423.876 145.275 424.32L143.687 426.22C143.317 426.664 143.378 427.338 143.821 427.709L190.378 466.594C190.822 466.965 191.497 466.904 191.867 466.461L193.454 464.56C193.835 464.104 193.764 463.442 193.32 463.072Z" fill="#B3B3B3"/>
<path d="M318.349 525.816L348.798 521.704C356.673 520.64 362.179 513.399 361.119 505.546L351.927 437.486C350.864 429.616 343.62 424.114 335.762 425.175L305.312 429.288C297.438 430.351 291.932 437.592 292.992 445.445L302.184 513.505C303.244 521.359 310.491 526.877 318.349 525.816Z" fill="#E6E6E6"/>
<path d="M298.187 488.357L358.301 480.238C358.874 480.161 359.413 480.571 359.49 481.144L359.908 484.236C359.985 484.809 359.574 485.347 359.001 485.425L298.887 493.543C298.314 493.62 297.776 493.21 297.698 492.637L297.281 489.545C297.201 488.956 297.614 488.434 298.187 488.357Z" fill="#B3B3B3"/>
<path d="M299.087 495.016L359.2 486.897C359.773 486.82 360.312 487.23 360.389 487.803L360.807 490.895C360.884 491.468 360.474 492.006 359.901 492.084L299.787 500.202C299.214 500.279 298.675 499.869 298.598 499.296L298.18 496.204C298.103 495.632 298.514 495.093 299.087 495.016Z" fill="#B3B3B3"/>
<path d="M300.03 502.002L360.144 493.883C360.717 493.806 361.255 494.216 361.333 494.789L361.664 497.243C361.742 497.816 361.331 498.354 360.758 498.431L300.644 506.55C300.071 506.627 299.532 506.217 299.455 505.644L299.124 503.19C299.044 502.601 299.457 502.079 300.03 502.002Z" fill="#B3B3B3"/>
<path d="M208.429 415.135L307.807 443.799C327.266 449.411 347.576 438.19 353.18 418.758L377.109 335.797C390.322 289.986 363.875 242.134 318.035 228.913C270.085 215.082 219.993 242.714 206.166 290.65L183.345 369.773C177.756 389.209 188.97 409.523 208.429 415.135Z" fill="#CCCCCC"/>
<path d="M308.467 262.029C347.248 273.215 387.748 250.864 398.927 212.107C410.106 173.349 387.729 132.863 348.948 121.677C310.167 110.492 269.666 132.843 258.488 171.6C247.309 210.357 269.685 250.844 308.467 262.029Z" fill="#2B2A70"/>
<path d="M243.907 290.439C254.489 264.092 252.053 238.311 238.464 232.854C224.875 227.398 205.281 244.334 194.698 270.681C184.115 297.028 186.552 322.81 200.141 328.266C213.729 333.722 233.324 316.786 243.907 290.439Z" fill="#FBAE0D"/>
<path d="M364.087 375.543C378.495 378.162 394.287 357.638 399.361 329.702C404.435 301.766 396.869 276.997 382.462 274.378C368.055 271.76 352.263 292.283 347.189 320.219C342.115 348.155 349.68 372.925 364.087 375.543Z" fill="#FBAE0D"/>
<path d="M444.05 293.444L444.647 293.486C448.113 293.768 451.161 291.175 451.441 287.71L451.886 282.173C452.165 278.708 449.571 275.658 446.105 275.376L445.508 275.334C442.043 275.052 438.994 277.645 438.715 281.11L438.27 286.647C437.99 290.112 440.585 293.162 444.05 293.444Z" fill="#CCCCCC"/>
<path d="M453.618 306.286L453.696 306.88C454.119 310.331 457.274 312.794 460.724 312.368L466.237 311.687C469.688 311.262 472.151 308.106 471.728 304.655L471.65 304.061C471.226 300.61 468.072 298.148 464.622 298.573L459.109 299.254C455.658 299.679 453.194 302.835 453.618 306.286Z" fill="#CCCCCC"/>
<path d="M451.085 298.914L451.55 299.287C454.239 301.493 458.212 301.119 460.429 298.443L463.957 294.167C466.162 291.48 465.785 287.507 463.108 285.288L462.642 284.915C459.954 282.709 455.981 283.083 453.764 285.759L450.235 290.035C448.007 292.722 448.407 296.695 451.085 298.914Z" fill="#CCCCCC"/>
<path d="M449.926 316.421L449.689 316.969C448.273 320.145 449.685 323.878 452.852 325.308L457.909 327.579C461.083 328.994 464.815 327.579 466.246 324.411L466.483 323.863C467.899 320.686 466.487 316.954 463.32 315.524L458.263 313.253C455.082 311.815 451.357 313.252 449.926 316.421Z" fill="#CCCCCC"/>
<path d="M358.732 306.579L362.84 335.135C363.805 341.925 370.115 346.632 376.893 345.666L382.038 344.933C388.832 343.972 393.539 337.666 392.57 330.892L387.732 297.177C386.768 290.386 380.457 285.68 373.68 286.646C364.033 288.022 357.348 296.953 358.732 306.579Z" fill="#CCCCCC"/>
<path d="M238.493 276.29L219.808 298.272C215.376 303.506 207.528 304.129 202.306 299.702L198.341 296.342C193.103 291.91 192.477 284.066 196.905 278.848L218.955 252.888C223.387 247.655 231.235 247.032 236.457 251.459C243.889 257.76 244.791 268.88 238.493 276.29Z" fill="#CCCCCC"/>
<path d="M390.794 334.263L443.449 327.582C455.15 326.098 463.452 315.409 461.967 303.699L461.732 301.848C460.248 290.154 449.554 281.859 437.837 283.346L385.182 290.026C373.481 291.51 365.179 302.199 366.664 313.909L366.899 315.76C368.383 327.454 379.077 335.749 390.794 334.263Z" fill="#E6E6E6"/>
<path d="M403.129 286.318L409.097 333.355C409.169 333.928 409.705 334.343 410.279 334.27L411.917 334.062C412.491 333.99 412.906 333.454 412.833 332.881L406.866 285.844C406.793 285.27 406.257 284.856 405.684 284.929L404.045 285.136C403.473 285.226 403.056 285.744 403.129 286.318Z" fill="#B3B3B3"/>
<path d="M407.93 285.709L413.898 332.746C413.97 333.32 414.506 333.734 415.079 333.661L416.718 333.454C417.292 333.381 417.707 332.846 417.634 332.272L411.666 285.235C411.594 284.662 411.058 284.247 410.485 284.32L408.846 284.528C408.274 284.617 407.857 285.136 407.93 285.709Z" fill="#B3B3B3"/>
<path d="M412.961 285.071L418.929 332.108C419.001 332.681 419.537 333.096 420.111 333.023L421.291 332.874C421.864 332.801 422.279 332.266 422.206 331.692L416.239 284.655C416.166 284.082 415.631 283.667 415.057 283.74L413.877 283.889C413.305 283.979 412.888 284.497 412.961 285.071Z" fill="#B3B3B3"/>
<path d="M171.02 215.6L170.492 215.318C167.409 213.711 166.21 209.893 167.818 206.811L170.391 201.888C171.999 198.806 175.82 197.606 178.903 199.214L179.431 199.495C182.514 201.103 183.713 204.92 182.105 208.002L179.532 212.926C177.924 216.008 174.103 217.207 171.02 215.6Z" fill="#CCCCCC"/>
<path d="M156.084 221.375L155.701 221.836C153.505 224.531 149.524 224.936 146.83 222.739L142.526 219.226C139.832 217.029 139.428 213.045 141.624 210.349L142.007 209.889C144.203 207.194 148.184 206.789 150.878 208.986L155.181 212.499C157.875 214.696 158.28 218.68 156.084 221.375Z" fill="#CCCCCC"/>
<path d="M162.154 216.484L161.561 216.552C158.111 216.988 154.947 214.555 154.496 211.109L153.787 205.611C153.351 202.163 155.786 199.001 159.234 198.549L159.827 198.481C163.277 198.045 166.441 200.478 166.892 203.923L167.601 209.421C168.056 212.883 165.601 216.032 162.154 216.484Z" fill="#CCCCCC"/>
<path d="M153.811 231.919L153.72 232.508C153.227 235.951 150.044 238.358 146.602 237.882L141.112 237.111C137.671 236.619 135.266 233.434 135.742 229.99L135.834 229.4C136.326 225.957 139.51 223.55 142.951 224.026L148.441 224.797C151.9 225.274 154.287 228.475 153.811 231.919Z" fill="#CCCCCC"/>
<path d="M194.358 278.511L153.348 244.816C144.235 237.328 142.901 223.859 150.395 214.739L151.579 213.298C159.062 204.19 172.531 202.864 181.657 210.363L222.667 244.058C231.78 251.546 233.114 265.014 225.62 274.135L224.436 275.576C216.953 284.684 203.484 286.01 194.358 278.511Z" fill="#E6E6E6"/>
<path d="M209.451 231.362L179.35 267.997C178.984 268.443 178.309 268.509 177.863 268.142L176.586 267.093C176.14 266.726 176.073 266.052 176.44 265.605L206.541 228.971C206.908 228.525 207.582 228.459 208.029 228.826L209.305 229.875C209.741 230.255 209.818 230.916 209.451 231.362Z" fill="#B3B3B3"/>
<path d="M205.712 228.29L175.611 264.924C175.244 265.37 174.57 265.436 174.123 265.069L172.847 264.02C172.4 263.653 172.334 262.979 172.701 262.533L202.802 225.898C203.169 225.452 203.843 225.386 204.29 225.753L205.566 226.802C206.002 227.182 206.079 227.843 205.712 228.29Z" fill="#B3B3B3"/>
<path d="M201.793 225.07L171.692 261.704C171.325 262.151 170.651 262.216 170.205 261.849L169.286 261.094C168.839 260.727 168.773 260.053 169.139 259.607L199.24 222.972C199.607 222.526 200.281 222.46 200.728 222.827L201.647 223.582C202.083 223.962 202.16 224.623 201.793 225.07Z" fill="#B3B3B3"/>
<path d="M309.37 140.662C340.485 127.103 340.573 133.384 337.243 130.038C334.134 128.487 318.815 123.459 295.527 137.959C278.909 148.307 274.239 159.217 272.407 168.718C272.108 172.515 273.073 176.912 273.764 179.642C275.247 185.505 278.256 154.221 309.37 140.662Z" fill="#EEEEEE" fill-opacity="0.96"/>
<path d="M270.026 186.084C270.026 186.441 265.515 199.612 263.858 199.612C262.201 199.612 263.438 189.27 263.526 187.584C263.631 185.584 267.026 168.584 269.526 178.584C271.036 184.044 270.026 185.727 270.026 186.084Z" fill="#EEEEEE" fill-opacity="0.95"/>
</g>
<circle cx="297" cy="309" r="23.5" stroke="#E6E6E6"/>
<path d="M304.599 298.065L311.101 299.672L296.295 326.362L296.326 315.309L304.599 298.065ZM295.336 295.775L294.964 326.033L289.598 324.707L288.854 294.173L295.336 295.775Z" fill="#DF9E15"/>
<defs>
<filter id="filter0_d" x="-35" y="-45" width="691.009" height="671.968" filterUnits="userSpaceOnUse" color-interpolation-filters="sRGB">
<feFlood flood-opacity="0" result="BackgroundImageFix"/>
<feColorMatrix in="SourceAlpha" type="matrix" values="0 0 0 0 0 0 0 0 0 0 0 0 0 0 0 0 0 0 127 0"/>
<feOffset dx="10"/>
<feGaussianBlur stdDeviation="22.5"/>
<feColorMatrix type="matrix" values="0 0 0 0 0 0 0 0 0 0 0 0 0 0 0 0 0 0 0.2 0"/>
<feBlend mode="normal" in2="BackgroundImageFix" result="effect1_dropShadow"/>
<feBlend mode="normal" in="SourceGraphic" in2="effect1_dropShadow" result="shape"/>
</filter>
<linearGradient id="paint0_linear" x1="226.025" y1="23.0736" x2="501.794" y2="470.046" gradientUnits="userSpaceOnUse">
<stop stop-color="#231E33"/>
<stop offset="1" stop-color="#362042" stop-opacity="0.27"/>
</linearGradient>
<clipPath id="clip0">
<rect width="491.716" height="463.867" fill="white" transform="translate(128.552) rotate(16.089)"/>
</clipPath>
</defs>
</svg>
