<svg width="24" height="24" viewBox="0 0 24 24" fill="none" xmlns="http://www.w3.org/2000/svg">
<path d="M6.8621 17.7C6.57917 17.7 6.29385 17.6004 6.06608 17.3976L0 12L6.40295 6.30239C6.89686 5.86439 7.65452 5.9064 8.09449 6.402C8.53446 6.89759 8.49011 7.656 7.99499 8.0964L3.60848 12L7.65812 15.6024C8.15324 16.0428 8.19759 16.8012 7.75762 17.2968C7.52145 17.5644 7.19178 17.7 6.8621 17.7ZM17.5856 17.6976L23.9886 12L17.9225 6.60239C17.4274 6.16199 16.6697 6.20639 16.2309 6.70199C15.791 7.19759 15.8353 7.95599 16.3305 8.39639L20.3801 12L15.9936 15.9024C15.4985 16.3428 15.4541 17.1012 15.8941 17.5968C16.1302 17.8644 16.4599 18 16.7896 18C17.0725 18 17.3578 17.9004 17.5856 17.6976ZM11.9775 19.398L14.3752 4.998C14.4843 4.344 14.0431 3.726 13.3897 3.6168C12.734 3.5064 12.1178 3.9492 12.0111 4.6032L9.61341 19.0032C9.50432 19.6572 9.94549 20.2752 10.5988 20.3844C10.666 20.3952 10.7307 20.4 10.7967 20.4C11.3721 20.4 11.8804 19.9836 11.9775 19.398Z" fill="black"/>
</svg>
