<svg width="31" height="31" viewBox="0 0 31 31" fill="none" xmlns="http://www.w3.org/2000/svg">
<path d="M30.96 0.559998C30.96 3.2 30.4533 6.81333 29.44 11.4C28.4267 15.96 27.3867 19.9333 26.32 23.32C25.2533 26.7067 24.56 28.5467 24.24 28.84C23.92 29.16 23.1733 29.44 22 29.68C20.8533 29.92 19.9733 30.04 19.36 30.04C18.7467 30.04 18.44 30 18.44 29.92C18.3867 29.7067 18.1333 28.3467 17.68 25.84C16.3467 18.8267 15.5867 15.1067 15.4 14.68C15.2133 14.2267 15.0933 14 15.04 14L14.84 14.24C14.1733 15.8933 13.4133 18.48 12.56 22C11.7333 25.4933 11.32 27.4933 11.32 28C11.32 28.1067 11.0667 28.2533 10.56 28.44C9.17333 28.9467 7.81333 29.2 6.48 29.2C6.18667 29.2 6 29.16 5.92 29.08C5.2 28.36 4.09333 24.44 2.6 17.32C1.13333 10.1733 0.4 5.14667 0.4 2.24C0.4 2.18667 0.533333 2.08 0.8 1.92C1.70667 1.46667 2.69333 1.25333 3.76 1.28C4.85333 1.28 5.4 1.30667 5.4 1.36C5.58667 4.82667 5.97333 8.48 6.56 12.32C7.17333 16.1333 7.76 18.7467 8.32 20.16C8.37333 20.3467 8.42667 20.44 8.48 20.44C8.56 20.44 8.64 20.3467 8.72 20.16C10.9067 11.7067 12.24 7.22667 12.72 6.72C13.68 6.34667 15.0267 6.16 16.76 6.16C17.72 6.21333 18.24 6.28 18.32 6.36C18.4 6.44 18.6667 7.56 19.12 9.72C19.5733 11.8533 20.0667 14.2267 20.6 16.84C21.1333 19.4267 21.4533 20.9867 21.56 21.52C21.6933 22.0267 21.8667 22 22.08 21.44C22.5333 20.1867 23.1067 17.9067 23.8 14.6C24.4933 11.2933 24.84 8.17333 24.84 5.24C24.84 4.94667 24.5867 4.66667 24.08 4.4C23.6 4.10667 23.1067 3.93333 22.6 3.88C22.5733 3.8 22.56 3.64 22.56 3.4C22.56 3.13333 22.6133 2.76 22.72 2.28C22.8533 1.77333 22.96 1.48 23.04 1.4C25.4667 0.759999 27.8933 0.44 30.32 0.44C30.7467 0.493332 30.96 0.533332 30.96 0.559998Z" fill="black"/>
</svg>
