<svg width="438" height="599" viewBox="0 0 438 599" fill="none" xmlns="http://www.w3.org/2000/svg">
<ellipse cx="83" cy="309" rx="352" ry="283" fill="url(#paint0_linear)"/>
<g filter="url(#filter0_d)">
<ellipse cx="66" cy="309.5" rx="347" ry="260.5" fill="url(#paint1_linear)"/>
</g>
<path d="M101.494 133.94L101.92 129.088L97.2024 127.23L102.184 126.089L102.611 121.237L105.263 125.384L110.244 124.243L106.902 127.947L109.554 132.094L104.836 130.236L101.494 133.94Z" fill="url(#paint2_linear)" fill-opacity="0.8"/>
<path d="M264.415 354.807L264.842 349.954L260.124 348.096L265.106 346.955L265.532 342.103L268.185 346.25L273.166 345.109L269.824 348.813L272.476 352.961L267.758 351.103L264.415 354.807Z" fill="url(#paint3_linear)" fill-opacity="0.8"/>
<path d="M369.517 260.263L378.5 256.898L377.96 247.751L384.051 254.817L393.033 251.451L387.815 259.184L393.906 266.251L384.59 263.964L379.372 271.697L378.833 262.55L369.517 260.263Z" fill="url(#paint4_linear)"/>
<path d="M28.3486 355.643L32.5656 354.063L32.3124 349.769L35.1718 353.087L39.3889 351.506L36.9391 355.137L39.7986 358.454L35.425 357.381L32.9753 361.011L32.7221 356.717L28.3486 355.643Z" fill="url(#paint5_linear)"/>
<path d="M49.3484 185.643L53.5654 184.063L53.3122 179.769L56.1717 183.087L60.3887 181.506L57.9389 185.137L60.7984 188.454L56.4249 187.381L53.9751 191.011L53.7219 186.717L49.3484 185.643Z" fill="url(#paint6_linear)"/>
<ellipse cx="310.193" cy="186.576" rx="1.62737" ry="1.08491" transform="rotate(36.4146 310.193 186.576)" fill="white" fill-opacity="0.4"/>
<ellipse cx="134.356" cy="319.532" rx="1.08491" ry="1.62737" transform="rotate(36.4146 134.356 319.532)" fill="white" fill-opacity="0.4"/>
<circle cx="176.832" cy="458.582" r="1.62737" transform="rotate(36.4146 176.832 458.582)" fill="white" fill-opacity="0.4"/>
<circle cx="284.45" cy="261.841" r="1.62737" transform="rotate(36.4146 284.45 261.841)" fill="white" fill-opacity="0.4"/>
<ellipse rx="0.855157" ry="1.28274" transform="matrix(-0.804743 0.593623 0.593623 0.804743 310.529 372.928)" fill="#FBA10D" fill-opacity="0.2"/>
<ellipse rx="0.855157" ry="1.28274" transform="matrix(-0.804743 0.593623 0.593623 0.804743 71.4497 137.54)" fill="#FBA10D" fill-opacity="0.2"/>
<ellipse rx="0.855157" ry="1.28274" transform="matrix(-0.804743 0.593623 0.593623 0.804743 26.4497 401.54)" fill="#FBA10D" fill-opacity="0.2"/>
<circle r="1.28274" transform="matrix(-0.804743 0.593623 0.593623 0.804743 160.375 102.453)" fill="#FBA10D" fill-opacity="0.2"/>
<circle r="1.28274" transform="matrix(-0.804743 0.593623 0.593623 0.804743 74.7938 282.794)" fill="#FBA10D" fill-opacity="0.2"/>
<circle r="1.28274" transform="matrix(-0.804743 0.593623 0.593623 0.804743 363.794 341.794)" fill="#FBA10D" fill-opacity="0.2"/>
<circle r="1.28274" transform="matrix(-0.804743 0.593623 0.593623 0.804743 353.794 408.794)" fill="#FBA10D" fill-opacity="0.2"/>
<circle r="1.28274" transform="matrix(-0.804743 0.593623 0.593623 0.804743 320.794 120.794)" fill="#FBA10D" fill-opacity="0.2"/>
<circle r="1.28274" transform="matrix(-0.804743 0.593623 0.593623 0.804743 131.794 48.7937)" fill="#FBA10D" fill-opacity="0.2"/>
<circle r="1.28274" transform="matrix(-0.804743 0.593623 0.593623 0.804743 50.7938 1.79373)" fill="#FBA10D" fill-opacity="0.2"/>
<path d="M217.337 97.9942L226.32 94.6282L225.78 85.4817L231.871 92.548L240.854 89.1821L235.636 96.9152L241.726 103.981L232.411 101.694L227.192 109.428L226.653 100.281L217.337 97.9942Z" fill="url(#paint7_linear)"/>
<path d="M103.742 275.151L112.725 271.785L112.185 262.638L118.276 269.704L127.258 266.339L122.04 274.072L128.131 281.138L118.815 278.851L113.597 286.584L113.058 277.438L103.742 275.151Z" fill="url(#paint8_linear)"/>
<path d="M34.7426 448.151L43.7251 444.785L43.1857 435.638L49.2765 442.704L58.2589 439.339L53.0408 447.072L59.1316 454.138L49.8159 451.851L44.5977 459.584L44.0584 450.438L34.7426 448.151Z" fill="url(#paint9_linear)"/>
<path d="M79.3473 556.617L83.5477 555.043L83.2954 550.766L86.1436 554.07L90.3439 552.496L87.9039 556.112L90.752 559.417L86.3958 558.347L83.9557 561.964L83.7035 557.686L79.3473 556.617Z" fill="url(#paint10_linear)"/>
<mask id="mask0" mask-type="alpha" maskUnits="userSpaceOnUse" x="-275" y="49" width="687" height="521">
<ellipse cx="68.5" cy="309.5" rx="343.5" ry="260.5" fill="url(#paint11_linear)"/>
</mask>
<g mask="url(#mask0)">
<g filter="url(#filter1_d)">
<circle cx="195.155" cy="439.911" r="145.033" fill="#552D7F"/>
</g>
<g filter="url(#filter2_d)">
<path d="M312.509 353.458C311.017 353.402 296.041 368.592 296.75 384.484C297.638 404.348 320.526 412.294 312.719 447.481C306.474 475.632 312.568 507.83 315.171 520.695C319.429 514.452 325.746 501.89 327.591 496.29C329.898 489.291 318.574 471.508 324.43 447.481C330.285 423.455 328.333 404.537 320.526 392.429C314.281 382.743 317.513 362.696 318.01 362.16C318.506 361.625 314.001 353.514 312.509 353.458Z" fill="#633790"/>
</g>
<g filter="url(#filter3_d)">
<path d="M146.024 576.441C148.386 575.496 154.306 575.615 163.79 562.844C175.645 546.881 166.883 531.713 195.155 509.357C217.773 491.472 240.035 454.556 241.453 448.887C242.87 443.218 225.16 437.679 220.194 440.856C213.985 444.827 201.816 481.583 182.105 496.516C162.394 511.45 151.962 527.352 150.37 541.67C149.097 553.125 133.268 564.63 131.851 570.299C130.434 575.968 143.661 577.386 146.024 576.441Z" fill="#633790"/>
</g>
<g filter="url(#filter4_d)">
<path d="M264.168 311.534C255.735 315.549 257.411 331.013 236.386 342.36C223.559 348.916 190.02 361.007 158.484 356.922C119.064 351.816 109.302 411.956 92.7833 427.274C79.5681 439.529 53.5506 466.232 52.9874 468.124C52.4243 470.015 59.7452 493.466 60.6838 494.222C61.6224 494.978 90.6058 470.96 110.429 442.214C135.207 406.282 132.955 374.888 160.549 378.482C188.143 382.075 205.413 393.044 246.148 378.482C278.735 366.832 289.907 335.527 291.012 330.257C292.117 324.986 272.602 307.519 264.168 311.534Z" fill="#633790"/>
</g>
<g clip-path="url(#clip0)" filter="url(#filter5_d)">
<path d="M192.956 302.601C194.113 301.715 195.724 300.255 196.951 298.264C199.109 294.768 200.149 291.494 199.277 290.955C198.401 290.415 195.945 292.812 193.787 296.308C192.551 298.314 191.969 300.418 191.695 301.85C191.968 301.998 192.246 302.16 192.526 302.332C192.674 302.421 192.816 302.514 192.956 302.601Z" fill="#006837"/>
<path d="M192.956 302.601C192.817 302.51 192.674 302.421 192.526 302.331C192.246 302.16 191.971 302.003 191.695 301.85C189.489 300.644 187.558 300.154 187.186 300.761C186.769 301.443 188.485 303.253 191.016 304.8C193.548 306.348 195.94 307.052 196.357 306.37C196.75 305.729 195.251 304.087 192.956 302.601Z" fill="#75BF52"/>
<path d="M267.615 322.041C267.037 320.703 266.343 318.643 266.242 316.306C266.064 312.202 266.752 308.836 267.776 308.791C268.805 308.747 269.78 312.038 269.959 316.142C270.059 318.496 269.541 320.616 269.082 322.001C268.772 321.997 268.45 322.002 268.122 322.015C267.949 322.022 267.78 322.033 267.615 322.041Z" fill="#006837"/>
<path d="M267.615 322.041C267.78 322.029 267.949 322.022 268.121 322.015C268.449 322.002 268.766 321.999 269.082 322C271.596 322.023 273.521 322.537 273.549 323.249C273.581 324.048 271.2 324.79 268.236 324.907C265.271 325.023 262.839 324.471 262.808 323.673C262.777 322.922 264.886 322.219 267.615 322.041Z" fill="#75BF52"/>
<path d="M275.471 308.355C273.572 315.648 253.305 317.106 230.328 311.124C207.351 305.141 190.369 293.983 192.268 286.691C192.415 286.123 193.04 283.167 193.054 285.033C193.068 286.899 217.159 274.805 238.348 280.322C258.981 285.695 269.179 316.114 275.502 305.907C276.155 304.86 275.665 307.611 275.471 308.355Z" fill="#75BF52"/>
<path d="M276.076 305.523C274.177 312.815 254.014 313.874 231.037 307.891C208.06 301.908 190.974 291.151 192.873 283.858C193.021 283.29 193.645 280.335 193.659 282.201C193.673 284.067 217.768 271.974 238.953 277.49C259.586 282.862 269.785 313.282 276.107 303.075C276.76 302.028 276.27 304.779 276.076 305.523Z" fill="#66A047"/>
<path d="M276.589 303.521C274.69 310.813 254.839 310.672 231.862 304.689C208.886 298.706 191.487 289.148 193.385 281.856C195.284 274.564 216.489 269.505 239.466 275.488C262.443 281.471 278.488 296.229 276.589 303.521Z" fill="#75BF52"/>
<path d="M252.085 279.077C253.448 284.502 253.806 289.576 253.518 290.68C252.885 293.112 244.784 293.104 235.42 290.666C226.056 288.227 218.98 284.283 219.613 281.851C219.882 280.819 222.322 277.059 225.755 273.255" fill="#006837"/>
<path d="M255.206 282.034C256.132 273.638 250.789 265.614 242.373 263.422C233.9 261.216 225.263 265.797 222.204 273.787C222.064 274.045 221.954 274.32 221.877 274.616L221.621 275.6L221.534 275.936L221.387 276.5C220.821 278.672 221.364 280.868 222.66 282.503L222.662 282.508C223.274 283.278 224.045 283.924 224.955 284.383C227.42 285.891 231.369 287.475 235.945 288.667C240.513 289.856 244.72 290.4 247.611 290.286C250.792 290.439 253.753 288.353 254.587 285.149L254.753 284.513L255.096 283.193C255.196 282.809 255.23 282.416 255.206 282.034Z" fill="#EFDE3F"/>
<path d="M230.201 269.063C231.838 267.875 232.944 266.608 232.672 266.233C232.4 265.858 230.852 266.517 229.215 267.705C227.578 268.892 226.472 270.16 226.744 270.535C227.016 270.91 228.564 270.251 230.201 269.063Z" fill="white"/>
<path d="M207.424 288.17C208.479 287.37 208.287 285.342 206.996 283.643C205.705 281.943 203.804 281.214 202.75 282.015C201.695 282.815 201.887 284.842 203.178 286.542C204.468 288.242 206.37 288.971 207.424 288.17Z" fill="#CCCCCC"/>
<path d="M226.46 297.028C226.918 295.786 225.665 294.18 223.662 293.442C221.659 292.704 219.664 293.113 219.207 294.356C218.749 295.598 220.002 297.204 222.005 297.942C224.008 298.68 226.002 298.271 226.46 297.028Z" fill="#CCCCCC"/>
<path d="M243.457 303.087C245.577 303.334 247.42 302.469 247.574 301.153C247.727 299.838 246.133 298.572 244.013 298.324C241.893 298.077 240.05 298.942 239.896 300.257C239.743 301.572 241.337 302.839 243.457 303.087Z" fill="#CCCCCC"/>
<path d="M265.861 301.643C267.853 300.878 269.084 299.256 268.609 298.019C268.135 296.783 266.135 296.402 264.142 297.167C262.149 297.932 260.919 299.554 261.393 300.79C261.868 302.026 263.868 302.408 265.861 301.643Z" fill="#CCCCCC"/>
</g>
</g>
<defs>
<filter id="filter0_d" x="-306" y="28" width="744" height="571" filterUnits="userSpaceOnUse" color-interpolation-filters="sRGB">
<feFlood flood-opacity="0" result="BackgroundImageFix"/>
<feColorMatrix in="SourceAlpha" type="matrix" values="0 0 0 0 0 0 0 0 0 0 0 0 0 0 0 0 0 0 127 0"/>
<feOffset dy="4"/>
<feGaussianBlur stdDeviation="12.5"/>
<feColorMatrix type="matrix" values="0 0 0 0 0.176471 0 0 0 0 0.0823529 0 0 0 0 0.211765 0 0 0 1 0"/>
<feBlend mode="normal" in2="BackgroundImageFix" result="effect1_dropShadow"/>
<feBlend mode="normal" in="SourceGraphic" in2="effect1_dropShadow" result="shape"/>
</filter>
<filter id="filter1_d" x="44.1221" y="288.878" width="310.067" height="310.067" filterUnits="userSpaceOnUse" color-interpolation-filters="sRGB">
<feFlood flood-opacity="0" result="BackgroundImageFix"/>
<feColorMatrix in="SourceAlpha" type="matrix" values="0 0 0 0 0 0 0 0 0 0 0 0 0 0 0 0 0 0 127 0"/>
<feOffset dx="4" dy="4"/>
<feGaussianBlur stdDeviation="5"/>
<feColorMatrix type="matrix" values="0 0 0 0 0 0 0 0 0 0 0 0 0 0 0 0 0 0 0.25 0"/>
<feBlend mode="normal" in2="BackgroundImageFix" result="effect1_dropShadow"/>
<feBlend mode="normal" in="SourceGraphic" in2="effect1_dropShadow" result="shape"/>
</filter>
<filter id="filter2_d" x="286.726" y="347.458" width="51.1798" height="187.237" filterUnits="userSpaceOnUse" color-interpolation-filters="sRGB">
<feFlood flood-opacity="0" result="BackgroundImageFix"/>
<feColorMatrix in="SourceAlpha" type="matrix" values="0 0 0 0 0 0 0 0 0 0 0 0 0 0 0 0 0 0 127 0"/>
<feOffset dy="4"/>
<feGaussianBlur stdDeviation="5"/>
<feColorMatrix type="matrix" values="0 0 0 0 0 0 0 0 0 0 0 0 0 0 0 0 0 0 0.18 0"/>
<feBlend mode="normal" in2="BackgroundImageFix" result="effect1_dropShadow"/>
<feBlend mode="normal" in="SourceGraphic" in2="effect1_dropShadow" result="shape"/>
</filter>
<filter id="filter3_d" x="110.193" y="427.64" width="151.611" height="170.838" filterUnits="userSpaceOnUse" color-interpolation-filters="sRGB">
<feFlood flood-opacity="0" result="BackgroundImageFix"/>
<feColorMatrix in="SourceAlpha" type="matrix" values="0 0 0 0 0 0 0 0 0 0 0 0 0 0 0 0 0 0 127 0"/>
<feOffset dy="4"/>
<feGaussianBlur stdDeviation="5"/>
<feColorMatrix type="matrix" values="0 0 0 0 0 0 0 0 0 0 0 0 0 0 0 0 0 0 0.18 0"/>
<feBlend mode="normal" in2="BackgroundImageFix" result="effect1_dropShadow"/>
<feBlend mode="normal" in="SourceGraphic" in2="effect1_dropShadow" result="shape"/>
</filter>
<filter id="filter4_d" x="42.9566" y="304.94" width="258.1" height="203.299" filterUnits="userSpaceOnUse" color-interpolation-filters="sRGB">
<feFlood flood-opacity="0" result="BackgroundImageFix"/>
<feColorMatrix in="SourceAlpha" type="matrix" values="0 0 0 0 0 0 0 0 0 0 0 0 0 0 0 0 0 0 127 0"/>
<feOffset dy="4"/>
<feGaussianBlur stdDeviation="5"/>
<feColorMatrix type="matrix" values="0 0 0 0 0 0 0 0 0 0 0 0 0 0 0 0 0 0 0.18 0"/>
<feBlend mode="normal" in2="BackgroundImageFix" result="effect1_dropShadow"/>
<feBlend mode="normal" in="SourceGraphic" in2="effect1_dropShadow" result="shape"/>
</filter>
<filter id="filter5_d" x="134.442" y="228.911" width="206.217" height="154.442" filterUnits="userSpaceOnUse" color-interpolation-filters="sRGB">
<feFlood flood-opacity="0" result="BackgroundImageFix"/>
<feColorMatrix in="SourceAlpha" type="matrix" values="0 0 0 0 0 0 0 0 0 0 0 0 0 0 0 0 0 0 127 0"/>
<feOffset dy="10"/>
<feGaussianBlur stdDeviation="12.5"/>
<feColorMatrix type="matrix" values="0 0 0 0 0 0 0 0 0 0 0 0 0 0 0 0 0 0 0.35 0"/>
<feBlend mode="normal" in2="BackgroundImageFix" result="effect1_dropShadow"/>
<feBlend mode="normal" in="SourceGraphic" in2="effect1_dropShadow" result="shape"/>
</filter>
<linearGradient id="paint0_linear" x1="-240.252" y1="-4.67372" x2="548.403" y2="390.465" gradientUnits="userSpaceOnUse">
<stop offset="0.201042" stop-color="#231E33"/>
<stop offset="1" stop-color="#482251"/>
</linearGradient>
<linearGradient id="paint1_linear" x1="-252.661" y1="20.765" x2="502.529" y2="425.979" gradientUnits="userSpaceOnUse">
<stop offset="0.201042" stop-color="#231E33"/>
<stop offset="1" stop-color="#482251"/>
</linearGradient>
<linearGradient id="paint2_linear" x1="105.59" y1="140.397" x2="90.3296" y2="131.089" gradientUnits="userSpaceOnUse">
<stop stop-color="#FB7A0D"/>
<stop offset="1" stop-color="#FBAE0D"/>
</linearGradient>
<linearGradient id="paint3_linear" x1="268.512" y1="361.264" x2="253.251" y2="351.955" gradientUnits="userSpaceOnUse">
<stop stop-color="#FB7A0D"/>
<stop offset="1" stop-color="#FBAE0D"/>
</linearGradient>
<linearGradient id="paint4_linear" x1="361.366" y1="272.251" x2="363.459" y2="239.779" gradientUnits="userSpaceOnUse">
<stop stop-color="#FB7A0D"/>
<stop offset="1" stop-color="#FBAE0D"/>
</linearGradient>
<linearGradient id="paint5_linear" x1="24.5219" y1="361.271" x2="25.5043" y2="346.027" gradientUnits="userSpaceOnUse">
<stop stop-color="#FB7A0D"/>
<stop offset="1" stop-color="#FBAE0D"/>
</linearGradient>
<linearGradient id="paint6_linear" x1="45.5217" y1="191.271" x2="46.5041" y2="176.027" gradientUnits="userSpaceOnUse">
<stop stop-color="#FB7A0D"/>
<stop offset="1" stop-color="#FBAE0D"/>
</linearGradient>
<linearGradient id="paint7_linear" x1="209.186" y1="109.982" x2="211.279" y2="77.51" gradientUnits="userSpaceOnUse">
<stop stop-color="#FB7A0D"/>
<stop offset="1" stop-color="#FBAE0D"/>
</linearGradient>
<linearGradient id="paint8_linear" x1="95.5912" y1="287.138" x2="97.6837" y2="254.667" gradientUnits="userSpaceOnUse">
<stop stop-color="#FB7A0D"/>
<stop offset="1" stop-color="#FBAE0D"/>
</linearGradient>
<linearGradient id="paint9_linear" x1="26.5917" y1="460.138" x2="28.6842" y2="427.667" gradientUnits="userSpaceOnUse">
<stop stop-color="#FB7A0D"/>
<stop offset="1" stop-color="#FBAE0D"/>
</linearGradient>
<linearGradient id="paint10_linear" x1="75.5358" y1="562.223" x2="76.5143" y2="547.038" gradientUnits="userSpaceOnUse">
<stop stop-color="#FB7A0D"/>
<stop offset="1" stop-color="#FBAE0D"/>
</linearGradient>
<linearGradient id="paint11_linear" x1="-241.178" y1="112.19" x2="467.262" y2="392.944" gradientUnits="userSpaceOnUse">
<stop offset="0.0640018" stop-color="#231E33"/>
<stop offset="1" stop-color="#482251"/>
</linearGradient>
<clipPath id="clip0">
<rect width="143.021" height="70.6837" fill="white" transform="translate(177.253 243.911) rotate(14.5948)"/>
</clipPath>
</defs>
</svg>
