<svg width="32" height="32" viewBox="0 0 32 32" fill="none" xmlns="http://www.w3.org/2000/svg">
<circle cx="16" cy="16" r="16" fill="url(#paint0_linear)"/>
<path d="M10.594 24V21.734L15.852 16.322C17.0253 15.09 17.612 14.0633 17.612 13.242C17.612 12.6407 17.4213 12.1567 17.04 11.79C16.6733 11.4233 16.1967 11.24 15.61 11.24C14.4513 11.24 13.5933 11.8413 13.036 13.044L10.484 11.548C10.968 10.492 11.6647 9.68533 12.574 9.128C13.4833 8.57067 14.4807 8.292 15.566 8.292C16.9593 8.292 18.1547 8.732 19.152 9.612C20.1493 10.4773 20.648 11.6507 20.648 13.132C20.648 14.7307 19.8047 16.3733 18.118 18.06L15.104 21.074H20.89V24H10.594Z" fill="white"/>
<defs>
<linearGradient id="paint0_linear" x1="3.63369e-07" y1="-5.02857" x2="32" y2="34.7429" gradientUnits="userSpaceOnUse">
<stop stop-color="#4E3D95"/>
<stop offset="1" stop-color="#413373"/>
</linearGradient>
</defs>
</svg>
