<svg width="32" height="32" viewBox="0 0 32 32" fill="none" xmlns="http://www.w3.org/2000/svg">
<circle cx="16" cy="16" r="16" fill="url(#paint0_linear)"/>
<path d="M17.766 14.848C18.8073 15.156 19.6507 15.6987 20.296 16.476C20.956 17.2387 21.286 18.1627 21.286 19.248C21.286 20.832 20.7507 22.0713 19.68 22.966C18.624 23.8607 17.326 24.308 15.786 24.308C14.5833 24.308 13.5053 24.0367 12.552 23.494C11.6133 22.9367 10.9313 22.1227 10.506 21.052L13.102 19.556C13.4833 20.744 14.378 21.338 15.786 21.338C16.5633 21.338 17.1647 21.1547 17.59 20.788C18.03 20.4067 18.25 19.8933 18.25 19.248C18.25 18.6173 18.03 18.1113 17.59 17.73C17.1647 17.3487 16.5633 17.158 15.786 17.158H15.126L13.96 15.398L16.996 11.438H10.968V8.6H20.648V11.108L17.766 14.848Z" fill="white"/>
<defs>
<linearGradient id="paint0_linear" x1="3.63369e-07" y1="-5.02857" x2="32" y2="34.7429" gradientUnits="userSpaceOnUse">
<stop stop-color="#4E3D95"/>
<stop offset="1" stop-color="#413373"/>
</linearGradient>
</defs>
</svg>
