<svg width="384" height="547" viewBox="0 0 384 547" fill="none" xmlns="http://www.w3.org/2000/svg">
<g filter="url(#filter0_d)">
<path d="M265.442 501.885H230.137C221.007 501.885 213.623 494.487 213.623 485.381V406.468C213.623 397.343 221.026 389.964 230.137 389.964H265.442C274.572 389.964 281.956 397.362 281.956 406.468V485.381C281.956 494.487 274.553 501.885 265.442 501.885Z" fill="#CCCCCC"/>
<path d="M133.521 399.449H266.619C300.881 399.449 328.669 371.677 328.669 337.437V283.145C328.669 248.905 300.881 221.134 266.619 221.134H133.521C99.2593 221.134 71.4705 248.905 71.4705 283.145V337.437C71.4705 371.677 99.2593 399.449 133.521 399.449Z" fill="#2A541D"/>
<path d="M161.044 501.885H125.739C116.609 501.885 109.225 494.487 109.225 485.381V406.468C109.225 397.343 116.628 389.964 125.739 389.964H161.044C170.174 389.964 177.558 397.362 177.558 406.468V485.381C177.558 494.487 170.155 501.885 161.044 501.885Z" fill="#CCCCCC"/>
<path d="M200.07 263.151C260.348 263.151 309.214 214.317 309.214 154.076C309.214 93.8349 260.348 45 200.07 45C139.792 45 90.9265 93.8349 90.9265 154.076C90.9265 214.317 139.792 263.151 200.07 263.151Z" fill="#CCCCCC"/>
<path d="M138.381 438.887H257.224C280.495 438.887 299.344 420.031 299.344 396.793V297.581C299.344 242.797 254.908 198.389 200.089 198.389C142.746 198.389 96.2417 244.846 96.2417 302.172V396.793C96.2607 420.031 115.109 438.887 138.381 438.887Z" fill="#D0D0D0"/>
<path d="M200.07 237.998C246.448 237.998 284.044 200.425 284.044 154.076C284.044 107.727 246.448 70.1538 200.07 70.1538C153.693 70.1538 116.096 107.727 116.096 154.076C116.096 200.425 153.693 237.998 200.07 237.998Z" fill="#2B2A70"/>
<path d="M228.822 96.2162C198.635 80.7013 198.146 86.9631 201.683 83.8367C204.885 82.4869 220.494 78.4458 242.809 94.4014C258.734 105.788 262.699 116.974 263.921 126.572C263.977 130.38 262.733 134.707 261.87 137.387C260.016 143.144 259.008 111.731 228.822 96.2162Z" fill="#EEEEEE" fill-opacity="0.96"/>
<path d="M263.513 145.494C263.49 145.851 267.152 159.282 268.805 159.387C270.459 159.493 269.884 149.094 269.904 147.406C269.927 145.403 267.622 128.221 264.49 138.042C262.635 143.393 263.535 145.138 263.513 145.494Z" fill="#EEEEEE" fill-opacity="0.95"/>
<path d="M137.841 289.922C141.135 257.464 130.235 229.776 113.495 228.079C96.7554 226.383 80.515 251.32 77.2211 283.777C73.9273 316.235 84.8273 343.923 101.567 345.62C118.307 347.317 134.547 322.38 137.841 289.922Z" fill="#2A541D"/>
<path d="M297.625 345.609C314.364 343.913 325.264 316.225 321.971 283.767C318.677 251.309 302.436 226.372 285.697 228.069C268.957 229.765 258.057 257.453 261.351 289.911C264.645 322.369 280.885 347.306 297.625 345.609Z" fill="#2A541D"/>
<path d="M269.751 271.176L283.38 301.394C286.607 308.584 295.072 311.771 302.247 308.546L307.695 306.099C314.889 302.874 318.078 294.414 314.851 287.243L298.774 251.561C295.547 244.371 287.081 241.185 279.906 244.409C269.694 249 265.158 260.989 269.751 271.176Z" fill="#CCCCCC"/>
<path d="M123.289 272.024L109.66 302.243C106.433 309.432 97.9676 312.619 90.7926 309.394L85.3449 306.947C78.1509 303.722 74.962 295.262 78.1889 288.091L94.2662 252.409C97.4931 245.22 105.959 242.033 113.134 245.258C123.346 249.848 127.882 261.837 123.289 272.024Z" fill="#CCCCCC"/>
<circle cx="197" cy="308" r="23.5" stroke="#B3B3B3"/>
<path d="M232.491 322.394H293.478C307.031 322.394 318.04 311.41 318.04 297.847V295.704C318.04 282.159 307.05 271.157 293.478 271.157H232.491C218.938 271.157 207.928 282.14 207.928 295.704V297.847C207.928 311.391 218.919 322.394 232.491 322.394Z" fill="#E6E6E6"/>
<path d="M160.55 323.242H99.562C86.0093 323.242 75 312.259 75 298.695V296.552C75 283.008 85.9903 272.005 99.562 272.005H160.55C174.102 272.005 185.112 282.989 185.112 296.552V298.695C185.112 312.24 174.121 323.242 160.55 323.242Z" fill="#E6E6E6"/>
<path d="M253.484 269.525V324.006C253.484 324.67 254.035 325.22 254.699 325.22H256.597C257.261 325.22 257.812 324.67 257.812 324.006V269.525C257.812 268.861 257.261 268.311 256.597 268.311H254.699C254.035 268.33 253.484 268.861 253.484 269.525Z" fill="#B3B3B3"/>
<path d="M139.556 270.374V324.855C139.556 325.519 139.005 326.069 138.341 326.069H136.443C135.779 326.069 135.228 325.519 135.228 324.855V270.374C135.228 269.71 135.779 269.16 136.443 269.16H138.341C139.005 269.179 139.556 269.71 139.556 270.374Z" fill="#B3B3B3"/>
<path d="M259.046 269.525V324.006C259.046 324.67 259.596 325.22 260.261 325.22H262.159C262.823 325.22 263.373 324.67 263.373 324.006V269.525C263.373 268.861 262.823 268.311 262.159 268.311H260.261C259.596 268.33 259.046 268.861 259.046 269.525Z" fill="#B3B3B3"/>
<path d="M133.994 270.374V324.855C133.994 325.519 133.444 326.069 132.78 326.069H130.881C130.217 326.069 129.667 325.519 129.667 324.855V270.374C129.667 269.71 130.217 269.16 130.881 269.16H132.78C133.444 269.179 133.994 269.71 133.994 270.374Z" fill="#B3B3B3"/>
<path d="M264.873 269.525V324.006C264.873 324.67 265.423 325.22 266.088 325.22H267.454C268.119 325.22 268.669 324.67 268.669 324.006V269.525C268.669 268.861 268.119 268.311 267.454 268.311H266.088C265.423 268.33 264.873 268.861 264.873 269.525Z" fill="#B3B3B3"/>
<path d="M128.167 270.374V324.855C128.167 325.519 127.617 326.069 126.952 326.069H125.586C124.921 326.069 124.371 325.519 124.371 324.855V270.374C124.371 269.71 124.921 269.16 125.586 269.16H126.952C127.617 269.179 128.167 269.71 128.167 270.374Z" fill="#B3B3B3"/>
<path d="M282.64 456.13H212.94C212.275 456.13 211.725 456.68 211.725 457.344V460.929C211.725 461.593 212.275 462.143 212.94 462.143H282.64C283.304 462.143 283.854 461.593 283.854 460.929V457.344C283.854 456.661 283.304 456.13 282.64 456.13Z" fill="#B3B3B3"/>
<path d="M282.64 463.851H212.94C212.275 463.851 211.725 464.401 211.725 465.065V468.65C211.725 469.314 212.275 469.864 212.94 469.864H282.64C283.304 469.864 283.854 469.314 283.854 468.65V465.065C283.854 464.401 283.304 463.851 282.64 463.851Z" fill="#B3B3B3"/>
<path d="M282.64 471.951H212.94C212.275 471.951 211.725 472.501 211.725 473.165V476.01C211.725 476.674 212.275 477.225 212.94 477.225H282.64C283.304 477.225 283.854 476.674 283.854 476.01V473.165C283.854 472.482 283.304 471.951 282.64 471.951Z" fill="#B3B3B3"/>
<path d="M178.241 456.13H108.541C107.877 456.13 107.327 456.68 107.327 457.344V460.929C107.327 461.593 107.877 462.143 108.541 462.143H178.241C178.906 462.143 179.456 461.593 179.456 460.929V457.344C179.456 456.661 178.906 456.13 178.241 456.13Z" fill="#B3B3B3"/>
<path d="M178.241 463.851H108.541C107.877 463.851 107.327 464.401 107.327 465.065V468.65C107.327 469.314 107.877 469.864 108.541 469.864H178.241C178.906 469.864 179.456 469.314 179.456 468.65V465.065C179.456 464.401 178.906 463.851 178.241 463.851Z" fill="#B3B3B3"/>
<path d="M178.241 471.951H108.541C107.877 471.951 107.327 472.501 107.327 473.165V476.01C107.327 476.674 107.877 477.225 108.541 477.225H178.241C178.906 477.225 179.456 476.674 179.456 476.01V473.165C179.456 472.482 178.906 471.951 178.241 471.951Z" fill="#B3B3B3"/>
<path d="M201.219 295H207.916L199.948 324.463L197.325 313.725L201.219 295ZM191.677 295L198.576 324.463H193.049L185 295H191.677Z" fill="#DF9E15"/>
</g>
<defs>
<filter id="filter0_d" x="-35" y="-39" width="462" height="624" filterUnits="userSpaceOnUse" color-interpolation-filters="sRGB">
<feFlood flood-opacity="0" result="BackgroundImageFix"/>
<feColorMatrix in="SourceAlpha" type="matrix" values="0 0 0 0 0 0 0 0 0 0 0 0 0 0 0 0 0 0 127 0"/>
<feOffset dx="10"/>
<feGaussianBlur stdDeviation="22.5"/>
<feColorMatrix type="matrix" values="0 0 0 0 0 0 0 0 0 0 0 0 0 0 0 0 0 0 0.2 0"/>
<feBlend mode="normal" in2="BackgroundImageFix" result="effect1_dropShadow"/>
<feBlend mode="normal" in="SourceGraphic" in2="effect1_dropShadow" result="shape"/>
</filter>
</defs>
</svg>
