<svg width="1600" height="1046" viewBox="0 0 1600 1046" fill="none" xmlns="http://www.w3.org/2000/svg">
<path d="M146.827 63.1389C-3.17484 55.9524 -50.5987 28.0035 -58.6351 10.309V974.776C29.1823 1000.44 260.407 1050.54 482.766 1045.67C760.716 1039.58 859.198 978.099 1072.66 974.776C1286.12 971.453 1318.61 983.637 1444.09 1013.55C1544.47 1037.47 1607.89 1023.51 1627.06 1013.55V0C1545.24 29.5387 1345.91 89.5021 1203.14 93.0468C1024.67 97.4776 707.725 0 548.255 0C388.784 0 331.794 72.0005 146.827 63.1389Z" fill="url(#paint0_linear)"/>
<g filter="url(#filter0_d)">
<path d="M149.827 110.74C-0.174839 104.282 -47.5987 79.1657 -55.6351 63.2643V929.994C32.1823 953.055 263.407 998.082 485.766 993.702C763.716 988.227 862.198 932.98 1075.66 929.994C1289.12 927.007 1321.61 937.957 1447.09 964.834C1547.47 986.336 1610.89 973.793 1630.06 964.834V54C1548.24 80.5453 1348.91 134.432 1206.14 137.618C1027.67 141.599 710.725 54 551.255 54C391.784 54 334.794 118.704 149.827 110.74Z" fill="url(#paint1_linear)"/>
</g>
<ellipse rx="1.46095" ry="1.35031" transform="matrix(0.87193 0.489631 -0.695885 0.718153 385.571 318.874)" fill="white" fill-opacity="0.3"/>
<ellipse rx="1.46095" ry="1.35031" transform="matrix(0.87193 0.489631 -0.695885 0.718153 337.845 673.107)" fill="white" fill-opacity="0.3"/>
<ellipse rx="1.85347" ry="1.7131" transform="matrix(0.87193 0.489631 -0.695885 0.718153 534.374 151.666)" fill="white" fill-opacity="0.3"/>
<ellipse rx="1.601" ry="1.95111" transform="matrix(-0.457979 0.888963 -0.958206 -0.28608 192.98 508.73)" fill="white" fill-opacity="0.3"/>
<ellipse cx="338.186" cy="493.624" rx="1.58292" ry="0.803345" fill="white" fill-opacity="0.3"/>
<ellipse rx="1.46095" ry="0.900207" transform="matrix(0.87193 0.489631 -0.695885 0.718153 459.647 400.916)" fill="white" fill-opacity="0.3"/>
<ellipse rx="1.85347" ry="1.14207" transform="matrix(0.87193 0.489631 -0.695885 0.718153 33.0079 508.864)" fill="white" fill-opacity="0.3"/>
<ellipse rx="1.85347" ry="1.14207" transform="matrix(0.87193 0.489631 -0.695885 0.718153 205.238 148.701)" fill="white" fill-opacity="0.3"/>
<ellipse cx="569.092" cy="450.296" rx="1.05528" ry="1.20502" fill="white" fill-opacity="0.3"/>
<ellipse rx="0.973967" ry="1.35031" transform="matrix(0.87193 0.489631 -0.695885 0.718153 440.136 467.124)" fill="white" fill-opacity="0.3"/>
<ellipse rx="1.23564" ry="1.7131" transform="matrix(0.87193 0.489631 -0.695885 0.718153 -1.37211 567.419)" fill="white" fill-opacity="0.3"/>
<ellipse rx="1.46095" ry="1.35031" transform="matrix(0.87193 0.489631 -0.695885 0.718153 387.953 375.213)" fill="white" fill-opacity="0.3"/>
<ellipse rx="1.46095" ry="1.35031" transform="matrix(0.87193 0.489631 -0.695885 0.718153 605.527 492.637)" fill="white" fill-opacity="0.3"/>
<ellipse rx="1.85347" ry="1.7131" transform="matrix(0.87193 0.489631 -0.695885 0.718153 45.8552 752.542)" fill="white" fill-opacity="0.3"/>
<ellipse rx="1.85347" ry="1.7131" transform="matrix(0.87193 0.489631 -0.695885 0.718153 247.136 129.365)" fill="white" fill-opacity="0.3"/>
<ellipse rx="1.85347" ry="1.7131" transform="matrix(0.87193 0.489631 -0.695885 0.718153 207.71 704.363)" fill="white" fill-opacity="0.3"/>
<ellipse rx="1.85347" ry="1.7131" transform="matrix(0.87193 0.489631 -0.695885 0.718153 349.852 929.465)" fill="white" fill-opacity="0.3"/>
<ellipse rx="1.85347" ry="1.7131" transform="matrix(0.87193 0.489631 -0.695885 0.718153 101.882 933.415)" fill="white" fill-opacity="0.3"/>
<ellipse rx="1.85347" ry="1.7131" transform="matrix(0.87193 0.489631 -0.695885 0.718153 1077.16 942.103)" fill="white" fill-opacity="0.3"/>
<ellipse rx="1.85347" ry="1.7131" transform="matrix(0.87193 0.489631 -0.695885 0.718153 687.05 947.632)" fill="white" fill-opacity="0.3"/>
<ellipse rx="2.47129" ry="2.28413" transform="matrix(0.87193 0.489631 -0.695885 0.718153 412.003 143.505)" fill="white" fill-opacity="0.3"/>
<ellipse rx="1.46095" ry="1.35031" transform="matrix(0.87193 0.489631 -0.695885 0.718153 472.724 331.511)" fill="white" fill-opacity="0.3"/>
<ellipse rx="1.46095" ry="1.35031" transform="matrix(0.87193 0.489631 -0.695885 0.718153 336.807 611.112)" fill="white" fill-opacity="0.3"/>
<ellipse rx="1.85347" ry="1.7131" transform="matrix(0.87193 0.489631 -0.695885 0.718153 134.046 720.949)" fill="white" fill-opacity="0.3"/>
<ellipse rx="1.85347" ry="1.7131" transform="matrix(0.87193 0.489631 -0.695885 0.718153 255.437 906.56)" fill="white" fill-opacity="0.3"/>
<ellipse rx="1.85347" ry="1.7131" transform="matrix(0.87193 0.489631 -0.695885 0.718153 28.2175 950.001)" fill="white" fill-opacity="0.3"/>
<ellipse rx="1.85347" ry="1.7131" transform="matrix(0.87193 0.489631 -0.695885 0.718153 981.709 983.174)" fill="white" fill-opacity="0.3"/>
<ellipse rx="1.85347" ry="1.7131" transform="matrix(0.87193 0.489631 -0.695885 0.718153 969.259 904.191)" fill="white" fill-opacity="0.3"/>
<ellipse rx="1.85347" ry="1.7131" transform="matrix(0.87193 0.489631 -0.695885 0.718153 1507.74 968.167)" fill="white" fill-opacity="0.3"/>
<ellipse rx="1.85347" ry="1.7131" transform="matrix(0.87193 0.489631 -0.695885 0.718153 613.385 964.218)" fill="white" fill-opacity="0.3"/>
<ellipse rx="1.85347" ry="1.7131" transform="matrix(0.87193 0.489631 -0.695885 0.718153 568.772 991.862)" fill="white" fill-opacity="0.3"/>
<ellipse rx="1.94793" ry="1.80041" transform="matrix(0.87193 0.489631 -0.695885 0.718153 139.376 557.965)" fill="white" fill-opacity="0.3"/>
<ellipse rx="2.47129" ry="2.28413" transform="matrix(0.87193 0.489631 -0.695885 0.718153 107.925 375.715)" fill="white" fill-opacity="0.3"/>
<ellipse rx="1.46095" ry="1.35031" transform="matrix(0.87193 0.489631 -0.695885 0.718153 1545.53 310.975)" fill="white" fill-opacity="0.3"/>
<ellipse rx="1.85347" ry="1.7131" transform="matrix(0.87193 0.489631 -0.695885 0.718153 1059.52 410.157)" fill="white" fill-opacity="0.3"/>
<ellipse rx="1.85347" ry="1.7131" transform="matrix(0.87193 0.489631 -0.695885 0.718153 1161.25 483.64)" fill="white" fill-opacity="0.3"/>
<ellipse cx="1361.26" cy="96.4376" rx="1.58292" ry="0.803345" fill="white" fill-opacity="0.3"/>
<ellipse rx="1.46095" ry="0.900207" transform="matrix(0.87193 0.489631 -0.695885 0.718153 1500.61 724.957)" fill="white" fill-opacity="0.3"/>
<ellipse rx="1.85347" ry="1.14207" transform="matrix(0.87193 0.489631 -0.695885 0.718153 1285.31 228.474)" fill="white" fill-opacity="0.3"/>
<ellipse cx="1544.67" cy="464.23" rx="1.05528" ry="1.20502" fill="white" fill-opacity="0.3"/>
<ellipse rx="1.23564" ry="1.7131" transform="matrix(0.87193 0.489631 -0.695885 0.718153 1455.32 602.962)" fill="white" fill-opacity="0.3"/>
<ellipse rx="1.06733" ry="1.95111" transform="matrix(-0.457979 0.888963 -0.958206 -0.28608 1335.06 503.905)" fill="white" fill-opacity="0.3"/>
<ellipse cx="1420.62" cy="545.962" rx="1.58292" ry="1.20502" fill="white" fill-opacity="0.3"/>
<ellipse rx="1.46095" ry="1.35031" transform="matrix(0.87193 0.489631 -0.695885 0.718153 1468.02 104.428)" fill="white" fill-opacity="0.3"/>
<ellipse rx="1.46095" ry="1.35031" transform="matrix(0.87193 0.489631 -0.695885 0.718153 1449.56 771.046)" fill="white" fill-opacity="0.3"/>
<ellipse rx="1.85347" ry="1.7131" transform="matrix(0.87193 0.489631 -0.695885 0.718153 1211.9 416.159)" fill="white" fill-opacity="0.3"/>
<ellipse rx="1.85347" ry="1.7131" transform="matrix(0.87193 0.489631 -0.695885 0.718153 712.987 439.381)" fill="white" fill-opacity="0.3"/>
<ellipse rx="1.85347" ry="1.7131" transform="matrix(0.87193 0.489631 -0.695885 0.718153 805.327 481.242)" fill="white" fill-opacity="0.3"/>
<ellipse rx="2.47129" ry="2.28413" transform="matrix(0.87193 0.489631 -0.695885 0.718153 875.777 533.294)" fill="white" fill-opacity="0.3"/>
<ellipse rx="2.47129" ry="2.28413" transform="matrix(0.87193 0.489631 -0.695885 0.718153 1188.08 231.176)" fill="white" fill-opacity="0.3"/>
<ellipse rx="1.46095" ry="1.35031" transform="matrix(0.87193 0.489631 -0.695885 0.718153 1374.34 330.32)" fill="white" fill-opacity="0.3"/>
<ellipse rx="1.46095" ry="1.35031" transform="matrix(0.87193 0.489631 -0.695885 0.718153 1581.84 715.758)" fill="white" fill-opacity="0.3"/>
<ellipse rx="1.46095" ry="1.35031" transform="matrix(0.87193 0.489631 -0.695885 0.718153 1557.98 659.635)" fill="white" fill-opacity="0.3"/>
<ellipse rx="1.85347" ry="1.7131" transform="matrix(0.87193 0.489631 -0.695885 0.718153 810.515 576.812)" fill="white" fill-opacity="0.3"/>
<ellipse rx="1.37869" ry="1.68019" transform="matrix(-0.457979 0.888963 -0.958206 -0.28608 1437.66 464.778)" fill="white" fill-opacity="0.3"/>
<ellipse rx="1.94793" ry="1.80041" transform="matrix(0.87193 0.489631 -0.695885 0.718153 1256.8 636.184)" fill="white" fill-opacity="0.3"/>
<path d="M441.583 209.452L442.41 215.186L448.378 216.053L442.921 218.73L443.748 224.464L439.548 220.385L434.091 223.062L436.952 217.863L432.753 213.784L438.721 214.651L441.583 209.452Z" fill="url(#paint2_linear)" fill-opacity="0.8"/>
<path d="M90.837 376.344L88.2599 383.663L94.6593 388.083L86.6671 388.186L84.09 395.505L81.7277 388.25L73.7354 388.354L80.2677 383.766L77.9053 376.512L84.3048 380.931L90.837 376.344Z" fill="url(#paint3_linear)" fill-opacity="0.8"/>
<path d="M319.549 1008.53L325.28 1009.38L327.817 1003.91L328.823 1009.9L334.554 1010.75L329.444 1013.6L330.45 1019.6L326.286 1015.37L321.176 1018.23L323.713 1012.76L319.549 1008.53Z" fill="url(#paint4_linear)" fill-opacity="0.8"/>
<path d="M1189.91 545.79L1195.65 546.636L1198.18 541.165L1199.19 547.159L1204.92 548.005L1199.81 550.864L1200.82 556.859L1196.65 552.631L1191.54 555.489L1194.08 550.018L1189.91 545.79Z" fill="url(#paint5_linear)" fill-opacity="0.8"/>
<path d="M841.147 687.029L841.654 681.257L836.043 679.048L841.968 677.691L842.475 671.919L845.63 676.852L851.555 675.495L847.579 679.9L850.734 684.833L845.122 682.623L841.147 687.029Z" fill="url(#paint6_linear)" fill-opacity="0.8"/>
<path d="M78.5691 833.029L79.0765 827.257L73.4651 825.048L79.3901 823.691L79.8975 817.919L83.0519 822.852L88.9769 821.495L85.0015 825.9L88.1559 830.833L82.5445 828.623L78.5691 833.029Z" fill="url(#paint7_linear)" fill-opacity="0.8"/>
<path d="M426.147 790.029L426.654 784.257L421.043 782.048L426.968 780.691L427.475 774.919L430.63 779.852L436.555 778.495L432.579 782.9L435.734 787.833L430.122 785.623L426.147 790.029Z" fill="url(#paint8_linear)" fill-opacity="0.8"/>
<path d="M1036.15 841.029L1036.65 835.257L1031.04 833.048L1036.97 831.691L1037.48 825.919L1040.63 830.852L1046.55 829.495L1042.58 833.9L1045.73 838.833L1040.12 836.623L1036.15 841.029Z" fill="url(#paint9_linear)" fill-opacity="0.8"/>
<path d="M1373.15 747.028L1373.65 741.257L1368.04 739.047L1373.97 737.69L1374.48 731.919L1377.63 736.852L1383.55 735.495L1379.58 739.9L1382.73 744.833L1377.12 742.623L1373.15 747.028Z" fill="url(#paint10_linear)" fill-opacity="0.8"/>
<path d="M1477.6 282.056L1480.27 287.202L1486.19 286.063L1481.91 290.382L1484.57 295.527L1479.27 293.051L1474.99 297.37L1475.99 291.521L1470.68 289.045L1476.61 287.906L1477.6 282.056Z" fill="url(#paint11_linear)" fill-opacity="0.6"/>
<path d="M1515.05 402.049L1520.81 407.25L1527.36 403.051L1524.37 410.465L1530.13 415.666L1522.52 415.046L1519.54 422.46L1517.82 414.664L1510.22 414.044L1516.77 409.845L1515.05 402.049Z" fill="url(#paint12_linear)" fill-opacity="0.6"/>
<path d="M1102.89 139.602L1104.26 144.283L1109.73 144.034L1105.1 147.176L1106.47 151.858L1102.24 149.118L1097.62 152.261L1099.63 147.425L1095.4 144.686L1100.88 144.437L1102.89 139.602Z" fill="url(#paint13_linear)" fill-opacity="0.8"/>
<path d="M492.525 26.3423L493.893 31.0237L499.364 30.7746L494.738 33.9169L496.106 38.5983L491.878 35.859L487.252 39.0013L489.266 34.166L485.039 31.4267L490.511 31.1776L492.525 26.3423Z" fill="url(#paint14_linear)" fill-opacity="0.8"/>
<path d="M1573.87 800.34L1573.82 811.423L1584.53 814.388L1573.8 818.272L1573.75 829.355L1567.16 820.673L1556.43 824.558L1563.09 815.307L1556.5 806.625L1567.21 809.59L1573.87 800.34Z" fill="url(#paint15_linear)"/>
<path d="M1221.83 329.948L1218.15 340.402L1227.29 346.715L1215.88 346.863L1212.2 357.317L1208.82 346.954L1197.41 347.102L1206.74 340.55L1203.36 330.187L1212.5 336.5L1221.83 329.948Z" fill="url(#paint16_linear)"/>
<path d="M815.982 157.089L826.665 153.086L826.024 142.207L833.268 150.612L843.952 146.608L837.745 155.806L844.99 164.211L833.91 161.491L827.703 170.688L827.062 159.809L815.982 157.089Z" fill="url(#paint17_linear)"/>
<path d="M548.307 875.09L558.99 871.086L558.349 860.207L565.593 868.612L576.276 864.609L570.07 873.806L577.314 882.211L566.234 879.491L560.028 888.688L559.387 877.81L548.307 875.09Z" fill="url(#paint18_linear)"/>
<path d="M1369.31 961.09L1379.99 957.086L1379.35 946.207L1386.59 954.612L1397.28 950.609L1391.07 959.806L1398.31 968.211L1387.23 965.491L1381.03 974.688L1380.39 963.81L1369.31 961.09Z" fill="url(#paint19_linear)"/>
<path d="M902.307 898.09L912.99 894.086L912.349 883.207L919.593 891.612L930.276 887.609L924.07 896.806L931.314 905.211L920.234 902.491L914.028 911.688L913.387 900.81L902.307 898.09Z" fill="url(#paint20_linear)"/>
<path d="M1501.31 50.0894L1511.99 46.086L1511.35 35.2073L1518.59 43.6118L1529.28 39.6084L1523.07 48.8061L1530.31 57.2105L1519.23 54.4905L1513.03 63.6881L1512.39 52.8094L1501.31 50.0894Z" fill="url(#paint21_linear)"/>
<path d="M203.127 649.264L203.079 660.347L213.785 663.312L203.05 667.196L203.002 678.279L196.415 669.597L185.68 673.482L192.344 664.232L185.757 655.549L196.463 658.514L203.127 649.264Z" fill="url(#paint22_linear)"/>
<circle r="1.52566" transform="matrix(-0.719248 0.694754 0.694754 0.719248 1156.21 295.664)" fill="#FBA10D" fill-opacity="0.2"/>
<circle r="1.52566" transform="matrix(-0.804743 0.593623 0.593623 0.804743 1047.82 152.394)" fill="#FBA10D" fill-opacity="0.2"/>
<ellipse rx="1.93556" ry="1.29038" transform="matrix(-0.804743 0.593623 0.593623 0.804743 1326.79 728.939)" fill="#FBA10D" fill-opacity="0.2"/>
<ellipse rx="1.01711" ry="1.52566" transform="matrix(-1 0 0 1 872.879 861.503)" fill="#FBA10D" fill-opacity="0.2"/>
<ellipse rx="1.01711" ry="1.52566" transform="matrix(-0.804743 0.593623 0.593623 0.804743 997.148 883.091)" fill="#FBA10D" fill-opacity="0.2"/>
<circle r="1.52566" transform="matrix(-0.804743 0.593623 0.593623 0.804743 891.98 502.394)" fill="#FBA10D" fill-opacity="0.2"/>
<circle r="2.58075" transform="matrix(-0.804743 0.593623 0.593623 0.804743 1397.03 395.868)" fill="#FBA10D" fill-opacity="0.2"/>
<circle r="1.52566" transform="matrix(-0.804743 0.593623 0.593623 0.804743 963.824 168.394)" fill="#FBA10D" fill-opacity="0.2"/>
<circle r="2.58075" transform="matrix(-0.36687 0.930272 0.930272 0.36687 1397.44 173.59)" fill="#FBA10D" fill-opacity="0.2"/>
<circle r="1.93556" transform="matrix(0.365113 0.930963 0.930963 -0.365113 180.604 509.204)" fill="#FBA10D" fill-opacity="0.2"/>
<circle r="1.93556" transform="matrix(0.365113 0.930963 0.930963 -0.365113 494.932 742.768)" fill="#FBA10D" fill-opacity="0.2"/>
<circle r="1.93556" transform="matrix(0.365113 0.930963 0.930963 -0.365113 216.932 907.768)" fill="#FBA10D" fill-opacity="0.2"/>
<circle r="1.93556" transform="matrix(0.365113 0.930963 0.930963 -0.365113 442.932 847.768)" fill="#FBA10D" fill-opacity="0.2"/>
<circle r="1.93556" transform="matrix(0.365113 0.930963 0.930963 -0.365113 634.932 929.768)" fill="#FBA10D" fill-opacity="0.2"/>
<circle r="1.93556" transform="matrix(0.365113 0.930963 0.930963 -0.365113 1244.93 814.768)" fill="#FBA10D" fill-opacity="0.2"/>
<circle r="1.93556" transform="matrix(0.365113 0.930963 0.930963 -0.365113 1511.93 981.768)" fill="#FBA10D" fill-opacity="0.2"/>
<circle r="1.93556" transform="matrix(0.365113 0.930963 0.930963 -0.365113 671.932 800.768)" fill="#FBA10D" fill-opacity="0.2"/>
<circle r="1.93556" transform="matrix(0.365113 0.930963 0.930963 -0.365113 94.9323 959.768)" fill="#FBA10D" fill-opacity="0.2"/>
<circle r="1.93556" transform="matrix(0.365113 0.930963 0.930963 -0.365113 290.932 818.768)" fill="#FBA10D" fill-opacity="0.2"/>
<circle r="1.93556" transform="matrix(0.365113 0.930963 0.930963 -0.365113 826.932 798.768)" fill="#FBA10D" fill-opacity="0.2"/>
<circle r="1.93556" transform="matrix(0.365113 0.930963 0.930963 -0.365113 1122.93 912.768)" fill="#FBA10D" fill-opacity="0.2"/>
<ellipse rx="1.52566" ry="1.01711" transform="matrix(-1 0 0 1 116.432 266.278)" fill="#FBA10D" fill-opacity="0.2"/>
<circle r="2.03422" transform="matrix(-0.804743 0.593623 0.593623 0.804743 6.26823 348.105)" fill="#FBA10D" fill-opacity="0.2"/>
<circle r="1.52566" transform="matrix(-0.804743 0.593623 0.593623 0.804743 24.9794 737.829)" fill="#FBA10D" fill-opacity="0.2"/>
<mask id="mask0" mask-type="alpha" maskUnits="userSpaceOnUse" x="-26" y="216" width="469" height="397">
<path d="M-25.0764 358.759L-14.5764 612.259L282.424 556.259L441.924 313.759L381.924 217.259H237.424C213.257 218.092 161.524 224.259 147.924 242.259C130.924 264.759 29.4236 316.759 9.42365 320.759C-6.57635 323.959 -7.40969 346.926 -25.0764 358.759Z" fill="#C4C4C4" stroke="black"/>
</mask>
<g mask="url(#mask0)">
<path d="M133.385 371.763C192.947 357.046 217.885 378.15 191.693 417.16C165.5 456.169 96.6641 500.444 37.1017 515.161C-22.4608 529.878 -47.399 508.774 -21.2065 469.764C4.98604 430.755 73.8222 386.48 133.385 371.763Z" stroke="#493A54" stroke-opacity="0.1" stroke-width="7"/>
<ellipse rx="26.5522" ry="33.4337" transform="matrix(0.557441 -0.830217 0.970804 -0.239872 91.6825 434.323)" fill="#493A54" fill-opacity="0.1"/>
<path d="M164.935 322.009C261.83 298.067 303.232 332.248 260.015 396.613C216.798 460.978 103.896 533.285 7.00024 557.227C-89.8954 581.168 -131.297 546.987 -88.0797 482.623C-44.8625 418.258 68.0393 345.951 164.935 322.009Z" stroke="#493A54" stroke-opacity="0.1" stroke-width="7"/>
<path d="M204.092 256.449C345.248 221.571 406.168 271.255 342.767 365.68C279.366 460.105 114.222 565.647 -26.9348 600.525C-168.091 635.403 -229.011 585.718 -165.61 491.293C-102.209 396.868 62.9354 291.326 204.092 256.449Z" stroke="#493A54" stroke-opacity="0.1" stroke-width="7"/>
</g>
<mask id="mask1" mask-type="alpha" maskUnits="userSpaceOnUse" x="-38" y="54" width="1687" height="941">
<path d="M167.828 110.741C17.8252 104.282 -29.5986 79.1658 -37.6351 63.2645V929.994C50.1823 953.055 281.407 998.082 503.766 993.702C781.716 988.227 880.198 932.98 1093.66 929.994C1307.12 927.007 1339.61 937.957 1465.09 964.834C1565.47 986.336 1628.89 973.793 1648.06 964.834V54.0002C1566.24 80.5454 1366.91 134.432 1224.14 137.618C1045.67 141.6 728.726 54.0002 569.255 54.0002C409.784 54.0002 352.794 118.704 167.828 110.741Z" fill="url(#paint23_linear)"/>
</mask>
<g mask="url(#mask1)">
<circle cx="1027.8" cy="884.194" r="268.822" fill="#9E8EFF"/>
<mask id="mask2" mask-type="alpha" maskUnits="userSpaceOnUse" x="758" y="615" width="539" height="539">
<circle cx="1027.8" cy="884.194" r="264.322" fill="#FE9695" stroke="#6A72B4" stroke-width="9"/>
</mask>
<g mask="url(#mask2)">
<circle cx="1052.01" cy="750.419" r="25.4808" fill="#FFCE8E"/>
<rect x="1131" y="742.775" width="38.2212" height="20.3846" rx="6" fill="#FFCE8E"/>
<rect x="1187.06" y="750.42" width="86.6347" height="12.7404" rx="6" fill="#FFCE8E"/>
<path d="M723.308 812.929C723.308 807.959 727.338 803.929 732.308 803.929H910.665C912.848 803.929 914.957 804.722 916.598 806.161L962.37 846.288C964.012 847.727 966.12 848.52 968.303 848.52H1199.65C1203.01 848.52 1206.08 846.651 1207.63 843.672L1223.9 812.379C1225.39 809.517 1228.29 807.67 1231.52 807.538L1310.19 804.313C1315.3 804.104 1319.56 808.19 1319.56 813.306V861.179C1319.56 866.15 1315.53 870.179 1310.56 870.179H732.308C727.338 870.179 723.308 866.15 723.308 861.179V812.929Z" fill="#FFCE8E"/>
<rect x="758.981" y="882.92" width="267.548" height="33.125" rx="9" fill="#FFCE8E"/>
<rect x="1052.01" y="898.208" width="78.9904" height="15.2885" rx="6" fill="#FFCE8E"/>
<path d="M1147.24 1039.82C1159.98 1037.19 1171.8 1031.28 1181.55 1022.67L1185.86 1018.88C1187.47 1017.45 1188.63 1015.58 1189.18 1013.5C1191.8 1003.68 1199.55 996.053 1209.41 993.587L1230.5 988.315C1252.65 982.777 1276.04 985.154 1296.63 995.035V1058.74H1099.45C1094.36 1058.74 1090.23 1054.61 1090.23 1049.52C1090.23 1043.6 1095.43 1039.02 1101.31 1039.78L1124.96 1042.83C1128.12 1043.24 1131.32 1043.12 1134.43 1042.48L1147.24 1039.82Z" fill="#FFCE8E"/>
</g>
<path d="M864.988 1063.89C847.096 1046.85 868.734 1021.22 893.102 1025.34C906.694 1027.64 920.661 1028.84 934.908 1028.84C1072.22 1028.84 1183.53 917.592 1183.53 780.362C1183.53 767.891 1182.61 755.634 1180.84 743.656C1177.22 719.222 1203.32 698.126 1220 716.354C1260.43 760.544 1271.19 819.384 1271.19 883.982C1271.19 1021.21 1159.88 1132.46 1022.56 1132.46C956.079 1132.46 909.599 1106.38 864.988 1063.89Z" fill="#300B00" fill-opacity="0.4"/>
<path fill-rule="evenodd" clip-rule="evenodd" d="M762.583 925.391C760.208 913.739 758.981 900.109 758.981 884.193C758.981 881.608 759.018 879.032 759.091 876.466C685.949 927.642 646.596 981.507 659.476 1024.36C683.778 1105.23 884.841 1116.27 1108.56 1049.04C1332.28 981.799 1493.94 861.741 1469.64 780.878C1453.69 727.791 1361.55 704.795 1236.83 714.285C1245.34 724.581 1253.1 735.521 1260.02 747.022C1333.97 748.661 1385.84 767.625 1396.43 802.879C1416.28 868.918 1283.78 967.107 1100.49 1022.19C917.205 1077.28 752.531 1068.4 732.684 1002.36C725.817 979.514 737.185 952.818 762.583 925.391Z" fill="url(#paint24_radial)"/>
<ellipse cx="1014.62" cy="776.383" rx="108.006" ry="40.1723" transform="rotate(2.39758 1014.62 776.383)" fill="#725A99" fill-opacity="0.67"/>
</g>
<path d="M1399.89 433.8C1461.04 421.853 1500.93 362.572 1488.98 301.392C1477.03 240.211 1417.76 200.3 1356.61 212.247C1295.45 224.193 1255.57 283.474 1267.52 344.655C1279.47 405.835 1338.74 445.747 1399.89 433.8Z" fill="#2A3347"/>
<path d="M1486.01 286.322C1496.96 342.401 1464.35 396.896 1411.77 414.786C1407 416.396 1402.04 417.729 1396.94 418.725C1389.43 420.192 1381.95 420.871 1374.6 420.847C1321.95 420.542 1275.06 383.247 1264.57 329.58C1254.77 279.38 1279.88 230.443 1323.01 207.906C1332.43 202.989 1342.72 199.336 1353.67 197.197C1360.47 195.867 1367.28 195.19 1373.96 195.11C1427.41 194.425 1475.39 231.976 1486.01 286.322Z" fill="#70C4CB"/>
<path d="M1486.01 286.321C1496.96 342.401 1464.35 396.896 1411.77 414.786C1411.06 410.385 1410.22 405.958 1409.34 403.81C1407.23 398.795 1404.86 387.156 1403.88 382.679C1402.9 378.201 1403.38 359.692 1403.38 359.692C1403.38 359.692 1404.11 339.021 1402.18 330.869C1400.25 322.742 1391.72 309.122 1391.72 309.122C1391.72 309.122 1379.62 295.366 1375.73 290.935C1371.85 286.53 1366.58 281.586 1364.15 273.662C1361.72 265.764 1364.67 258.979 1364.77 254.004C1364.84 249.06 1371.28 235.699 1370.74 226.649C1370.31 219.95 1372.7 203.313 1373.96 195.11C1427.41 194.425 1475.39 231.976 1486.01 286.321Z" fill="#BED35A"/>
<path d="M1374.6 420.847C1321.95 420.542 1275.06 383.247 1264.57 329.58C1254.77 279.38 1279.88 230.443 1323.01 207.907C1319.34 220.466 1313.24 240.882 1310.77 246.815C1307.09 255.57 1290.05 267.401 1289 278.587C1287.98 289.768 1300.17 308.801 1305.36 312.249C1310.51 315.676 1323.58 318.392 1333.4 324.089C1343.22 329.762 1351.47 335.975 1354.42 343.067C1357.34 350.14 1357.31 369.032 1356.43 373.742C1355.52 378.457 1352.66 381.181 1353.79 387.587C1354.93 393.988 1365.81 402.819 1369.67 409.785C1371.2 412.538 1372.98 416.728 1374.6 420.847Z" fill="#BED35A"/>
<path opacity="0.4" d="M1322.38 220.556C1372.67 189.977 1437.34 203.415 1471.66 249.895L1472.08 249.642C1439.71 196.372 1370.31 179.432 1317.06 211.805C1263.82 244.178 1246.9 313.606 1279.27 366.876L1279.68 366.624C1254.22 314.759 1272.09 251.134 1322.38 220.556Z" fill="white"/>
<path d="M933.822 772.159L963.82 778.255C971.578 779.831 979.129 774.82 980.701 767.083L994.325 700.032C995.901 692.279 990.885 684.731 983.143 683.158L953.145 677.062C945.387 675.486 937.836 680.497 936.264 688.234L922.639 755.286C921.067 763.022 926.08 770.586 933.822 772.159Z" fill="#E6E6E6"/>
<path d="M1075.68 684.605L960.482 677.696C930.829 675.918 908.219 650.439 909.997 620.805L912.815 573.816C914.592 544.182 940.085 521.588 969.738 523.367L1084.93 530.276C1114.59 532.054 1137.19 557.533 1135.42 587.167L1132.6 634.156C1130.82 663.79 1105.33 686.384 1075.68 684.605Z" fill="#5A227C"/>
<path d="M1062.37 786.935L1092.87 784.352C1100.76 783.683 1106.6 776.751 1105.93 768.885L1100.16 700.707C1099.49 692.824 1092.56 686.991 1084.68 687.658L1054.18 690.241C1046.29 690.909 1040.46 697.841 1041.12 705.708L1046.9 773.885C1047.56 781.752 1054.5 787.602 1062.37 786.935Z" fill="#E6E6E6"/>
<path d="M1025.15 563.187C972.984 560.058 933.227 515.256 936.354 463.118C939.481 410.981 984.308 371.251 1036.48 374.38C1088.65 377.509 1128.4 422.312 1125.28 474.449C1122.15 526.587 1077.32 566.316 1025.15 563.187Z" fill="#CCCCCC"/>
<path d="M1069.42 718.486L966.566 712.317C946.425 711.109 931.091 693.811 932.297 673.699L937.447 587.833C940.291 540.418 981.054 504.29 1028.5 507.135C1078.13 510.112 1115.97 552.734 1112.99 602.349L1108.08 684.242C1106.86 704.353 1089.56 719.694 1069.42 718.486Z" fill="#CCCCCC"/>
<circle cx="1023.85" cy="608.73" r="20" transform="rotate(3.43226 1023.85 608.73)" stroke="#B3B3B3"/>
<path d="M1028.08 598.28L1033.79 598.623L1025.49 623.337L1023.8 614.047L1028.08 598.28ZM1019.94 597.793L1024.32 623.267L1019.61 622.984L1014.25 597.451L1019.94 597.793Z" fill="#DF9E15"/>
<path d="M1026.46 541.417C986.32 539.01 955.731 504.539 958.137 464.425C960.543 424.311 995.033 393.743 1035.17 396.151C1075.31 398.558 1105.9 433.029 1103.49 473.143C1101.09 513.257 1066.6 543.824 1026.46 541.417Z" fill="#2B2A70"/>
<path d="M1077.62 589.587C1076.46 561.324 1087.33 537.926 1101.9 537.327C1116.48 536.727 1129.24 559.153 1130.41 587.416C1131.57 615.679 1120.7 639.076 1106.13 639.676C1091.55 640.275 1078.79 617.85 1077.62 589.587Z" fill="#5A227C"/>
<path d="M936.441 629.49C922.041 627.152 914.045 602.623 918.58 574.702C923.116 546.781 938.466 526.042 952.866 528.379C967.266 530.716 975.263 555.245 970.727 583.166C966.192 611.087 950.841 631.827 936.441 629.49Z" fill="#5A227C"/>
<path d="M1146.56 570.452L1146.12 570.047C1143.56 567.719 1143.37 563.736 1145.7 561.174L1149.42 557.08C1151.75 554.518 1155.74 554.328 1158.3 556.657L1158.74 557.062C1161.3 559.391 1161.49 563.373 1159.16 565.936L1155.44 570.029C1153.11 572.592 1149.12 572.781 1146.56 570.452Z" fill="#CCCCCC"/>
<path d="M1136.69 567.636L1136.1 567.551C1132.66 567.098 1130.23 563.953 1130.67 560.519L1131.38 555.042C1131.83 551.609 1134.98 549.178 1138.41 549.615L1139 549.699C1142.43 550.152 1144.87 553.297 1144.43 556.731L1143.72 562.209C1143.29 565.659 1140.12 568.073 1136.69 567.636Z" fill="#CCCCCC"/>
<path d="M1143.33 603.921L1123.43 609.187C1112.67 612.035 1101.63 605.622 1098.8 594.874L1097.73 590.889C1094.88 580.139 1101.3 569.105 1112.05 566.274L1131.96 561.008C1142.71 558.16 1153.75 564.573 1156.59 575.321L1157.65 579.307C1160.5 590.056 1154.09 601.073 1143.33 603.921Z" fill="#E6E6E6"/>
<path d="M964.429 566.515L951.065 591.962C947.899 598.016 940.407 600.335 934.364 597.172L929.776 594.771C923.718 591.607 921.397 584.119 924.562 578.08L940.329 548.032C943.495 541.977 950.987 539.659 957.03 542.822C965.63 547.325 968.934 557.937 964.429 566.515Z" fill="#CCCCCC"/>
<path d="M994.019 612.778L941.235 609.612C929.506 608.909 920.547 598.831 921.251 587.092L921.363 585.237C922.066 573.515 932.149 564.563 943.895 565.267L996.679 568.433C1008.41 569.136 1017.37 579.214 1016.66 590.953L1016.55 592.808C1015.85 604.53 1005.77 613.482 994.019 612.778Z" fill="#E6E6E6"/>
<path d="M978.594 565.931L975.766 613.084C975.731 613.658 975.226 614.106 974.651 614.072L973.009 613.973C972.434 613.938 971.986 613.434 972.02 612.859L974.848 565.707C974.883 565.132 975.388 564.684 975.963 564.719L977.605 564.817C978.179 564.868 978.628 565.357 978.594 565.931Z" fill="#B3B3B3"/>
<path d="M973.78 565.643L970.952 612.795C970.918 613.37 970.413 613.817 969.838 613.783L968.195 613.684C967.62 613.65 967.172 613.145 967.207 612.57L970.035 565.418C970.069 564.843 970.574 564.396 971.149 564.43L972.792 564.529C973.366 564.58 973.815 565.068 973.78 565.643Z" fill="#B3B3B3"/>
<path d="M968.737 565.34L965.909 612.493C965.875 613.067 965.37 613.515 964.795 613.48L963.612 613.409C963.037 613.375 962.589 612.87 962.623 612.296L965.451 565.143C965.486 564.568 965.991 564.121 966.566 564.155L967.749 564.226C968.323 564.277 968.772 564.765 968.737 565.34Z" fill="#B3B3B3"/>
<path d="M927.109 730.313L986.331 742.347C986.896 742.461 987.269 743.024 987.154 743.588L986.535 746.634C986.42 747.199 985.858 747.571 985.293 747.456L926.071 735.422C925.506 735.308 925.134 734.745 925.248 734.181L925.867 731.135C925.985 730.555 926.544 730.198 927.109 730.313Z" fill="#B3B3B3"/>
<path d="M925.776 736.873L984.999 748.907C985.563 749.022 985.936 749.584 985.821 750.148L985.202 753.195C985.088 753.759 984.525 754.131 983.96 754.017L924.738 741.983C924.173 741.868 923.801 741.306 923.915 740.742L924.534 737.695C924.649 737.131 925.212 736.759 925.776 736.873Z" fill="#B3B3B3"/>
<path d="M924.377 743.756L983.6 755.79C984.164 755.904 984.537 756.467 984.422 757.031L983.931 759.449C983.816 760.013 983.254 760.385 982.689 760.27L923.467 748.237C922.902 748.122 922.53 747.56 922.644 746.995L923.135 744.578C923.253 743.997 923.813 743.641 924.377 743.756Z" fill="#B3B3B3"/>
<path d="M1044.17 748.664L1104.38 743.564C1104.96 743.515 1105.47 743.95 1105.52 744.523L1105.78 747.621C1105.83 748.195 1105.4 748.71 1104.82 748.759L1044.61 753.859C1044.03 753.908 1043.52 753.473 1043.47 752.899L1043.21 749.802C1043.16 749.212 1043.59 748.713 1044.17 748.664Z" fill="#B3B3B3"/>
<path d="M1044.73 755.334L1104.95 750.233C1105.52 750.185 1106.04 750.62 1106.09 751.193L1106.35 754.291C1106.4 754.865 1105.96 755.38 1105.39 755.429L1045.17 760.529C1044.6 760.578 1044.08 760.143 1044.03 759.569L1043.77 756.472C1043.72 755.898 1044.16 755.383 1044.73 755.334Z" fill="#B3B3B3"/>
<path d="M1045.32 762.332L1105.54 757.232C1106.12 757.183 1106.63 757.618 1106.68 758.192L1106.89 760.65C1106.94 761.223 1106.5 761.739 1105.93 761.788L1045.71 766.888C1045.14 766.937 1044.62 766.502 1044.57 765.928L1044.36 763.47C1044.31 762.88 1044.75 762.381 1045.32 762.332Z" fill="#B3B3B3"/>
<path d="M1013.61 416.935C1045.48 405.263 1045.19 411.537 1042.07 407.998C1039.05 406.264 1024.06 400.328 999.951 413.408C982.742 422.742 977.427 433.353 975.031 442.728C974.505 446.5 975.205 450.946 975.731 453.713C976.86 459.655 981.737 428.606 1013.61 416.935Z" fill="#EEEEEE" fill-opacity="0.96"/>
<path d="M973.101 461.555C973.079 461.912 967.788 474.788 966.134 474.689C964.48 474.59 966.333 464.341 966.522 462.664C966.747 460.673 971.154 443.907 973.05 454.039C974.231 459.579 973.122 461.199 973.101 461.555Z" fill="#EEEEEE" fill-opacity="0.95"/>
<defs>
<filter id="filter0_d" x="-76.6351" y="33" width="1735.69" height="990" filterUnits="userSpaceOnUse" color-interpolation-filters="sRGB">
<feFlood flood-opacity="0" result="BackgroundImageFix"/>
<feColorMatrix in="SourceAlpha" type="matrix" values="0 0 0 0 0 0 0 0 0 0 0 0 0 0 0 0 0 0 127 0"/>
<feOffset dx="4" dy="4"/>
<feGaussianBlur stdDeviation="12.5"/>
<feColorMatrix type="matrix" values="0 0 0 0 0.176471 0 0 0 0 0.0823529 0 0 0 0 0.211765 0 0 0 1 0"/>
<feBlend mode="normal" in2="BackgroundImageFix" result="effect1_dropShadow"/>
<feBlend mode="normal" in="SourceGraphic" in2="effect1_dropShadow" result="shape"/>
</filter>
<linearGradient id="paint0_linear" x1="23.111" y1="126.865" x2="1653.03" y2="916.913" gradientUnits="userSpaceOnUse">
<stop offset="0.0640018" stop-color="#231E33"/>
<stop offset="1" stop-color="#482251"/>
</linearGradient>
<linearGradient id="paint1_linear" x1="143.558" y1="18.4999" x2="1614.1" y2="1098.72" gradientUnits="userSpaceOnUse">
<stop offset="0.201042" stop-color="#231E33"/>
<stop offset="1" stop-color="#482251"/>
</linearGradient>
<linearGradient id="paint2_linear" x1="435.081" y1="203.091" x2="455.285" y2="209.714" gradientUnits="userSpaceOnUse">
<stop stop-color="#FB7A0D"/>
<stop offset="1" stop-color="#FBAE0D"/>
</linearGradient>
<linearGradient id="paint3_linear" x1="87.2082" y1="365.059" x2="106.689" y2="384.332" gradientUnits="userSpaceOnUse">
<stop stop-color="#FB7A0D"/>
<stop offset="1" stop-color="#FBAE0D"/>
</linearGradient>
<linearGradient id="paint4_linear" x1="311.595" y1="1012.94" x2="323.716" y2="995.475" gradientUnits="userSpaceOnUse">
<stop stop-color="#FB7A0D"/>
<stop offset="1" stop-color="#FBAE0D"/>
</linearGradient>
<linearGradient id="paint5_linear" x1="1181.96" y1="550.202" x2="1194.08" y2="532.734" gradientUnits="userSpaceOnUse">
<stop stop-color="#FB7A0D"/>
<stop offset="1" stop-color="#FBAE0D"/>
</linearGradient>
<linearGradient id="paint6_linear" x1="846.02" y1="694.709" x2="827.869" y2="683.637" gradientUnits="userSpaceOnUse">
<stop stop-color="#FB7A0D"/>
<stop offset="1" stop-color="#FBAE0D"/>
</linearGradient>
<linearGradient id="paint7_linear" x1="83.4417" y1="840.709" x2="65.2908" y2="829.637" gradientUnits="userSpaceOnUse">
<stop stop-color="#FB7A0D"/>
<stop offset="1" stop-color="#FBAE0D"/>
</linearGradient>
<linearGradient id="paint8_linear" x1="431.02" y1="797.709" x2="412.869" y2="786.637" gradientUnits="userSpaceOnUse">
<stop stop-color="#FB7A0D"/>
<stop offset="1" stop-color="#FBAE0D"/>
</linearGradient>
<linearGradient id="paint9_linear" x1="1041.02" y1="848.709" x2="1022.87" y2="837.637" gradientUnits="userSpaceOnUse">
<stop stop-color="#FB7A0D"/>
<stop offset="1" stop-color="#FBAE0D"/>
</linearGradient>
<linearGradient id="paint10_linear" x1="1378.02" y1="754.708" x2="1359.87" y2="743.637" gradientUnits="userSpaceOnUse">
<stop stop-color="#FB7A0D"/>
<stop offset="1" stop-color="#FBAE0D"/>
</linearGradient>
<linearGradient id="paint11_linear" x1="1469.38" y1="278.18" x2="1490.63" y2="277.809" gradientUnits="userSpaceOnUse">
<stop stop-color="#FB7A0D"/>
<stop offset="1" stop-color="#FBAE0D"/>
</linearGradient>
<linearGradient id="paint12_linear" x1="1503.24" y1="401.043" x2="1528.54" y2="390.506" gradientUnits="userSpaceOnUse">
<stop stop-color="#FB7A0D"/>
<stop offset="1" stop-color="#FBAE0D"/>
</linearGradient>
<linearGradient id="paint13_linear" x1="1096.34" y1="135.323" x2="1114.93" y2="139.208" gradientUnits="userSpaceOnUse">
<stop stop-color="#FB7A0D"/>
<stop offset="1" stop-color="#FBAE0D"/>
</linearGradient>
<linearGradient id="paint14_linear" x1="485.976" y1="22.0637" x2="504.559" y2="25.9488" gradientUnits="userSpaceOnUse">
<stop stop-color="#FB7A0D"/>
<stop offset="1" stop-color="#FBAE0D"/>
</linearGradient>
<linearGradient id="paint15_linear" x1="1563.69" y1="786.814" x2="1599" y2="803.69" gradientUnits="userSpaceOnUse">
<stop stop-color="#FB7A0D"/>
<stop offset="1" stop-color="#FBAE0D"/>
</linearGradient>
<linearGradient id="paint16_linear" x1="1216.65" y1="313.83" x2="1244.48" y2="341.357" gradientUnits="userSpaceOnUse">
<stop stop-color="#FB7A0D"/>
<stop offset="1" stop-color="#FBAE0D"/>
</linearGradient>
<linearGradient id="paint17_linear" x1="806.287" y1="171.348" x2="808.776" y2="132.726" gradientUnits="userSpaceOnUse">
<stop stop-color="#FB7A0D"/>
<stop offset="1" stop-color="#FBAE0D"/>
</linearGradient>
<linearGradient id="paint18_linear" x1="538.612" y1="889.348" x2="541.101" y2="850.726" gradientUnits="userSpaceOnUse">
<stop stop-color="#FB7A0D"/>
<stop offset="1" stop-color="#FBAE0D"/>
</linearGradient>
<linearGradient id="paint19_linear" x1="1359.61" y1="975.348" x2="1362.1" y2="936.726" gradientUnits="userSpaceOnUse">
<stop stop-color="#FB7A0D"/>
<stop offset="1" stop-color="#FBAE0D"/>
</linearGradient>
<linearGradient id="paint20_linear" x1="892.612" y1="912.348" x2="895.101" y2="873.726" gradientUnits="userSpaceOnUse">
<stop stop-color="#FB7A0D"/>
<stop offset="1" stop-color="#FBAE0D"/>
</linearGradient>
<linearGradient id="paint21_linear" x1="1491.61" y1="64.3475" x2="1494.1" y2="25.7259" gradientUnits="userSpaceOnUse">
<stop stop-color="#FB7A0D"/>
<stop offset="1" stop-color="#FBAE0D"/>
</linearGradient>
<linearGradient id="paint22_linear" x1="192.943" y1="635.738" x2="228.259" y2="652.614" gradientUnits="userSpaceOnUse">
<stop stop-color="#FB7A0D"/>
<stop offset="1" stop-color="#FBAE0D"/>
</linearGradient>
<linearGradient id="paint23_linear" x1="161.558" y1="18.5001" x2="1632.1" y2="1098.72" gradientUnits="userSpaceOnUse">
<stop offset="0.201042" stop-color="#231E33"/>
<stop offset="1" stop-color="#482251"/>
</linearGradient>
<radialGradient id="paint24_radial" cx="0" cy="0" r="1" gradientUnits="userSpaceOnUse" gradientTransform="translate(1064.75 903.304) rotate(94.1849) scale(157.126 419.768)">
<stop offset="0.635417" stop-color="#655BA4"/>
<stop offset="1" stop-color="#BBAFFF"/>
</radialGradient>
</defs>
</svg>
