<svg width="375" height="1060" viewBox="0 0 375 1060" fill="none" xmlns="http://www.w3.org/2000/svg">
<g clip-path="url(#clip0)">
<rect width="375" height="1060" fill="white"/>
<path d="M-312.684 97.8461C-462.899 103.071 -515.819 79.0757 -527.527 62.0659L-323.603 1025.43C-231.125 1043.8 8.6785 1074.73 228.07 1051.48C502.309 1022.41 586.935 952.858 797.833 931.888C1008.73 910.918 1043.52 920.402 1174.23 939.9C1278.79 955.498 1338.71 936.313 1355.6 924.771L1141.3 -87.6193C1066.44 -51.3489 881.523 25.0287 740.743 40.3751C564.767 59.5581 229.976 -11.6008 71.8949 1.58567C-86.1864 14.7721 -127.456 91.403 -312.684 97.8461Z" fill="url(#paint0_linear)"/>
<g filter="url(#filter0_d)">
<path d="M-302.871 144.212C-452.931 150.164 -505.253 128.995 -516.582 113.775L-333.306 979.601C-241.377 995.376 -2.64622 1021.24 216.85 998.475C491.219 970.022 577.161 906.689 788.13 886.055C999.1 865.421 1033.63 873.673 1163.69 890.146C1267.75 903.325 1327.96 885.551 1345.07 875.017L1152.46 -34.8674C1076.97 -1.58433 890.773 68.7287 749.916 83.7167C573.846 102.452 241.142 41.1512 83.0604 54.3376C-75.021 67.5241 -117.832 136.873 -302.871 144.212Z" fill="url(#paint1_linear)"/>
</g>
<ellipse rx="1.7857" ry="1.57953" transform="matrix(0.961312 0.319612 -0.649792 0.737696 20.1058 104.46)" fill="white" fill-opacity="0.3"/>
<ellipse rx="1.7857" ry="1.57953" transform="matrix(0.961312 0.319612 -0.649792 0.737696 44.4408 332.051)" fill="white" fill-opacity="0.3"/>
<ellipse rx="0.93836" ry="1.24502" transform="matrix(0.961312 0.319612 -0.649792 0.737696 44.1827 954.695)" fill="white" fill-opacity="0.3"/>
<ellipse rx="1.40754" ry="1.24502" transform="matrix(0.961312 0.319612 -0.649792 0.737696 211.354 994.66)" fill="white" fill-opacity="0.3"/>
<path d="M13.0767 820.221L14.6206 824.913L20.6463 824.946L15.5749 827.813L17.1189 832.505L12.4406 829.585L7.36914 832.452L9.54921 827.78L4.87091 824.86L10.8966 824.893L13.0767 820.221Z" fill="url(#paint2_linear)" fill-opacity="0.8"/>
<path d="M327.509 973.339L333.297 973.382L335.121 968.52L336.875 973.409L342.663 973.452L337.959 976.43L339.713 981.319L335.052 978.271L330.347 981.249L332.171 976.387L327.509 973.339Z" fill="url(#paint3_linear)" fill-opacity="0.8"/>
<path d="M48.0394 1011.22L47.8135 1006.34L41.972 1005.14L47.6739 1003.32L47.448 998.445L51.1979 1002.2L56.8999 1000.38L53.5155 1004.52L57.2653 1008.27L51.4238 1007.08L48.0394 1011.22Z" fill="url(#paint4_linear)" fill-opacity="0.8"/>
<path d="M11.4786 86.924L21.5635 82.3449L19.5537 73.3357L27.7963 79.5149L37.8811 74.9358L32.8905 83.3338L41.133 89.5131L29.806 88.5241L24.8153 96.9222L22.8056 87.913L11.4786 86.924Z" fill="url(#paint5_linear)"/>
<path d="M168.765 1025.54L178.85 1020.96L176.84 1011.95L185.083 1018.13L195.168 1013.55L190.177 1021.95L198.419 1028.13L187.093 1027.14L182.102 1035.54L180.092 1026.53L168.765 1025.54Z" fill="url(#paint6_linear)"/>
<ellipse rx="1.6772" ry="1.8948" transform="matrix(0.553366 0.848318 0.895601 -0.421475 95.0272 991.055)" fill="#FBA10D" fill-opacity="0.2"/>
<ellipse rx="1.6772" ry="1.8948" transform="matrix(0.553366 0.848318 0.895601 -0.421475 310.625 996.105)" fill="#FBA10D" fill-opacity="0.2"/>
<mask id="mask0" mask-type="alpha" maskUnits="userSpaceOnUse" x="-432" y="833" width="460" height="377">
<path d="M-430.661 998.904L-388.238 1209.36L-100.898 1128.23L26.587 907.285L-45.0771 833.653L-188.318 850.376C-212.169 853.868 -262.673 865.004 -273.881 881.608C-287.891 902.362 -381.94 957.528 -401.26 963.182C-416.717 967.706 -414.643 986.979 -430.661 998.904Z" fill="#C4C4C4" stroke="black"/>
</mask>
<g mask="url(#mask0)">
<path d="M-216.504 887.115C-81.046 841.678 -14.4912 876.119 -65.3441 962.179C-116.197 1048.24 -266.419 1155.39 -401.878 1200.83C-537.336 1246.27 -603.891 1211.83 -553.038 1125.77C-502.185 1039.71 -351.963 932.551 -216.504 887.115Z" stroke="#493A54" stroke-opacity="0.1" stroke-width="7"/>
</g>
<ellipse rx="207.179" ry="182.289" transform="matrix(0.997818 -0.066023 0.0854098 0.996346 182.727 486.583)" fill="#9E8EFF"/>
<mask id="mask1" mask-type="alpha" maskUnits="userSpaceOnUse" x="-25" y="304" width="416" height="365">
<path d="M384.964 473.201C393.305 570.511 310.161 656.295 197.912 663.722C85.6621 671.149 -11.1684 597.274 -19.5101 499.964C-27.8517 402.655 55.2923 316.871 167.542 309.444C279.791 302.016 376.622 375.892 384.964 473.201Z" fill="#FE9695" stroke="#6A72B4" stroke-width="9"/>
</mask>
<g mask="url(#mask1)">
<ellipse rx="19.6378" ry="17.2786" transform="matrix(0.997818 -0.066023 0.0854098 0.996346 193.544 394.977)" fill="#FFCE8E"/>
<rect width="29.4567" height="13.8229" rx="6" transform="matrix(0.997818 -0.066023 0.0854098 0.996346 253.846 385.794)" fill="#FFCE8E"/>
<rect width="66.7686" height="8.63928" rx="4.31964" transform="matrix(0.997818 -0.066023 0.0854098 0.996346 297.398 388.107)" fill="#FFCE8E"/>
<path d="M-55.3636 456.825C-55.7881 451.872 -52.1116 447.592 -47.1519 447.263L87.4904 438.355C89.475 438.223 91.46 438.752 93.1353 439.858L129.666 463.984C131.341 465.091 133.326 465.62 135.311 465.488L311.838 453.808C315.014 453.598 317.81 451.728 319.192 448.891L328.763 429.234C330.094 426.5 332.744 424.657 335.794 424.344L393.115 418.469C398.182 417.95 402.752 421.736 403.187 426.815L405.458 453.311C405.883 458.264 402.206 462.545 397.247 462.873L-43.3149 492.024C-48.2746 492.352 -52.6394 488.603 -53.064 483.651L-55.3636 456.825Z" fill="#FFCE8E"/>
<rect width="206.197" height="22.4621" rx="9" transform="matrix(0.997818 -0.066023 0.0854098 0.996346 -24.1243 499.409)" fill="#FFCE8E"/>
<rect width="60.8773" height="10.3671" rx="5.18357" transform="matrix(0.997818 -0.066023 0.0854098 0.996346 202.103 494.828)" fill="#FFCE8E"/>
<path d="M284.816 585.341C293.642 583.118 301.758 578.795 308.478 572.739L312.054 569.516C313.189 568.493 313.971 567.138 314.291 565.637V565.637C315.724 558.928 320.695 553.583 327.291 551.662L344.965 546.514C361.541 541.685 379.311 542.135 395.823 547.8V547.8L399.512 590.839L247.082 600.925C243.609 601.155 240.552 598.53 240.255 595.061V595.061C239.912 591.068 243.128 587.733 247.141 587.921L266.932 588.846C269.152 588.949 271.369 588.728 273.512 588.188L284.816 585.341Z" fill="#FFCE8E"/>
</g>
<path d="M67.8769 616.285C53.1306 605.683 68.2862 587.261 87.2643 588.807C97.8499 589.67 108.66 589.768 119.616 589.043C225.21 582.056 304.368 501.231 296.42 408.516C295.698 400.09 294.281 391.856 292.222 383.853C288.023 367.529 306.876 351.948 320.758 363.415C354.409 391.213 366.089 430.42 369.83 474.064C377.778 566.779 298.62 647.604 193.026 654.591C141.898 657.974 104.643 642.718 67.8769 616.285Z" fill="#300B00" fill-opacity="0.4"/>
<path fill-rule="evenodd" clip-rule="evenodd" d="M-18.8959 527.922C-21.3965 520.17 -23.1296 511.024 -24.0514 500.271C-24.2011 498.525 -24.3219 496.782 -24.414 495.044C-77.6967 533.342 -104.84 571.736 -92.4533 600.035C-69.0812 653.432 86.1777 650.664 254.327 593.854C422.476 537.044 539.842 447.704 516.469 394.307C501.126 359.253 428.939 348.404 333.58 361.162C340.721 367.685 347.321 374.681 353.311 382.099C410.269 379.444 451.257 389.617 461.446 412.897C480.534 456.504 384.33 529.585 246.568 576.129C108.807 622.672 -18.3429 625.052 -37.4301 581.445C-44.0336 566.359 -36.8378 547.745 -18.8959 527.922Z" fill="url(#paint7_radial)"/>
<ellipse rx="83.2225" ry="27.2478" transform="matrix(1.00029 -0.0292978 0.0378836 0.998358 166.292 414.425)" fill="#725A99" fill-opacity="0.67"/>
<path d="M334.94 232.625C382.801 224.41 414.018 183.649 404.664 141.581C395.31 99.5138 348.927 72.0706 301.066 80.2852C253.205 88.4997 221.988 129.261 231.342 171.329C240.696 213.396 287.078 240.839 334.94 232.625Z" fill="#2A3347"/>
<path d="M402.339 131.219C410.913 169.779 385.392 207.25 344.235 219.551C340.502 220.658 336.625 221.574 332.635 222.259C326.758 223.268 320.903 223.735 315.146 223.718C273.941 223.509 237.243 197.865 229.037 160.963C221.362 126.446 241.02 92.7971 274.773 77.3009C282.143 73.9196 290.195 71.4076 298.765 69.9368C304.092 69.0226 309.416 68.5571 314.648 68.5021C356.477 68.0308 394.03 93.851 402.339 131.219Z" fill="#70C4CB"/>
<path d="M402.339 131.219C410.913 169.779 385.393 207.25 344.236 219.551C343.685 216.524 343.029 213.48 342.333 212.003C340.689 208.555 338.828 200.553 338.061 197.474C337.295 194.395 337.669 181.668 337.669 181.668C337.669 181.668 338.243 167.455 336.731 161.849C335.223 156.261 328.55 146.897 328.55 146.897C328.55 146.897 319.08 137.438 316.036 134.391C312.995 131.362 308.872 127.962 306.967 122.514C305.066 117.083 307.375 112.418 307.451 108.998C307.511 105.598 312.549 96.4109 312.124 90.1885C311.794 85.582 313.658 74.1422 314.648 68.502C356.477 68.0307 394.03 93.8509 402.339 131.219Z" fill="#BED35A"/>
<path d="M315.146 223.719C273.941 223.509 237.243 197.865 229.037 160.963C221.362 126.446 241.02 92.7973 274.773 77.3011C271.898 85.9371 267.123 99.9751 265.193 104.055C262.308 110.074 248.976 118.209 248.156 125.901C247.356 133.589 256.897 146.676 260.955 149.047C264.988 151.403 275.219 153.27 282.905 157.188C290.588 161.089 297.048 165.361 299.356 170.237C301.641 175.1 301.612 188.09 300.924 191.329C300.217 194.571 297.98 196.444 298.858 200.849C299.755 205.25 308.267 211.322 311.291 216.112C312.488 218.005 313.883 220.886 315.146 223.719Z" fill="#BED35A"/>
<path opacity="0.4" d="M274.28 85.9982C313.639 64.9728 364.253 74.2124 391.114 106.172L391.439 105.998C366.106 69.37 311.788 57.7217 270.118 79.9813C228.448 102.241 215.204 149.98 240.537 186.608L240.862 186.434C220.931 150.772 234.92 107.024 274.28 85.9982Z" fill="white"/>
<path d="M100.454 410.529L125.971 415.084C132.57 416.262 138.993 412.517 140.33 406.735L151.919 356.626C153.259 350.832 148.993 345.191 142.408 344.015L116.89 339.46C110.292 338.282 103.868 342.027 102.531 347.809L90.9418 397.918C89.6046 403.7 93.8685 409.353 100.454 410.529Z" fill="#E6E6E6"/>
<path d="M221.118 345.097L123.131 339.934C97.9079 338.605 78.676 319.564 80.1878 297.417L82.585 262.302C84.0969 240.155 105.781 223.271 131.005 224.6L228.992 229.763C254.215 231.092 273.447 250.133 271.935 272.279L269.538 307.395C268.026 329.541 246.342 346.426 221.118 345.097Z" fill="#5A227C"/>
<path d="M209.802 421.571L235.748 419.64C242.458 419.141 247.423 413.96 246.857 408.081L241.944 357.13C241.376 351.239 235.477 346.88 228.781 347.378L202.835 349.309C196.126 349.808 191.16 354.989 191.727 360.868L196.639 411.818C197.206 417.697 203.106 422.069 209.802 421.571Z" fill="#E6E6E6"/>
<path d="M178.143 254.358C133.766 252.02 99.9475 218.538 102.607 179.574C105.267 140.61 143.398 110.92 187.775 113.258C232.152 115.596 265.971 149.078 263.311 188.042C260.651 227.006 222.52 256.697 178.143 254.358Z" fill="#CCCCCC"/>
<path d="M215.799 370.417L128.307 365.807C111.174 364.904 98.1305 351.977 99.1565 336.947L103.537 272.777C105.956 237.342 140.631 210.342 180.988 212.469C223.204 214.694 255.39 246.546 252.859 283.625L248.681 344.825C247.641 359.855 232.932 371.32 215.799 370.417Z" fill="#CCCCCC"/>
<path d="M166.467 297.344L162 300.756L163.813 277.969L167.989 278.226L166.467 297.344Z" fill="#FDCA4A"/>
<path d="M172.288 292.899L167.82 296.311L169.254 278.303L173.429 278.56L172.288 292.899Z" fill="#FFA926"/>
<path d="M178.108 288.454L173.641 291.865L174.694 278.638L178.869 278.894L178.108 288.454Z" fill="#F9872E"/>
<path d="M183.929 284.008L179.462 287.42L180.134 278.972L184.31 279.228L183.929 284.008Z" fill="#FB6B0A"/>
<path d="M189.75 279.562L185.318 282.947L185.608 279.308L189.75 279.562Z" fill="#FB580B"/>
<path d="M187.936 302.35L162 300.756L166.467 297.345L188.228 298.681L187.936 302.35Z" fill="#BD9941"/>
<path d="M188.317 297.57L167.82 296.311L172.288 292.899L188.609 293.902L188.317 297.57Z" fill="#BF842A"/>
<path d="M188.697 292.79L173.641 291.865L178.108 288.454L188.989 289.122L188.697 292.79Z" fill="#BA6C2E"/>
<path d="M189.078 288.01L179.462 287.42L183.929 284.008L189.369 284.342L189.078 288.01Z" fill="#BE5816"/>
<path d="M189.46 283.201L185.318 282.948L189.75 279.563L189.46 283.201Z" fill="#BD4B17"/>
<path d="M179.253 238.089C145.11 236.29 119.091 210.529 121.137 180.551C123.184 150.572 152.521 127.728 186.664 129.527C220.808 131.326 246.827 157.087 244.781 187.066C242.734 217.044 213.397 239.888 179.253 238.089Z" fill="#2B2A70"/>
<path d="M222.774 274.087C221.782 252.966 231.029 235.48 243.428 235.032C255.827 234.584 266.682 251.343 267.674 272.465C268.666 293.586 259.418 311.072 247.02 311.52C234.621 311.968 223.766 295.209 222.774 274.087Z" fill="#5A227C"/>
<path d="M102.682 303.908C90.4332 302.161 83.6311 283.83 87.4892 262.964C91.3473 242.097 104.405 226.598 116.653 228.345C128.902 230.092 135.704 248.423 131.846 269.289C127.988 290.155 114.931 305.654 102.682 303.908Z" fill="#5A227C"/>
<path d="M281.413 259.788L281.041 259.485C278.86 257.745 278.698 254.769 280.68 252.853L283.848 249.794C285.83 247.879 289.22 247.738 291.401 249.478L291.773 249.781C293.954 251.521 294.116 254.497 292.134 256.412L288.966 259.472C286.984 261.387 283.594 261.528 281.413 259.788Z" fill="#CCCCCC"/>
<path d="M273.016 257.683L272.515 257.619C269.593 257.281 267.524 254.931 267.895 252.364L268.497 248.271C268.883 245.705 271.559 243.889 274.482 244.215L274.983 244.278C277.905 244.617 279.974 246.967 279.603 249.533L279.001 253.627C278.628 256.205 275.939 258.009 273.016 257.683Z" fill="#CCCCCC"/>
<path d="M278.668 284.8L261.738 288.735C252.589 290.863 243.197 286.071 240.786 278.038L239.882 275.06C237.457 267.027 242.915 258.781 252.063 256.665L268.992 252.73C278.141 250.601 287.533 255.394 289.944 263.426L290.849 266.405C293.273 274.438 287.817 282.671 278.668 284.8Z" fill="#E6E6E6"/>
<path d="M126.489 256.845L115.121 275.862C112.428 280.387 106.055 282.12 100.915 279.756L97.0128 277.962C91.8589 275.597 89.8848 270.001 92.577 265.488L105.989 243.033C108.682 238.508 115.055 236.775 120.195 239.139C127.51 242.504 130.321 250.435 126.489 256.845Z" fill="#CCCCCC"/>
<path d="M151.659 291.419L106.76 289.053C96.7824 288.527 89.1623 280.996 89.7612 272.223L89.8559 270.837C90.4539 262.076 99.0308 255.386 109.022 255.913L153.921 258.278C163.899 258.804 171.519 266.335 170.92 275.108L170.826 276.495C170.227 285.255 161.651 291.945 151.659 291.419Z" fill="#E6E6E6"/>
<path d="M138.538 256.409L136.132 291.647C136.103 292.076 135.673 292.411 135.184 292.385L133.787 292.312C133.298 292.286 132.917 291.909 132.946 291.479L135.352 256.241C135.381 255.811 135.811 255.477 136.3 255.503L137.697 255.576C138.185 255.614 138.567 255.979 138.538 256.409Z" fill="#B3B3B3"/>
<path d="M134.443 256.193L132.038 291.432C132.009 291.861 131.579 292.195 131.09 292.17L129.692 292.096C129.203 292.07 128.822 291.693 128.852 291.264L131.257 256.025C131.287 255.596 131.716 255.261 132.205 255.287L133.603 255.361C134.091 255.399 134.473 255.764 134.443 256.193Z" fill="#B3B3B3"/>
<path d="M130.154 255.967L127.748 291.205C127.719 291.635 127.289 291.969 126.8 291.943L125.794 291.89C125.305 291.865 124.924 291.487 124.953 291.058L127.359 255.82C127.388 255.39 127.818 255.056 128.307 255.081L129.313 255.135C129.801 255.173 130.183 255.537 130.154 255.967Z" fill="#B3B3B3"/>
<path d="M94.7437 379.256L145.12 388.249C145.6 388.334 145.917 388.755 145.819 389.176L145.293 391.453C145.195 391.875 144.717 392.153 144.237 392.067L93.8606 383.074C93.3804 382.988 93.0634 382.568 93.1609 382.146L93.6874 379.87C93.7877 379.436 94.2635 379.17 94.7437 379.256Z" fill="#B3B3B3"/>
<path d="M93.6099 384.159L143.986 393.152C144.466 393.237 144.783 393.658 144.686 394.079L144.159 396.356C144.062 396.777 143.583 397.056 143.103 396.97L92.7268 387.977C92.2467 387.891 91.9296 387.471 92.0271 387.049L92.5536 384.773C92.6511 384.351 93.1298 384.073 93.6099 384.159Z" fill="#B3B3B3"/>
<path d="M92.4201 389.302L142.796 398.295C143.276 398.38 143.593 398.801 143.496 399.222L143.078 401.029C142.98 401.451 142.502 401.729 142.022 401.643L91.6456 392.65C91.1654 392.564 90.8484 392.144 90.9459 391.723L91.3638 389.916C91.4641 389.482 91.9399 389.216 92.4201 389.302Z" fill="#B3B3B3"/>
<path d="M194.315 392.97L245.538 389.158C246.026 389.122 246.465 389.447 246.506 389.875L246.729 392.19C246.77 392.619 246.4 393.004 245.912 393.041L194.69 396.853C194.202 396.889 193.763 396.564 193.721 396.135L193.498 393.82C193.456 393.379 193.827 393.006 194.315 392.97Z" fill="#B3B3B3"/>
<path d="M194.796 397.955L246.018 394.143C246.506 394.106 246.945 394.431 246.986 394.86L247.21 397.175C247.251 397.604 246.881 397.989 246.392 398.025L195.17 401.837C194.682 401.874 194.243 401.548 194.202 401.12L193.979 398.805C193.938 398.376 194.308 397.991 194.796 397.955Z" fill="#B3B3B3"/>
<path d="M195.3 403.184L246.523 399.372C247.011 399.336 247.45 399.661 247.491 400.09L247.668 401.927C247.709 402.356 247.339 402.741 246.851 402.777L195.629 406.589C195.141 406.625 194.702 406.3 194.66 405.872L194.483 404.035C194.441 403.594 194.812 403.221 195.3 403.184Z" fill="#B3B3B3"/>
<path d="M168.321 145.06C195.43 136.337 195.186 141.026 192.528 138.381C189.967 137.085 177.216 132.649 156.704 142.424C142.067 149.4 137.546 157.33 135.507 164.336C135.06 167.154 135.655 170.478 136.103 172.545C137.063 176.985 141.212 153.782 168.321 145.06Z" fill="#EEEEEE" fill-opacity="0.96"/>
<path d="M131.233 197.724C131.208 198.08 125.807 210.983 124.152 210.896C122.498 210.809 124.437 200.555 124.64 198.878C124.881 196.888 129.429 180.105 131.244 190.214C132.38 195.741 131.257 197.367 131.233 197.724Z" fill="#EEEEEE" fill-opacity="0.95"/>
<path d="M256.421 228.498L261.513 226.891L261.207 222.523L264.661 225.898L269.753 224.29L266.795 227.983L270.248 231.358L264.966 230.266L262.008 233.959L261.702 229.591L256.421 228.498Z" fill="url(#paint8_linear)"/>
<ellipse rx="1.79761" ry="1.56744" transform="matrix(0.899023 0.42524 -0.76055 0.661125 311.808 305.248)" fill="white" fill-opacity="0.3"/>
</g>
<defs>
<filter id="filter0_d" x="-540.107" y="-55.8674" width="1914.17" height="1092.32" filterUnits="userSpaceOnUse" color-interpolation-filters="sRGB">
<feFlood flood-opacity="0" result="BackgroundImageFix"/>
<feColorMatrix in="SourceAlpha" type="matrix" values="0 0 0 0 0 0 0 0 0 0 0 0 0 0 0 0 0 0 127 0" result="hardAlpha"/>
<feOffset dx="4" dy="4"/>
<feGaussianBlur stdDeviation="12.5"/>
<feColorMatrix type="matrix" values="0 0 0 0 0.176471 0 0 0 0 0.0823529 0 0 0 0 0.211765 0 0 0 1 0"/>
<feBlend mode="normal" in2="BackgroundImageFix" result="effect1_dropShadow"/>
<feBlend mode="normal" in="SourceGraphic" in2="effect1_dropShadow" result="shape"/>
</filter>
<linearGradient id="paint0_linear" x1="-421.849" y1="171.73" x2="1407.67" y2="645.525" gradientUnits="userSpaceOnUse">
<stop offset="0.0640018" stop-color="#231E33"/>
<stop offset="1" stop-color="#482251"/>
</linearGradient>
<linearGradient id="paint1_linear" x1="-328.59" y1="52.5865" x2="1410.87" y2="900.753" gradientUnits="userSpaceOnUse">
<stop offset="0.201042" stop-color="#231E33"/>
<stop offset="1" stop-color="#482251"/>
</linearGradient>
<linearGradient id="paint2_linear" x1="5.82892" y1="815.662" x2="26.3557" y2="820.334" gradientUnits="userSpaceOnUse">
<stop stop-color="#FB7A0D"/>
<stop offset="1" stop-color="#FBAE0D"/>
</linearGradient>
<linearGradient id="paint3_linear" x1="320.182" y1="977.943" x2="327.511" y2="960.889" gradientUnits="userSpaceOnUse">
<stop stop-color="#FB7A0D"/>
<stop offset="1" stop-color="#FBAE0D"/>
</linearGradient>
<linearGradient id="paint4_linear" x1="53.8395" y1="1017.06" x2="35.7284" y2="1007.5" gradientUnits="userSpaceOnUse">
<stop stop-color="#FB7A0D"/>
<stop offset="1" stop-color="#FBAE0D"/>
</linearGradient>
<linearGradient id="paint5_linear" x1="3.66915" y1="99.9512" x2="1.65179" y2="67.3906" gradientUnits="userSpaceOnUse">
<stop stop-color="#FB7A0D"/>
<stop offset="1" stop-color="#FBAE0D"/>
</linearGradient>
<linearGradient id="paint6_linear" x1="160.956" y1="1038.57" x2="158.938" y2="1006" gradientUnits="userSpaceOnUse">
<stop stop-color="#FB7A0D"/>
<stop offset="1" stop-color="#FBAE0D"/>
</linearGradient>
<radialGradient id="paint7_radial" cx="0" cy="0" r="1" gradientUnits="userSpaceOnUse" gradientTransform="translate(212.196 497.624) rotate(89.8611) scale(106.459 323.719)">
<stop offset="0.635417" stop-color="#655BA4"/>
<stop offset="1" stop-color="#BBAFFF"/>
</radialGradient>
<linearGradient id="paint8_linear" x1="251.799" y1="234.223" x2="252.642" y2="218.697" gradientUnits="userSpaceOnUse">
<stop stop-color="#FB7A0D"/>
<stop offset="1" stop-color="#FBAE0D"/>
</linearGradient>
<clipPath id="clip0">
<rect width="375" height="1060" fill="white"/>
</clipPath>
</defs>
</svg>
