<svg width="375" height="1208" viewBox="0 0 375 1208" fill="none" xmlns="http://www.w3.org/2000/svg">
<g clip-path="url(#clip0)">
<path d="M-309.682 112.101C-459.897 118.049 -512.817 90.7363 -524.525 71.3754L-320.602 1167.9C-228.124 1188.81 11.6803 1224.01 231.072 1197.54C505.311 1164.46 589.936 1085.29 800.835 1061.43C1011.73 1037.56 1046.52 1048.35 1177.23 1070.54C1281.79 1088.3 1341.71 1066.46 1358.6 1053.32L1144.3 -98.9996C1069.44 -57.7157 884.525 29.2188 743.745 46.6864C567.769 68.5209 232.978 -12.4736 74.8969 2.53549C-83.1845 17.5446 -124.454 104.767 -309.682 112.101Z" fill="url(#paint0_linear)"/>
<g filter="url(#filter0_d)">
<path d="M-299.869 164.876C-449.93 171.651 -502.252 147.556 -513.581 130.232L-330.305 1115.73C-238.376 1133.69 0.355209 1163.12 219.851 1137.22C494.221 1104.83 580.162 1032.74 791.132 1009.26C1002.1 985.772 1036.63 995.164 1166.7 1013.91C1270.75 1028.91 1330.97 1008.68 1348.07 996.694L1155.47 -38.9565C1079.97 -1.07298 893.774 78.9589 752.918 96.0185C576.847 117.343 244.143 47.5695 86.0619 62.5786C-72.0195 77.5877 -114.831 156.522 -299.869 164.876Z" fill="url(#paint1_linear)"/>
</g>
<ellipse rx="1.83543" ry="1.67702" transform="matrix(0.93527 0.353934 -0.612015 0.790846 23.1075 119.63)" fill="white" fill-opacity="0.3"/>
<ellipse rx="1.83543" ry="1.67702" transform="matrix(0.93527 0.353934 -0.612015 0.790846 47.4425 378.681)" fill="white" fill-opacity="0.3"/>
<ellipse rx="0.964488" ry="1.32187" transform="matrix(0.93527 0.353934 -0.612015 0.790846 47.1844 1087.39)" fill="white" fill-opacity="0.3"/>
<ellipse rx="1.44673" ry="1.32187" transform="matrix(0.93527 0.353934 -0.612015 0.790846 214.356 1132.88)" fill="white" fill-opacity="0.3"/>
<path d="M16.0776 934.335L17.6215 939.675L23.6472 939.713L18.5758 942.976L20.1198 948.317L15.4415 944.993L10.37 948.256L12.5501 942.939L7.87181 939.614L13.8975 939.652L16.0776 934.335Z" fill="url(#paint2_linear)" fill-opacity="0.8"/>
<path d="M330.509 1108.62L336.298 1108.67L338.121 1103.13L339.875 1108.7L345.663 1108.75L340.959 1112.14L342.713 1117.7L338.052 1114.23L333.348 1117.62L335.171 1112.09L330.509 1108.62Z" fill="url(#paint3_linear)" fill-opacity="0.8"/>
<path d="M51.0399 1151.73L50.814 1146.17L44.9725 1144.81L50.6744 1142.74L50.4485 1137.19L54.1984 1141.46L59.9004 1139.39L56.516 1144.1L60.2658 1148.38L54.4243 1147.02L51.0399 1151.73Z" fill="url(#paint4_linear)" fill-opacity="0.8"/>
<path d="M14.4792 99.6791L24.564 94.467L22.5543 84.2125L30.7968 91.2458L40.8817 86.0338L35.891 95.5926L44.1335 102.626L32.8066 101.5L27.8159 111.059L25.8061 100.805L14.4792 99.6791Z" fill="url(#paint5_linear)"/>
<path d="M171.766 1168.03L181.85 1162.82L179.841 1152.56L188.083 1159.6L198.168 1154.38L193.177 1163.94L201.42 1170.98L190.093 1169.85L185.102 1179.41L183.093 1169.15L171.766 1168.03Z" fill="url(#paint6_linear)"/>
<ellipse rx="1.86656" ry="1.92511" transform="matrix(0.497229 0.867619 0.881502 -0.47218 98.0277 1128.78)" fill="#FBA10D" fill-opacity="0.2"/>
<ellipse rx="1.86656" ry="1.92511" transform="matrix(0.497229 0.867619 0.881502 -0.47218 313.625 1134.53)" fill="#FBA10D" fill-opacity="0.2"/>
<path d="M57.4262 143.586L63.3473 141.61L62.9917 136.238L67.0067 140.388L72.9278 138.411L69.4881 142.953L73.503 147.102L67.3622 145.759L63.9225 150.301L63.567 144.929L57.4262 143.586Z" fill="url(#paint7_linear)"/>
<path d="M193.845 86.7943L198.896 85.1081L198.593 80.5261L202.018 84.066L207.068 82.3798L204.134 86.2538L207.559 89.7937L202.321 88.648L199.387 92.522L199.083 87.94L193.845 86.7943Z" fill="url(#paint8_linear)"/>
<ellipse rx="2.10102" ry="1.88284" transform="matrix(0.894326 0.447415 -0.736149 0.67682 95.0823 121.284)" fill="white" fill-opacity="0.3"/>
<ellipse rx="2.10102" ry="1.88284" transform="matrix(0.894326 0.447415 -0.736149 0.67682 238.092 86.7118)" fill="white" fill-opacity="0.3"/>
<ellipse rx="2.10102" ry="1.88284" transform="matrix(0.894326 0.447416 -0.736149 0.67682 245.068 358.971)" fill="white" fill-opacity="0.3"/>
<ellipse rx="2.03935" ry="2.21928" transform="matrix(0.402905 0.915242 0.944035 -0.329846 54.0403 132.472)" fill="#FBA10D" fill-opacity="0.2"/>
<mask id="mask0" mask-type="alpha" maskUnits="userSpaceOnUse" x="-447" y="941" width="515" height="439">
<path d="M-427.659 1137.7L-385.237 1377.25L-97.8968 1284.9L29.5884 1033.42L-42.0756 949.613L-185.317 968.647C-209.167 972.622 -259.671 985.297 -270.879 1004.2C-284.89 1027.82 -378.938 1090.61 -398.259 1097.05C-413.715 1102.19 -411.641 1124.13 -427.659 1137.7Z" fill="#C4C4C4" stroke="black"/>
</mask>
<g mask="url(#mask0)">
<path d="M-213.433 1010.33C-77.9281 958.595 -11.2926 997.791 -62.198 1095.85C-113.103 1193.91 -263.44 1315.94 -398.946 1367.68C-534.451 1419.41 -601.087 1380.21 -550.181 1282.16C-499.276 1184.1 -348.939 1062.06 -213.433 1010.33Z" stroke="#493A54" stroke-opacity="0.1" stroke-width="7"/>
</g>
<circle cx="185.676" cy="554.573" r="207.312" transform="rotate(-4.30699 185.676 554.573)" fill="#9E8EFF"/>
<mask id="mask1" mask-type="alpha" maskUnits="userSpaceOnUse" x="-37" y="332" width="445" height="445">
<circle cx="185.676" cy="554.573" r="202.812" transform="rotate(-4.30699 185.676 554.573)" fill="#FE9695" stroke="#6A72B4" stroke-width="9"/>
</mask>
<g mask="url(#mask1)">
<circle cx="196.544" cy="450.297" r="19.6505" transform="rotate(-4.30699 196.544 450.297)" fill="#FFCE8E"/>
<rect x="256.845" y="439.844" width="29.4757" height="15.7204" rx="6" transform="rotate(-4.30699 256.845 439.844)" fill="#FFCE8E"/>
<rect x="300.397" y="442.476" width="66.8116" height="9.82523" rx="4.91262" transform="rotate(-4.30699 300.397 442.476)" fill="#FFCE8E"/>
<path d="M-52.4567 519.459C-52.83 514.502 -49.1145 510.182 -44.158 509.808L90.1743 499.691C92.351 499.528 94.5132 500.16 96.2581 501.472L132.542 528.748C134.287 530.059 136.449 530.692 138.626 530.528L314.513 517.282C317.861 517.029 320.791 514.934 322.112 511.847L331.848 489.087C333.117 486.121 335.876 484.061 339.08 483.687L396.077 477.038C401.157 476.445 405.71 480.201 406.094 485.302L408.551 517.924C408.924 522.88 405.209 527.201 400.252 527.574L-40.321 560.755C-45.2776 561.129 -49.5982 557.413 -49.9715 552.457L-52.4567 519.459Z" fill="#FFCE8E"/>
<rect x="-21.1248" y="569.162" width="206.33" height="25.5456" rx="9" transform="rotate(-4.30699 -21.1248 569.162)" fill="#FFCE8E"/>
<rect x="205.103" y="563.948" width="60.9165" height="11.7903" rx="5.89514" transform="rotate(-4.30699 205.103 563.948)" fill="#FFCE8E"/>
<path d="M286.538 667.337C296.179 664.574 304.931 659.343 311.932 652.162L315.02 648.993C316.18 647.804 316.962 646.299 317.268 644.666V644.666C318.713 636.96 324.229 630.647 331.671 628.18L347.582 622.904C364.296 617.363 382.421 617.836 398.823 624.242V624.242L402.512 673.229L250.88 684.649C246.966 684.944 243.554 682.01 243.259 678.095V678.095C242.916 673.541 246.652 669.722 251.212 669.964L269.581 670.942C272.03 671.072 274.482 670.794 276.839 670.118L286.538 667.337Z" fill="#FFCE8E"/>
</g>
<path d="M70.8764 702.194C56.1301 690.127 71.2857 669.158 90.2638 670.918C100.849 671.9 111.659 672.012 122.615 671.187C228.209 663.234 307.367 571.237 299.419 465.706C298.697 456.116 297.28 446.743 295.222 437.635C291.023 419.055 309.876 401.32 323.757 414.371C357.409 446.012 369.089 490.638 372.83 540.314C380.778 645.845 301.62 737.842 196.026 745.795C144.897 749.645 107.643 732.281 70.8764 702.194Z" fill="#300B00" fill-opacity="0.4"/>
<path fill-rule="evenodd" clip-rule="evenodd" d="M-15.896 601.616C-18.3968 592.793 -20.1301 582.382 -21.0519 570.142C-21.2016 568.155 -21.3223 566.172 -21.4144 564.194C-74.6971 607.785 -101.84 651.486 -89.4536 683.697C-66.0816 744.474 89.1773 741.324 257.327 676.661C425.476 611.999 542.841 510.31 519.469 449.533C504.126 409.633 431.94 397.285 336.581 411.806C343.722 419.23 350.322 427.194 356.311 435.638C413.269 432.615 454.256 444.195 464.446 470.692C483.533 520.327 387.329 603.509 249.568 656.486C111.807 709.463 -15.3433 712.172 -34.4305 662.538C-41.034 645.366 -33.8381 624.178 -15.896 601.616Z" fill="url(#paint9_radial)"/>
<ellipse cx="169.292" cy="472.429" rx="83.2926" ry="30.9804" transform="rotate(-1.90941 169.292 472.429)" fill="#725A99" fill-opacity="0.67"/>
<path d="M337.94 265.502C385.802 256.152 417.018 209.756 407.664 161.874C398.31 113.992 351.928 82.7558 304.066 92.1058C256.205 101.456 224.988 147.851 234.342 195.734C243.696 243.616 290.079 274.852 337.94 265.502Z" fill="#2A3347"/>
<path d="M405.339 150.08C413.913 193.97 388.393 236.62 347.236 250.621C343.503 251.881 339.625 252.924 335.635 253.704C329.758 254.852 323.904 255.383 318.146 255.365C276.941 255.126 240.243 225.937 232.038 183.935C224.362 144.647 244.02 106.347 277.773 88.709C285.143 84.8605 293.195 82.0012 301.765 80.3271C307.092 79.2865 312.416 78.7567 317.648 78.6941C359.477 78.1576 397.03 107.547 405.339 150.08Z" fill="#70C4CB"/>
<path d="M405.34 150.08C413.914 193.969 388.393 236.62 347.236 250.621C346.685 247.176 346.029 243.712 345.333 242.031C343.689 238.106 341.828 228.997 341.062 225.492C340.295 221.988 340.669 207.502 340.669 207.502C340.669 207.502 341.243 191.324 339.731 184.944C338.223 178.584 331.55 167.924 331.55 167.924C331.55 167.924 322.08 157.158 319.036 153.691C315.995 150.243 311.872 146.373 309.967 140.172C308.066 133.99 310.375 128.681 310.451 124.787C310.511 120.917 315.549 110.461 315.125 103.378C314.794 98.1349 316.658 85.1139 317.648 78.694C359.477 78.1576 397.031 107.547 405.34 150.08Z" fill="#BED35A"/>
<path d="M318.146 255.365C276.941 255.126 240.243 225.937 232.038 183.935C224.362 144.647 244.02 106.347 277.773 88.7092C274.898 98.5389 270.123 114.517 268.194 119.161C265.308 126.012 251.976 135.272 251.156 144.026C250.356 152.777 259.898 167.673 263.955 170.371C267.989 173.054 278.219 175.179 285.905 179.638C293.588 184.078 300.048 188.94 302.356 194.491C304.642 200.026 304.612 214.812 303.924 218.498C303.217 222.189 300.98 224.32 301.858 229.334C302.755 234.344 311.267 241.255 314.291 246.707C315.488 248.862 316.883 252.141 318.146 255.365Z" fill="#BED35A"/>
<path opacity="0.4" d="M277.28 98.6087C316.64 74.6771 367.253 85.1938 394.114 121.571L394.439 121.373C369.107 79.6821 314.789 66.4238 273.118 91.7601C231.448 117.096 218.204 171.434 243.537 213.125L243.862 212.927C223.931 172.336 237.92 122.54 277.28 98.6087Z" fill="white"/>
<path d="M103.453 467.999L128.971 473.184C135.569 474.525 141.993 470.262 143.33 463.681L154.919 406.646C156.259 400.051 151.993 393.63 145.408 392.292L119.89 387.107C113.291 385.767 106.868 390.029 105.531 396.61L93.9417 453.646C92.6044 460.227 96.8683 466.661 103.453 467.999Z" fill="#E6E6E6"/>
<path d="M224.118 393.523L126.131 387.647C100.908 386.134 81.6758 364.461 83.1876 339.253L85.5848 299.284C87.0967 274.076 108.781 254.858 134.005 256.371L231.992 262.247C257.215 263.76 276.447 285.433 274.935 310.641L272.538 350.61C271.026 375.818 249.342 395.036 224.118 393.523Z" fill="#5A227C"/>
<path d="M212.802 480.568L238.748 478.37C245.457 477.802 250.423 471.905 249.856 465.214L244.944 407.22C244.376 400.515 238.477 395.553 231.781 396.12L205.835 398.318C199.125 398.886 194.16 404.782 194.726 411.474L199.639 469.467C200.205 476.159 206.106 481.135 212.802 480.568Z" fill="#E6E6E6"/>
<path d="M181.143 290.243C136.766 287.581 102.947 249.471 105.607 205.122C108.267 160.772 146.398 126.978 190.775 129.639C235.152 132.301 268.97 170.411 266.311 214.76C263.651 259.11 225.52 292.904 181.143 290.243Z" fill="#CCCCCC"/>
<path d="M218.799 422.343L131.307 417.096C114.174 416.068 101.13 401.354 102.157 384.247L106.537 311.207C108.956 270.874 143.631 240.143 183.988 242.564C226.204 245.096 258.39 281.35 255.858 323.554L251.68 393.214C250.64 410.321 235.932 423.371 218.799 422.343Z" fill="#CCCCCC"/>
<path d="M169.467 339.171L164.999 343.054L166.813 317.117L170.988 317.409L169.467 339.171Z" fill="#FDCA4A"/>
<path d="M175.287 334.111L170.82 337.994L172.253 317.498L176.429 317.79L175.287 334.111Z" fill="#FFA926"/>
<path d="M181.108 329.051L176.641 332.934L177.694 317.878L181.869 318.17L181.108 329.051Z" fill="#F9872E"/>
<path d="M186.929 323.991L182.462 327.874L183.134 318.258L187.309 318.55L186.929 323.991Z" fill="#FB6B0A"/>
<path d="M192.75 318.931L188.317 322.784L188.608 318.641L192.75 318.931Z" fill="#FB580B"/>
<path d="M190.936 344.867L164.999 343.054L169.467 339.17L191.228 340.692L190.936 344.867Z" fill="#BD9941"/>
<path d="M191.316 339.427L170.82 337.994L175.287 334.111L191.608 335.252L191.316 339.427Z" fill="#BF842A"/>
<path d="M191.697 333.987L176.641 332.934L181.108 329.051L191.989 329.812L191.697 333.987Z" fill="#BA6C2E"/>
<path d="M192.077 328.547L182.462 327.874L186.929 323.991L192.369 324.371L192.077 328.547Z" fill="#BE5816"/>
<path d="M192.46 323.073L188.317 322.784L192.75 318.931L192.46 323.073Z" fill="#BD4B17"/>
<path d="M182.253 271.725C148.11 269.677 122.09 240.355 124.137 206.233C126.183 172.111 155.521 146.11 189.664 148.158C223.808 150.205 249.827 179.527 247.781 213.649C245.734 247.771 216.396 273.772 182.253 271.725Z" fill="#2B2A70"/>
<path d="M225.774 312.699C224.782 288.658 234.029 268.755 246.428 268.245C258.827 267.735 269.682 286.811 270.673 310.852C271.665 334.893 262.418 354.796 250.019 355.306C237.621 355.815 226.766 336.74 225.774 312.699Z" fill="#5A227C"/>
<path d="M105.682 346.641C93.4329 344.653 86.6308 323.788 90.4889 300.037C94.347 276.287 107.404 258.646 119.653 260.634C131.902 262.622 138.704 283.487 134.846 307.237C130.988 330.987 117.931 348.629 105.682 346.641Z" fill="#5A227C"/>
<path d="M284.413 296.423L284.041 296.078C281.86 294.097 281.698 290.71 283.68 288.53L286.848 285.048C288.83 282.868 292.22 282.707 294.401 284.688L294.773 285.032C296.954 287.013 297.116 290.401 295.134 292.581L291.966 296.063C289.984 298.242 286.594 298.404 284.413 296.423Z" fill="#CCCCCC"/>
<path d="M276.016 294.027L275.515 293.955C272.593 293.569 270.524 290.894 270.895 287.973L271.497 283.314C271.883 280.394 274.559 278.326 277.482 278.697L277.983 278.769C280.905 279.155 282.974 281.83 282.603 284.751L282.001 289.41C281.628 292.345 278.939 294.398 276.016 294.027Z" fill="#CCCCCC"/>
<path d="M281.668 324.892L264.738 329.371C255.589 331.793 246.197 326.339 243.786 317.196L242.882 313.806C240.457 304.662 245.914 295.277 255.063 292.868L271.992 288.389C281.141 285.967 290.533 291.421 292.944 300.564L293.849 303.954C296.273 313.098 290.817 322.469 281.668 324.892Z" fill="#E6E6E6"/>
<path d="M129.489 293.073L118.121 314.719C115.428 319.869 109.055 321.842 103.915 319.151L100.013 317.109C94.8587 314.417 92.8846 308.047 95.5768 302.911L108.989 277.352C111.682 272.201 118.055 270.229 123.195 272.92C130.51 276.75 133.321 285.777 129.489 293.073Z" fill="#CCCCCC"/>
<path d="M154.659 332.426L109.76 329.733C99.7823 329.134 92.1622 320.562 92.7611 310.577L92.8558 308.999C93.4538 299.027 102.031 291.413 112.022 292.012L156.921 294.705C166.899 295.303 174.519 303.875 173.92 313.861L173.825 315.439C173.227 325.41 164.65 333.025 154.659 332.426Z" fill="#E6E6E6"/>
<path d="M141.538 292.577L139.132 332.686C139.103 333.174 138.673 333.555 138.184 333.526L136.787 333.442C136.298 333.413 135.917 332.983 135.946 332.495L138.352 292.386C138.381 291.897 138.81 291.516 139.3 291.545L140.697 291.629C141.185 291.673 141.567 292.088 141.538 292.577Z" fill="#B3B3B3"/>
<path d="M137.443 292.331L135.038 332.44C135.009 332.929 134.579 333.31 134.09 333.28L132.692 333.197C132.203 333.167 131.822 332.738 131.852 332.249L134.257 292.14C134.287 291.651 134.716 291.271 135.205 291.3L136.603 291.384C137.091 291.427 137.473 291.842 137.443 292.331Z" fill="#B3B3B3"/>
<path d="M133.153 292.074L130.748 332.183C130.719 332.672 130.289 333.052 129.8 333.023L128.794 332.963C128.305 332.933 127.924 332.504 127.953 332.015L130.359 291.906C130.388 291.417 130.817 291.037 131.307 291.066L132.313 291.126C132.801 291.17 133.183 291.585 133.153 292.074Z" fill="#B3B3B3"/>
<path d="M97.7435 432.403L148.12 442.64C148.6 442.737 148.917 443.216 148.819 443.696L148.293 446.287C148.195 446.767 147.717 447.083 147.236 446.986L96.8604 436.75C96.3802 436.652 96.0632 436.174 96.1607 435.694L96.6872 433.103C96.7875 432.609 97.2634 432.306 97.7435 432.403Z" fill="#B3B3B3"/>
<path d="M96.6097 437.984L146.986 448.22C147.466 448.318 147.783 448.796 147.685 449.276L147.159 451.867C147.061 452.347 146.583 452.664 146.103 452.566L95.7266 442.33C95.2464 442.233 94.9294 441.754 95.0269 441.274L95.5534 438.683C95.6509 438.203 96.1296 437.887 96.6097 437.984Z" fill="#B3B3B3"/>
<path d="M95.4198 443.838L145.796 454.075C146.276 454.172 146.593 454.651 146.496 455.13L146.078 457.187C145.98 457.667 145.502 457.984 145.021 457.886L94.6453 447.65C94.1652 447.552 93.8481 447.074 93.9456 446.594L94.3635 444.537C94.4638 444.044 94.9397 443.741 95.4198 443.838Z" fill="#B3B3B3"/>
<path d="M197.315 448.013L248.537 443.675C249.026 443.633 249.464 444.003 249.506 444.491L249.729 447.126C249.77 447.614 249.4 448.053 248.912 448.094L197.69 452.433C197.201 452.474 196.763 452.104 196.721 451.616L196.498 448.981C196.456 448.479 196.827 448.055 197.315 448.013Z" fill="#B3B3B3"/>
<path d="M197.796 453.687L249.018 449.348C249.506 449.307 249.945 449.677 249.986 450.165L250.21 452.8C250.251 453.288 249.881 453.726 249.392 453.768L198.17 458.106C197.682 458.148 197.243 457.778 197.202 457.29L196.979 454.655C196.938 454.167 197.308 453.728 197.796 453.687Z" fill="#B3B3B3"/>
<path d="M198.3 459.64L249.523 455.301C250.011 455.26 250.45 455.63 250.491 456.118L250.668 458.209C250.709 458.697 250.339 459.135 249.851 459.177L198.629 463.515C198.141 463.557 197.702 463.187 197.66 462.699L197.483 460.608C197.441 460.106 197.812 459.681 198.3 459.64Z" fill="#B3B3B3"/>
<path d="M171.321 165.837C198.43 155.909 198.186 161.246 195.528 158.236C192.967 156.76 180.216 151.711 159.704 162.837C145.066 170.777 140.545 179.803 138.507 187.777C138.059 190.986 138.655 194.768 139.102 197.121C140.063 202.175 144.211 175.765 171.321 165.837Z" fill="#EEEEEE" fill-opacity="0.96"/>
<path d="M135.23 210.305C135.208 210.661 129.917 223.538 128.263 223.439C126.609 223.339 128.462 213.09 128.651 211.413C128.876 209.423 133.283 192.657 135.179 202.788C136.36 208.328 135.251 209.949 135.23 210.305Z" fill="#EEEEEE" fill-opacity="0.95"/>
<path d="M259.42 260.808L264.513 258.979L264.207 254.007L267.66 257.848L272.753 256.019L269.795 260.222L273.248 264.063L267.966 262.82L265.008 267.023L264.702 262.052L259.42 260.808Z" fill="url(#paint10_linear)"/>
<ellipse rx="1.83543" ry="1.67702" transform="matrix(0.8805 0.474046 -0.710854 0.703339 314.808 348.166)" fill="white" fill-opacity="0.3"/>
</g>
<defs>
<filter id="filter0_d" x="-537.105" y="-59.9565" width="1914.17" height="1236.39" filterUnits="userSpaceOnUse" color-interpolation-filters="sRGB">
<feFlood flood-opacity="0" result="BackgroundImageFix"/>
<feColorMatrix in="SourceAlpha" type="matrix" values="0 0 0 0 0 0 0 0 0 0 0 0 0 0 0 0 0 0 127 0" result="hardAlpha"/>
<feOffset dx="4" dy="4"/>
<feGaussianBlur stdDeviation="12.5"/>
<feColorMatrix type="matrix" values="0 0 0 0 0.176471 0 0 0 0 0.0823529 0 0 0 0 0.211765 0 0 0 1 0"/>
<feBlend mode="normal" in2="BackgroundImageFix" result="effect1_dropShadow"/>
<feBlend mode="normal" in="SourceGraphic" in2="effect1_dropShadow" result="shape"/>
</filter>
<linearGradient id="paint0_linear" x1="-418.847" y1="196.197" x2="1437.29" y2="618.512" gradientUnits="userSpaceOnUse">
<stop offset="0.0640018" stop-color="#231E33"/>
<stop offset="1" stop-color="#482251"/>
</linearGradient>
<linearGradient id="paint1_linear" x1="-325.589" y1="60.5854" x2="1493.59" y2="839.904" gradientUnits="userSpaceOnUse">
<stop offset="0.201042" stop-color="#231E33"/>
<stop offset="1" stop-color="#482251"/>
</linearGradient>
<linearGradient id="paint2_linear" x1="8.82982" y1="929.146" x2="29.5898" y2="933.297" gradientUnits="userSpaceOnUse">
<stop stop-color="#FB7A0D"/>
<stop offset="1" stop-color="#FBAE0D"/>
</linearGradient>
<linearGradient id="paint3_linear" x1="323.182" y1="1113.86" x2="332.259" y2="1095.3" gradientUnits="userSpaceOnUse">
<stop stop-color="#FB7A0D"/>
<stop offset="1" stop-color="#FBAE0D"/>
</linearGradient>
<linearGradient id="paint4_linear" x1="56.8399" y1="1158.38" x2="37.7804" y2="1149.54" gradientUnits="userSpaceOnUse">
<stop stop-color="#FB7A0D"/>
<stop offset="1" stop-color="#FBAE0D"/>
</linearGradient>
<linearGradient id="paint5_linear" x1="6.6697" y1="114.507" x2="4.05907" y2="77.4875" gradientUnits="userSpaceOnUse">
<stop stop-color="#FB7A0D"/>
<stop offset="1" stop-color="#FBAE0D"/>
</linearGradient>
<linearGradient id="paint6_linear" x1="163.956" y1="1182.86" x2="161.345" y2="1145.84" gradientUnits="userSpaceOnUse">
<stop stop-color="#FB7A0D"/>
<stop offset="1" stop-color="#FBAE0D"/>
</linearGradient>
<linearGradient id="paint7_linear" x1="52.0532" y1="150.626" x2="53.1489" y2="131.54" gradientUnits="userSpaceOnUse">
<stop stop-color="#FB7A0D"/>
<stop offset="1" stop-color="#FBAE0D"/>
</linearGradient>
<linearGradient id="paint8_linear" x1="189.262" y1="92.7997" x2="190.196" y2="76.5187" gradientUnits="userSpaceOnUse">
<stop stop-color="#FB7A0D"/>
<stop offset="1" stop-color="#FBAE0D"/>
</linearGradient>
<radialGradient id="paint9_radial" cx="0" cy="0" r="1" gradientUnits="userSpaceOnUse" gradientTransform="translate(215.195 567.13) rotate(89.8779) scale(121.173 323.72)">
<stop offset="0.635417" stop-color="#655BA4"/>
<stop offset="1" stop-color="#BBAFFF"/>
</radialGradient>
<linearGradient id="paint10_linear" x1="254.799" y1="267.325" x2="255.89" y2="249.668" gradientUnits="userSpaceOnUse">
<stop stop-color="#FB7A0D"/>
<stop offset="1" stop-color="#FBAE0D"/>
</linearGradient>
<clipPath id="clip0">
<rect width="375" height="1208" fill="white"/>
</clipPath>
</defs>
</svg>
