<svg width="181" height="40" viewBox="0 0 181 40" fill="none" xmlns="http://www.w3.org/2000/svg">
<g clip-path="url(#clip0)">
<path d="M60.083 9.13184L56.2744 29.0254H53.3164L49.5205 9.13184H52.5039L54.7256 22.7539C54.7425 23.1432 54.7679 23.7103 54.8018 24.4551C54.7933 24.0658 54.8187 23.4987 54.8779 22.7539L57.1123 9.13184H60.083ZM64.5771 14.3369H61.6699V11.3408H64.5771V14.3369ZM64.5518 29H61.6953V16.1777H64.5518V29ZM74.9873 29H72.207V28.5557C71.5469 28.6572 70.8867 28.7588 70.2266 28.8604C69.3633 28.9873 68.7074 29.0508 68.2588 29.0508C67.2008 29.0508 66.6719 28.5303 66.6719 27.4893V22.8682C66.6719 21.8102 67.2178 21.2812 68.3096 21.2812H72.2324V18.3359H69.4521V20.1641H66.8242V17.7646C66.8242 16.7067 67.3701 16.1777 68.4619 16.1777H73.375C74.4499 16.1777 74.9873 16.7067 74.9873 17.7646V29ZM72.2324 26.6895V23.249H69.4521V26.791L72.2324 26.6895ZM85.1689 21.5352H82.2871V18.6025L79.9893 18.6533V29H77.082V16.1777H79.9893V16.6475C80.5902 16.5374 81.1868 16.4274 81.7793 16.3174C82.4987 16.1904 83.0996 16.127 83.582 16.127C84.64 16.127 85.1689 16.6475 85.1689 17.6885V21.5352ZM95.3379 29H92.4434V28.5557C91.7747 28.6657 91.1019 28.7757 90.4248 28.8857C89.6038 29.0127 88.9268 29.0762 88.3936 29.0762C87.3356 29.0762 86.8066 28.5472 86.8066 27.4893V16.1777H89.6885V26.5879L92.4434 26.5244V16.1777H95.3379V29ZM106.002 29H103.082V18.6025L100.353 18.6533V29H97.4453V16.1777H100.353V16.6475C101.03 16.5374 101.702 16.4316 102.371 16.3301C103.201 16.1947 103.882 16.127 104.415 16.127C105.473 16.127 106.002 16.6475 106.002 17.6885V29ZM116.374 27.4131C116.374 28.471 115.828 29 114.736 29H109.722C108.63 29 108.084 28.471 108.084 27.4131V17.7646C108.084 16.7067 108.63 16.1777 109.722 16.1777H114.736C115.828 16.1777 116.374 16.7067 116.374 17.7646V22.4746L115.574 23.2744H110.864V26.8672H113.594V24.7344H116.374V27.4131ZM113.594 21.3828V18.3105H110.864V21.3828H113.594ZM131.913 27.4131C131.913 28.471 131.376 29 130.301 29H125.413C124.338 29 123.801 28.471 123.801 27.4131V24.6582H126.581V26.8164H129.133V24.7852L124.677 22.1572C124.093 21.8102 123.801 21.3447 123.801 20.7607V17.7646C123.801 16.7067 124.347 16.1777 125.438 16.1777H130.275C131.35 16.1777 131.888 16.7067 131.888 17.7646V20.3418H129.133V18.3613H126.581V20.2148L131.024 22.8174C131.617 23.1559 131.913 23.6299 131.913 24.2393V27.4131ZM139.492 29H136.268C135.193 29 134.655 28.471 134.655 27.4131V18.6533H133.284V16.1777H134.655V12.6992H137.55V16.1777H139.416V18.6533H137.55V26.5244H139.492V29ZM149.648 29H146.754V28.5557C146.085 28.6657 145.412 28.7757 144.735 28.8857C143.914 29.0127 143.237 29.0762 142.704 29.0762C141.646 29.0762 141.117 28.5472 141.117 27.4893V16.1777H143.999V26.5879L146.754 26.5244V16.1777H149.648V29ZM160.262 29H157.367V28.5557C155.404 28.9027 154.303 29.0762 154.066 29.0762C153.339 29.0762 152.767 28.8646 152.353 28.4414C151.938 28.0098 151.73 27.4258 151.73 26.6895V18.7549C151.73 17.7139 152.103 16.9902 152.848 16.584C153.389 16.2793 154.21 16.127 155.311 16.127C155.556 16.127 155.911 16.1354 156.377 16.1523C156.842 16.1693 157.173 16.1777 157.367 16.1777V9.13184H160.262V29ZM157.367 26.499V18.6025H155.577C154.934 18.6025 154.612 18.9242 154.612 19.5674V25.6992C154.612 26.3255 154.917 26.6387 155.526 26.6387C155.67 26.6387 156.284 26.5921 157.367 26.499ZM171.053 16.1777L167.841 28.835L166.609 33.6846H163.639L164.972 28.8984L161.722 16.1777H164.705L166.394 24.6074L168.082 16.1777H171.053Z" fill="#FDCA4A"/>
</g>
<path d="M33.5608 6.43913L39.9999 0L39.9999 40H33.5608L33.5608 6.43913Z" fill="#FDCA4A"/>
<path d="M25.1707 14.8294L31.6098 8.39022L31.6098 40H25.1707L25.1707 14.8294Z" fill="#FFA926"/>
<path d="M16.7805 23.2196L23.2197 16.7804L23.2197 40H16.7805V23.2196Z" fill="#F9872E"/>
<path d="M8.39026 31.6098L14.8294 25.1707L14.8294 40L8.39026 40L8.39026 31.6098Z" fill="#FB6B0A"/>
<path d="M0 40L6.38862 33.6114L6.38718 40L0 40Z" fill="#FB580B"/>
<path d="M0 5.03803e-05L40 4.57764e-05L33.5608 6.43918L1.09618e-06 6.43918L0 5.03803e-05Z" fill="#BD9941"/>
<path d="M6.57706e-07 8.39022L31.6098 8.39022L25.1706 14.8294L0 14.8294L6.57706e-07 8.39022Z" fill="#BF842A"/>
<path d="M1.75388e-06 16.7804L23.2195 16.7804L16.7804 23.2195H0L1.75388e-06 16.7804Z" fill="#BA6C2E"/>
<path d="M2.19235e-07 25.1706L14.8293 25.1706L8.39021 31.6097L0 31.6097L2.19235e-07 25.1706Z" fill="#BE5816"/>
<path d="M1.75388e-06 33.6127L6.38862 33.6113L0 39.9999L1.75388e-06 33.6127Z" fill="#BD4B17"/>
<defs>
<clipPath id="clip0">
<rect width="138" height="24" fill="white" transform="translate(43 8)"/>
</clipPath>
</defs>
</svg>
