<svg width="375" height="870" viewBox="0 0 375 870" fill="none" xmlns="http://www.w3.org/2000/svg">
<mask id="mask0" mask-type="alpha" maskUnits="userSpaceOnUse" x="0" y="0" width="375" height="870">
<path d="M375 0H0V870H375V0Z" fill="#C4C4C4"/>
</mask>
<g mask="url(#mask0)">
<mask id="mask1" mask-type="alpha" maskUnits="userSpaceOnUse" x="-428" y="-50" width="1931" height="970">
<path d="M1502.82 -50H-427.021V920H1502.82V-50Z" fill="#C4C4C4"/>
</mask>
<g mask="url(#mask1)">
<path fill-rule="evenodd" clip-rule="evenodd" d="M1681.17 239.192C1667.29 339.165 1978.06 641.664 1831.34 718.532C1678.52 798.592 1525.66 867.867 1224.19 897.885C921.044 928.072 761.611 842.444 482.084 835.988C256.652 830.781 -27.4578 885.341 -223.472 864.448C-443.507 840.995 -600.436 787.35 -619.874 718.532C-639.624 648.616 -611.843 4.27371 -434.861 -66.4456C-268.619 -132.873 -125.999 -20.8588 118.159 -66.4456C369.565 -113.386 848.573 -52.9918 1116.09 -66.4456C1411.71 -81.3126 1332.68 -111.919 1513.67 -66.4456C1694.06 -21.1234 1710.12 30.6366 1681.17 239.192Z" fill="url(#paint0_linear)"/>
</g>
<mask id="mask2" mask-type="alpha" maskUnits="userSpaceOnUse" x="-426" y="-50" width="1931" height="899">
<path d="M1504.03 -50H-425.815V848.223H1504.03V-50Z" fill="#C4C4C4"/>
</mask>
<g mask="url(#mask2)">
<g filter="url(#filter0_d)">
<path fill-rule="evenodd" clip-rule="evenodd" d="M1619.84 183.311C1605.96 283.212 1916.73 585.492 1770 662.305C1617.19 742.306 1464.32 811.531 1162.86 841.528C859.71 871.692 700.277 786.127 420.75 779.675C195.318 774.472 -88.7917 828.992 -284.806 808.115C-504.84 784.679 -661.77 731.073 -681.208 662.305C-700.957 592.439 -614.231 -51.4368 -437.249 -122.105C-271.007 -188.485 -116.326 -56.9798 127.832 -102.534C379.237 -149.44 787.239 -108.661 1054.76 -122.105C1350.37 -136.961 1307.98 -128.402 1488.97 -82.9623C1669.36 -37.6728 1648.78 -25.093 1619.84 183.311Z" fill="url(#paint1_linear)"/>
</g>
<path d="M68.8591 804.458L63.1781 808.527L65.5633 815.399L59.6671 811.042L53.9861 815.111L56.023 808.349L50.1268 803.992L57.2819 804.17L59.3188 797.408L61.704 804.28L68.8591 804.458Z" fill="url(#paint2_linear)" fill-opacity="0.8"/>
<path d="M61.4592 124.439L62.4567 131.355L69.6552 132.401L63.0732 135.63L64.0707 142.546L59.0053 137.626L52.4233 140.855L55.8747 134.584L50.8092 129.664L58.0078 130.709L61.4592 124.439Z" fill="url(#paint3_linear)" fill-opacity="0.8"/>
<path d="M306.459 101.439L306.912 104.576L310.176 105.05L307.191 106.514L307.644 109.651L305.346 107.42L302.361 108.884L303.926 106.04L301.629 103.809L304.894 104.283L306.459 101.439Z" fill="url(#paint4_linear)" fill-opacity="0.8"/>
<path d="M175.459 242.439L176.457 249.355L183.655 250.401L177.073 253.63L178.071 260.546L173.005 255.626L166.423 258.855L169.875 252.584L164.809 247.664L172.008 248.709L175.459 242.439Z" fill="url(#paint5_linear)" fill-opacity="0.8"/>
<path d="M267.056 681.762L261.375 685.831L263.761 692.703L257.864 688.346L252.183 692.415L254.22 685.653L248.324 681.296L255.479 681.474L257.516 674.712L259.901 681.584L267.056 681.762Z" fill="url(#paint6_linear)" fill-opacity="0.8"/>
<path d="M335.379 292.094L337.029 297.74L343.629 297.44L338.048 301.23L339.698 306.876L334.6 303.572L329.019 307.362L331.449 301.53L326.35 298.226L332.95 297.926L335.379 292.094Z" fill="url(#paint7_linear)" fill-opacity="0.8"/>
<path d="M361.658 756.708L374.544 751.88L373.771 738.758L382.508 748.895L395.394 744.067L387.908 755.16L396.646 765.298L383.282 762.017L375.796 773.11L375.023 759.989L361.658 756.708Z" fill="url(#paint8_linear)"/>
<path d="M20.5488 756.735C21.3667 757.338 22.5188 757.164 23.1221 756.346C23.7254 755.529 23.5514 754.376 22.7336 753.773C21.9157 753.17 20.7636 753.344 20.1603 754.162C19.557 754.979 19.731 756.132 20.5488 756.735Z" fill="white" fill-opacity="0.4"/>
<path d="M307.61 363.157C308.428 363.761 309.417 363.808 309.819 363.262C310.221 362.717 309.884 361.786 309.066 361.183C308.248 360.579 307.259 360.532 306.857 361.078C306.455 361.623 306.792 362.554 307.61 363.157Z" fill="white" fill-opacity="0.4"/>
<path d="M227.904 838.379C228.722 838.983 229.711 839.03 230.113 838.484C230.515 837.939 230.178 837.008 229.36 836.405C228.542 835.801 227.553 835.754 227.151 836.3C226.749 836.845 227.086 837.776 227.904 838.379Z" fill="white" fill-opacity="0.4"/>
<path d="M146.531 145.024C147.348 145.627 148.501 145.453 149.104 144.635C149.707 143.818 149.533 142.665 148.715 142.062C147.898 141.459 146.745 141.633 146.142 142.451C145.539 143.268 145.713 144.421 146.531 145.024Z" fill="white" fill-opacity="0.4"/>
<path d="M331.733 481.141C332.551 481.744 333.703 481.57 334.306 480.752C334.909 479.935 334.735 478.782 333.917 478.179C333.1 477.576 331.947 477.75 331.344 478.568C330.741 479.386 330.915 480.538 331.733 481.141Z" fill="white" fill-opacity="0.4"/>
<path d="M245.078 78.2874C245.895 78.8907 247.048 78.7167 247.651 77.8989C248.254 77.081 248.08 75.9289 247.262 75.3256C246.445 74.7223 245.292 74.8963 244.689 75.7141C244.086 76.532 244.26 77.6841 245.078 78.2874Z" fill="white" fill-opacity="0.4"/>
<path d="M173.192 139.798C171.808 140.818 169.86 140.524 168.839 139.141C167.818 137.757 168.113 135.809 169.496 134.788C170.88 133.767 172.828 134.062 173.849 135.445C174.869 136.829 174.575 138.777 173.192 139.798Z" fill="#FBA10D" fill-opacity="0.2"/>
<path d="M329.224 189.948C328.186 190.713 326.725 190.492 325.959 189.455C325.194 188.417 325.415 186.956 326.452 186.19C327.49 185.425 328.951 185.646 329.717 186.683C330.482 187.721 330.261 189.182 329.224 189.948Z" fill="#FBA10D" fill-opacity="0.2"/>
</g>
<path d="M308.675 556.492C331.077 556.492 349.238 538.43 349.238 516.149C349.238 493.869 331.077 475.807 308.675 475.807C286.273 475.807 268.112 493.869 268.112 516.149C268.112 538.43 286.273 556.492 308.675 556.492Z" fill="#2A3347"/>
<path d="M347.364 511.278C347.364 531.7 332.101 548.582 312.312 551.254C310.518 551.492 308.678 551.62 306.81 551.62C304.059 551.62 301.373 551.345 298.779 550.833C280.222 547.118 266.247 530.822 266.247 511.278C266.247 492.996 278.483 477.551 295.255 472.6C298.917 471.521 302.799 470.944 306.81 470.944C309.303 470.944 311.751 471.173 314.115 471.603C333.021 475.025 347.364 491.486 347.364 511.278Z" fill="#70C4CB"/>
<path d="M347.364 511.277C347.364 531.7 332.101 548.582 312.312 551.254C312.367 549.662 312.376 548.051 312.211 547.237C311.815 545.334 311.778 541.088 311.741 539.45C311.705 537.812 313.149 531.353 313.149 531.353C313.149 531.353 314.833 524.152 314.713 521.159C314.593 518.177 312.523 512.815 312.523 512.815C312.523 512.815 309.202 507.16 308.135 505.339C307.068 503.527 305.55 501.432 305.237 498.486C304.924 495.549 306.433 493.371 306.81 491.632C307.178 489.903 310.371 485.657 310.803 482.446C311.116 480.067 313.103 474.394 314.115 471.603C333.021 475.025 347.364 491.486 347.364 511.277Z" fill="#BED35A"/>
<path d="M298.779 550.833C280.222 547.118 266.247 530.822 266.247 511.277C266.247 492.996 278.483 477.551 295.255 472.6C293.093 476.755 289.533 483.498 288.254 485.41C286.349 488.229 279.523 491.212 278.382 495.064C277.251 498.916 280.241 506.428 281.832 507.993C283.415 509.548 287.84 511.396 290.913 514.068C293.985 516.731 296.469 519.476 297.021 522.166C297.564 524.847 296.249 531.472 295.614 533.064C294.97 534.656 293.774 535.415 293.728 537.739C293.691 540.063 296.92 543.906 297.803 546.615C298.153 547.685 298.493 549.277 298.779 550.833Z" fill="#BED35A"/>
<path opacity="0.4" d="M294.161 476.994C314.014 469.714 335.907 478.86 344.814 497.516L344.978 497.456C337.228 476.552 313.906 465.853 292.888 473.56C271.869 481.268 261.111 504.463 268.861 525.368L269.025 525.307C263.614 505.369 274.307 484.274 294.161 476.994Z" fill="white"/>
<path d="M196.572 700C266.436 700 323.072 643.364 323.072 573.5C323.072 503.636 266.436 447 196.572 447C126.708 447 70.0723 503.636 70.0723 573.5C70.0723 643.364 126.708 700 196.572 700Z" fill="url(#paint9_linear)"/>
<path opacity="0.4" d="M256.237 486.274C260.111 486.274 263.252 483.133 263.252 479.258C263.252 475.384 260.111 472.243 256.237 472.243C252.362 472.243 249.221 475.384 249.221 479.258C249.221 483.133 252.362 486.274 256.237 486.274Z" fill="white"/>
<path opacity="0.6" d="M256.236 483.204C258.415 483.204 260.182 481.437 260.182 479.258C260.182 477.079 258.415 475.313 256.236 475.313C254.057 475.313 252.291 477.079 252.291 479.258C252.291 481.437 254.057 483.204 256.236 483.204Z" fill="white"/>
<g filter="url(#filter1_d)">
<path d="M83.9355 642.019L152.592 661.822C170.265 666.919 188.731 656.728 193.826 639.066L201.903 611.06C206.997 593.398 196.795 574.938 179.122 569.841L110.465 550.038C92.7921 544.941 74.3258 555.132 69.2315 572.794L61.154 600.799C56.0597 618.462 66.2622 636.922 83.9355 642.019Z" fill="#FBAE0D"/>
<path d="M138.542 581.614C169.636 590.582 202.108 572.662 211.07 541.587C220.033 510.513 202.092 478.052 170.999 469.084C139.905 460.116 107.433 478.036 98.4706 509.11C89.5079 540.185 107.449 572.646 138.542 581.614Z" fill="#CCCCCC"/>
<path d="M53.8666 699.072L39.3191 686.922C35.5571 683.78 35.0607 678.19 38.1944 674.438L65.3525 641.922C68.4927 638.163 74.0825 637.67 77.8367 640.805L92.3842 652.956C96.1462 656.098 96.6425 661.687 93.5089 665.439L66.3508 697.955C63.2171 701.707 57.6208 702.208 53.8666 699.072Z" fill="#E6E6E6"/>
<path d="M76.6991 686.137L47.9796 662.15C47.7058 661.922 47.2897 661.959 47.0612 662.232L45.8273 663.71C45.5988 663.983 45.6363 664.399 45.9101 664.628L74.6296 688.615C74.9033 688.844 75.3195 688.807 75.5479 688.533L76.7818 687.056C77.0168 686.774 76.9728 686.366 76.6991 686.137Z" fill="#B3B3B3"/>
<path d="M74.042 689.319L45.3225 665.331C45.0487 665.103 44.6326 665.14 44.4041 665.414L43.1702 666.891C42.9417 667.165 42.9792 667.581 43.253 667.809L71.9725 691.796C72.2462 692.025 72.6623 691.988 72.8908 691.714L74.1247 690.237C74.3532 689.963 74.3157 689.547 74.042 689.319Z" fill="#B3B3B3"/>
<path d="M71.2544 692.656L42.5349 668.669C42.2611 668.44 41.845 668.478 41.6165 668.751L40.6372 669.924C40.4087 670.197 40.4462 670.613 40.72 670.842L69.4395 694.829C69.7132 695.058 70.1294 695.021 70.3579 694.747L71.3371 693.575C71.5722 693.293 71.5281 692.885 71.2544 692.656Z" fill="#B3B3B3"/>
<path d="M148.381 731.361L167.164 728.825C172.022 728.169 175.419 723.702 174.764 718.858L169.094 676.873C168.439 672.018 163.97 668.624 159.123 669.279L140.339 671.816C135.481 672.472 132.085 676.938 132.739 681.783L138.409 723.767C139.063 728.612 143.533 732.016 148.381 731.361Z" fill="#E6E6E6"/>
<path d="M135.944 708.254L173.026 703.246C173.38 703.198 173.712 703.451 173.76 703.805L174.017 705.712C174.065 706.065 173.812 706.397 173.458 706.445L136.376 711.453C136.022 711.501 135.69 711.248 135.642 710.895L135.385 708.987C135.335 708.624 135.59 708.302 135.944 708.254Z" fill="#B3B3B3"/>
<path d="M136.498 712.362L173.581 707.354C173.934 707.306 174.267 707.559 174.314 707.912L174.572 709.82C174.62 710.173 174.366 710.505 174.013 710.553L136.93 715.561C136.577 715.609 136.245 715.355 136.197 715.002L135.939 713.095C135.891 712.741 136.145 712.409 136.498 712.362Z" fill="#B3B3B3"/>
<path d="M137.08 716.671L174.163 711.663C174.516 711.615 174.849 711.868 174.896 712.222L175.101 713.736C175.149 714.089 174.895 714.421 174.542 714.469L137.459 719.477C137.106 719.525 136.773 719.271 136.726 718.918L136.521 717.404C136.472 717.041 136.727 716.719 137.08 716.671Z" fill="#B3B3B3"/>
<path d="M80.5746 663.086L141.878 680.767C153.882 684.229 166.41 677.307 169.867 665.32L184.628 614.144C192.779 585.884 176.465 556.366 148.187 548.21C118.608 539.678 87.7075 556.723 79.1785 586.294L65.1007 635.103C61.6531 647.092 68.5705 659.623 80.5746 663.086Z" fill="#CCCCCC"/>
<path d="M142.285 568.639C166.208 575.539 191.191 561.751 198.087 537.843C204.983 513.934 191.18 488.959 167.257 482.059C143.333 475.159 118.35 488.947 111.454 512.855C104.558 536.763 118.362 561.739 142.285 568.639Z" fill="#2B2A70"/>
<path d="M102.459 586.164C108.988 569.911 107.484 554.007 99.1019 550.642C90.7194 547.276 78.632 557.723 72.1038 573.976C65.5756 590.229 67.0788 606.133 75.4612 609.498C83.8437 612.864 95.9311 602.417 102.459 586.164Z" fill="#FBAE0D"/>
<path d="M176.596 638.662C185.483 640.278 195.225 627.617 198.355 610.384C201.485 593.151 196.818 577.872 187.931 576.256C179.043 574.641 169.301 587.302 166.171 604.535C163.041 621.768 167.709 637.047 176.596 638.662Z" fill="#FBAE0D"/>
<path d="M225.923 588.018L226.291 588.044C228.429 588.218 230.309 586.618 230.482 584.481L230.756 581.065C230.929 578.927 229.328 577.046 227.19 576.872L226.822 576.846C224.684 576.672 222.804 578.272 222.632 580.409L222.357 583.825C222.185 585.962 223.785 587.844 225.923 588.018Z" fill="#CCCCCC"/>
<path d="M231.824 595.94L231.873 596.306C232.134 598.435 234.079 599.954 236.208 599.691L239.609 599.271C241.737 599.009 243.257 597.062 242.996 594.933L242.947 594.567C242.686 592.438 240.741 590.919 238.612 591.181L235.211 591.601C233.083 591.864 231.563 593.811 231.824 595.94Z" fill="#CCCCCC"/>
<path d="M230.262 591.392L230.549 591.622C232.208 592.983 234.659 592.752 236.026 591.101L238.203 588.464C239.563 586.806 239.33 584.355 237.679 582.987L237.391 582.757C235.733 581.396 233.282 581.627 231.914 583.277L229.738 585.915C228.363 587.573 228.61 590.023 230.262 591.392Z" fill="#CCCCCC"/>
<path d="M229.547 602.191L229.401 602.529C228.527 604.489 229.399 606.791 231.352 607.673L234.472 609.074C236.43 609.947 238.732 609.075 239.615 607.12L239.761 606.782C240.635 604.823 239.763 602.52 237.81 601.638L234.69 600.237C232.728 599.35 230.43 600.237 229.547 602.191Z" fill="#CCCCCC"/>
<path d="M173.292 596.12L175.826 613.736C176.421 617.924 180.314 620.828 184.495 620.232L187.669 619.78C191.86 619.187 194.763 615.297 194.166 611.118L191.181 590.32C190.586 586.132 186.694 583.228 182.513 583.824C176.562 584.673 172.438 590.182 173.292 596.12Z" fill="#CCCCCC"/>
<path d="M99.12 577.436L87.5939 590.996C84.8597 594.224 80.0186 594.609 76.7973 591.878L74.3513 589.805C71.1202 587.071 70.734 582.233 73.4654 579.014L87.0674 563C89.8016 559.771 94.6426 559.387 97.8639 562.118C102.449 566.005 103.005 572.865 99.12 577.436Z" fill="#CCCCCC"/>
<path d="M193.07 613.198L225.552 609.077C232.77 608.161 237.891 601.568 236.975 594.344L236.83 593.202C235.915 585.989 229.318 580.871 222.09 581.788L189.608 585.909C182.39 586.825 177.269 593.419 178.185 600.642L178.33 601.784C179.246 608.998 185.842 614.115 193.07 613.198Z" fill="#E6E6E6"/>
<path d="M200.679 583.622L204.36 612.638C204.405 612.992 204.736 613.247 205.09 613.203L206.1 613.074C206.454 613.029 206.71 612.699 206.665 612.346L202.984 583.329C202.939 582.976 202.609 582.72 202.255 582.765L201.244 582.893C200.892 582.948 200.634 583.268 200.679 583.622Z" fill="#B3B3B3"/>
<path d="M203.641 583.246L207.323 612.262C207.367 612.616 207.698 612.872 208.052 612.827L209.063 612.698C209.416 612.654 209.672 612.323 209.627 611.97L205.946 582.954C205.901 582.6 205.571 582.344 205.217 582.389L204.206 582.517C203.854 582.572 203.596 582.892 203.641 583.246Z" fill="#B3B3B3"/>
<path d="M206.745 582.852L210.426 611.868C210.471 612.222 210.801 612.478 211.155 612.433L211.883 612.341C212.237 612.296 212.493 611.966 212.448 611.612L208.767 582.596C208.722 582.242 208.391 581.986 208.038 582.031L207.31 582.124C206.957 582.179 206.7 582.499 206.745 582.852Z" fill="#B3B3B3"/>
<path d="M57.4975 539.998L57.1719 539.824C55.2699 538.832 54.53 536.477 55.5225 534.576L57.1092 531.539C58.1016 529.638 60.4583 528.898 62.3602 529.889L62.6858 530.063C64.5877 531.055 65.3276 533.41 64.3352 535.311L62.7485 538.348C61.756 540.249 59.3994 540.989 57.4975 539.998Z" fill="#CCCCCC"/>
<path d="M48.2838 543.56L48.0478 543.844C46.6932 545.507 44.2372 545.757 42.5754 544.401L39.9206 542.235C38.2588 540.879 38.0093 538.422 39.364 536.759L39.6 536.475C40.9546 534.812 43.4106 534.562 45.0724 535.918L47.7272 538.085C49.389 539.44 49.6385 541.898 48.2838 543.56Z" fill="#CCCCCC"/>
<path d="M52.0281 540.543L51.6623 540.585C49.5338 540.854 47.5823 539.353 47.3039 537.228L46.8664 533.836C46.5979 531.709 48.1 529.758 50.2265 529.479L50.5923 529.437C52.7208 529.169 54.6723 530.669 54.9508 532.795L55.3883 536.186C55.6687 538.321 54.1546 540.264 52.0281 540.543Z" fill="#CCCCCC"/>
<path d="M46.8817 550.064L46.8253 550.428C46.5213 552.552 44.5577 554.037 42.4345 553.743L39.048 553.267C36.9256 552.964 35.4417 550.999 35.7355 548.874L35.792 548.511C36.0959 546.387 38.0596 544.902 40.1827 545.196L43.5692 545.671C45.7026 545.966 47.1755 547.94 46.8817 550.064Z" fill="#CCCCCC"/>
<path d="M71.8938 578.806L46.5962 558.02C40.9745 553.401 40.1513 545.093 44.774 539.467L45.5046 538.577C50.1209 532.959 58.4295 532.141 64.059 536.767L89.3566 557.553C94.9783 562.172 95.8015 570.48 91.1788 576.106L90.4482 576.995C85.832 582.613 77.5233 583.431 71.8938 578.806Z" fill="#E6E6E6"/>
<path d="M81.2045 549.721L62.6361 572.32C62.4098 572.595 61.994 572.636 61.7184 572.409L60.9311 571.762C60.6555 571.536 60.6146 571.12 60.8409 570.845L79.4094 548.246C79.6356 547.97 80.0515 547.93 80.327 548.156L81.1144 548.803C81.3835 549.038 81.4308 549.445 81.2045 549.721Z" fill="#B3B3B3"/>
<path d="M78.8976 547.825L60.3292 570.424C60.1029 570.699 59.6871 570.74 59.4115 570.514L58.6242 569.867C58.3486 569.64 58.3077 569.224 58.534 568.949L77.1024 546.35C77.3287 546.075 77.7446 546.034 78.0201 546.261L78.8075 546.908C79.0766 547.142 79.1239 547.55 78.8976 547.825Z" fill="#B3B3B3"/>
<path d="M76.4805 545.839L57.9121 568.438C57.6858 568.713 57.27 568.754 56.9944 568.528L56.4275 568.062C56.1519 567.835 56.1111 567.42 56.3374 567.144L74.9058 544.545C75.1321 544.27 75.5479 544.229 75.8235 544.456L76.3904 544.922C76.6595 545.156 76.7068 545.564 76.4805 545.839Z" fill="#B3B3B3"/>
<path d="M142.842 493.77C162.036 485.407 162.09 489.281 160.036 487.217C158.118 486.26 148.668 483.158 134.303 492.103C124.051 498.486 121.17 505.217 120.041 511.078C119.856 513.42 120.452 516.132 120.878 517.816C121.792 521.433 123.649 502.134 142.842 493.77Z" fill="#EEEEEE" fill-opacity="0.96"/>
<path d="M119.492 523.286C119.533 523.608 116.799 536.051 115.235 536.252C113.671 536.452 113.642 526.96 113.531 525.426C113.398 523.607 114.637 507.839 118.153 516.571C120.209 521.32 119.451 522.963 119.492 523.286Z" fill="#EEEEEE" fill-opacity="0.95"/>
<path d="M140.56 603.067L145.742 600.206L138.536 625.187L134.514 624.027L140.56 603.067Z" fill="#FDCA4A"/>
<path d="M133.809 606.796L138.99 603.934L133.296 623.676L129.274 622.516L133.809 606.796Z" fill="#FFA926"/>
<path d="M127.057 610.524L132.239 607.663L128.056 622.164L124.034 621.004L127.057 610.524Z" fill="#F9872E"/>
<path d="M120.306 614.253L125.487 611.391L122.816 620.653L118.794 619.493L120.306 614.253Z" fill="#FB6B0A"/>
<path d="M113.554 617.982L118.695 615.142L117.543 619.132L113.554 617.982Z" fill="#FB580B"/>
<path d="M120.76 593L145.742 600.206L140.56 603.067L119.6 597.022L120.76 593Z" fill="#BD9941"/>
<path d="M119.249 598.24L138.99 603.934L133.809 606.796L118.089 602.262L119.249 598.24Z" fill="#BF842A"/>
<path d="M117.737 603.48L132.239 607.663L127.057 610.524L116.577 607.502L117.737 603.48Z" fill="#BA6C2E"/>
<path d="M116.226 608.72L125.487 611.391L120.306 614.253L115.066 612.742L116.226 608.72Z" fill="#BE5816"/>
<path d="M114.705 613.992L118.695 615.142L113.554 617.981L114.705 613.992Z" fill="#BD4B17"/>
</g>
</g>
<defs>
<filter id="filter0_d" x="-708.968" y="-162.217" width="2543.42" height="1039.16" filterUnits="userSpaceOnUse" color-interpolation-filters="sRGB">
<feFlood flood-opacity="0" result="BackgroundImageFix"/>
<feColorMatrix in="SourceAlpha" type="matrix" values="0 0 0 0 0 0 0 0 0 0 0 0 0 0 0 0 0 0 127 0" result="hardAlpha"/>
<feOffset dy="4"/>
<feGaussianBlur stdDeviation="12.5"/>
<feColorMatrix type="matrix" values="0 0 0 0 0.17539 0 0 0 0 0.0809271 0 0 0 0 0.2125 0 0 0 1 0"/>
<feBlend mode="normal" in2="BackgroundImageFix" result="effect1_dropShadow"/>
<feBlend mode="normal" in="SourceGraphic" in2="effect1_dropShadow" result="shape"/>
</filter>
<filter id="filter1_d" x="0.69841" y="421.773" width="297.327" height="354.669" filterUnits="userSpaceOnUse" color-interpolation-filters="sRGB">
<feFlood flood-opacity="0" result="BackgroundImageFix"/>
<feColorMatrix in="SourceAlpha" type="matrix" values="0 0 0 0 0 0 0 0 0 0 0 0 0 0 0 0 0 0 127 0" result="hardAlpha"/>
<feOffset dx="10"/>
<feGaussianBlur stdDeviation="22.5"/>
<feColorMatrix type="matrix" values="0 0 0 0 0 0 0 0 0 0 0 0 0 0 0 0 0 0 0.2 0"/>
<feBlend mode="normal" in2="BackgroundImageFix" result="effect1_dropShadow"/>
<feBlend mode="normal" in="SourceGraphic" in2="effect1_dropShadow" result="shape"/>
</filter>
<linearGradient id="paint0_linear" x1="1339.27" y1="-50.8724" x2="1255.5" y2="1226.99" gradientUnits="userSpaceOnUse">
<stop offset="0.201042" stop-color="#231E33"/>
<stop offset="1" stop-color="#482251"/>
</linearGradient>
<linearGradient id="paint1_linear" x1="1830.11" y1="-300.537" x2="1700.01" y2="1229.21" gradientUnits="userSpaceOnUse">
<stop offset="0.201042" stop-color="#231E33"/>
<stop offset="1" stop-color="#482251"/>
</linearGradient>
<linearGradient id="paint2_linear" x1="72.0609" y1="793.966" x2="76.1853" y2="819.276" gradientUnits="userSpaceOnUse">
<stop stop-color="#FB7A0D"/>
<stop offset="1" stop-color="#FBAE0D"/>
</linearGradient>
<linearGradient id="paint3_linear" x1="53.6179" y1="116.767" x2="77.9859" y2="124.755" gradientUnits="userSpaceOnUse">
<stop stop-color="#FB7A0D"/>
<stop offset="1" stop-color="#FBAE0D"/>
</linearGradient>
<linearGradient id="paint4_linear" x1="302.903" y1="97.9595" x2="313.955" y2="101.583" gradientUnits="userSpaceOnUse">
<stop stop-color="#FB7A0D"/>
<stop offset="1" stop-color="#FBAE0D"/>
</linearGradient>
<linearGradient id="paint5_linear" x1="167.618" y1="234.767" x2="191.986" y2="242.755" gradientUnits="userSpaceOnUse">
<stop stop-color="#FB7A0D"/>
<stop offset="1" stop-color="#FBAE0D"/>
</linearGradient>
<linearGradient id="paint6_linear" x1="270.258" y1="671.269" x2="274.383" y2="696.58" gradientUnits="userSpaceOnUse">
<stop stop-color="#FB7A0D"/>
<stop offset="1" stop-color="#FBAE0D"/>
</linearGradient>
<linearGradient id="paint7_linear" x1="327.481" y1="286.933" x2="349.895" y2="291.619" gradientUnits="userSpaceOnUse">
<stop stop-color="#FB7A0D"/>
<stop offset="1" stop-color="#FBAE0D"/>
</linearGradient>
<linearGradient id="paint8_linear" x1="349.965" y1="773.906" x2="352.967" y2="727.322" gradientUnits="userSpaceOnUse">
<stop stop-color="#FB7A0D"/>
<stop offset="1" stop-color="#FBAE0D"/>
</linearGradient>
<linearGradient id="paint9_linear" x1="87.9825" y1="424.214" x2="258.153" y2="700.029" gradientUnits="userSpaceOnUse">
<stop stop-color="#231E33"/>
<stop offset="1" stop-color="#362042" stop-opacity="0.27"/>
</linearGradient>
</defs>
</svg>
