<svg width="40" height="40" viewBox="0 0 40 40" fill="none" xmlns="http://www.w3.org/2000/svg">
<path d="M33.5608 6.43913L39.9999 0L39.9999 40H33.5608L33.5608 6.43913Z" fill="#FDCA4A"/>
<path d="M25.1707 14.8294L31.6098 8.39022L31.6098 40H25.1707L25.1707 14.8294Z" fill="#FFA926"/>
<path d="M16.7805 23.2196L23.2197 16.7804L23.2197 40H16.7805V23.2196Z" fill="#F9872E"/>
<path d="M8.39026 31.6098L14.8294 25.1707L14.8294 40L8.39026 40L8.39026 31.6098Z" fill="#FB6B0A"/>
<path d="M0 40L6.38862 33.6114L6.38718 40L0 40Z" fill="#FB580B"/>
<path d="M0 5.03803e-05L40 4.57764e-05L33.5608 6.43918L1.09618e-06 6.43918L0 5.03803e-05Z" fill="#BD9941"/>
<path d="M6.57706e-07 8.39022L31.6098 8.39022L25.1706 14.8294L0 14.8294L6.57706e-07 8.39022Z" fill="#BF842A"/>
<path d="M1.75388e-06 16.7804L23.2195 16.7804L16.7804 23.2195H0L1.75388e-06 16.7804Z" fill="#BA6C2E"/>
<path d="M2.19235e-07 25.1706L14.8293 25.1706L8.39021 31.6097L0 31.6097L2.19235e-07 25.1706Z" fill="#BE5816"/>
<path d="M1.75388e-06 33.6127L6.38862 33.6113L0 39.9999L1.75388e-06 33.6127Z" fill="#BD4B17"/>
</svg>
