<svg width="262" height="53" viewBox="0 0 262 53" fill="none" xmlns="http://www.w3.org/2000/svg">
<path d="M22.8711 0.207031L14.668 43.0547H8.29688L0.121094 0.207031H6.54688L11.332 29.5469C11.3685 30.3854 11.4232 31.6068 11.4961 33.2109C11.4779 32.3724 11.5326 31.151 11.6602 29.5469L16.4727 0.207031H22.8711ZM32.5508 11.418H26.2891V4.96484H32.5508V11.418ZM32.4961 43H26.3438V15.3828H32.4961V43ZM54.9727 43H48.9844V42.043C47.5625 42.2617 46.1406 42.4805 44.7188 42.6992C42.8594 42.9727 41.4466 43.1094 40.4805 43.1094C38.2018 43.1094 37.0625 41.9883 37.0625 39.7461V29.793C37.0625 27.5143 38.2383 26.375 40.5898 26.375H49.0391V20.0312H43.0508V23.9688H37.3906V18.8008C37.3906 16.5221 38.5664 15.3828 40.918 15.3828H51.5C53.8151 15.3828 54.9727 16.5221 54.9727 18.8008V43ZM49.0391 38.0234V30.6133H43.0508V38.2422L49.0391 38.0234ZM76.9023 26.9219H70.6953V20.6055L65.7461 20.7148V43H59.4844V15.3828H65.7461V16.3945C67.0404 16.1576 68.3255 15.9206 69.6016 15.6836C71.151 15.4102 72.4453 15.2734 73.4844 15.2734C75.763 15.2734 76.9023 16.3945 76.9023 18.6367V26.9219ZM98.8047 43H92.5703V42.043C91.1302 42.2799 89.681 42.5169 88.2227 42.7539C86.4544 43.0273 84.9961 43.1641 83.8477 43.1641C81.569 43.1641 80.4297 42.0247 80.4297 39.7461V15.3828H86.6367V37.8047L92.5703 37.668V15.3828H98.8047V43ZM121.773 43H115.484V20.6055L109.605 20.7148V43H103.344V15.3828H109.605V16.3945C111.064 16.1576 112.513 15.9297 113.953 15.7109C115.74 15.4193 117.207 15.2734 118.355 15.2734C120.634 15.2734 121.773 16.3945 121.773 18.6367V43ZM144.113 39.582C144.113 41.8607 142.938 43 140.586 43H129.785C127.434 43 126.258 41.8607 126.258 39.582V18.8008C126.258 16.5221 127.434 15.3828 129.785 15.3828H140.586C142.938 15.3828 144.113 16.5221 144.113 18.8008V28.9453L142.391 30.668H132.246V38.4062H138.125V33.8125H144.113V39.582ZM138.125 26.5938V19.9766H132.246V26.5938H138.125ZM177.582 39.582C177.582 41.8607 176.424 43 174.109 43H163.582C161.267 43 160.109 41.8607 160.109 39.582V33.6484H166.098V38.2969H171.594V33.9219L161.996 28.2617C160.738 27.5143 160.109 26.5117 160.109 25.2539V18.8008C160.109 16.5221 161.285 15.3828 163.637 15.3828H174.055C176.37 15.3828 177.527 16.5221 177.527 18.8008V24.3516H171.594V20.0859H166.098V24.0781L175.668 29.6836C176.944 30.4128 177.582 31.4336 177.582 32.7461V39.582ZM193.906 43H186.961C184.646 43 183.488 41.8607 183.488 39.582V20.7148H180.535V15.3828H183.488V7.89062H189.723V15.3828H193.742V20.7148H189.723V37.668H193.906V43ZM215.781 43H209.547V42.043C208.107 42.2799 206.658 42.5169 205.199 42.7539C203.431 43.0273 201.973 43.1641 200.824 43.1641C198.546 43.1641 197.406 42.0247 197.406 39.7461V15.3828H203.613V37.8047L209.547 37.668V15.3828H215.781V43ZM238.641 43H232.406V42.043C228.177 42.7904 225.807 43.1641 225.297 43.1641C223.729 43.1641 222.499 42.7083 221.605 41.7969C220.712 40.8672 220.266 39.6094 220.266 38.0234V20.9336C220.266 18.6914 221.068 17.1328 222.672 16.2578C223.839 15.6016 225.607 15.2734 227.977 15.2734C228.505 15.2734 229.271 15.2917 230.273 15.3281C231.276 15.3646 231.987 15.3828 232.406 15.3828V0.207031H238.641V43ZM232.406 37.6133V20.6055H228.551C227.165 20.6055 226.473 21.2982 226.473 22.6836V35.8906C226.473 37.2396 227.129 37.9141 228.441 37.9141C228.751 37.9141 230.073 37.8138 232.406 37.6133ZM261.883 15.3828L254.965 42.6445L252.312 53.0898H245.914L248.785 42.7812L241.785 15.3828H248.211L251.848 33.5391L255.484 15.3828H261.883Z" fill="#FDCA4A"/>
</svg>
