<svg width="28" height="28" viewBox="0 0 28 28" fill="none" xmlns="http://www.w3.org/2000/svg">
<path d="M19.1033 17.9315C18.4267 17.3787 17.6162 17.5056 17.2272 17.8629L16.4202 18.5739C16.0102 18.9351 15.3925 18.7685 15.3925 18.7685C11.0186 16.7894 10.6112 11.9373 10.6112 11.9373C10.6112 11.9373 10.6656 11.2997 11.1444 11.037L12.0878 10.5214C12.5571 10.2767 12.9533 9.55848 12.6648 8.73313C11.8867 6.56956 11.2509 5.75875 10.9582 5.1706C10.6402 4.60984 10.0518 4.39241 9.36125 4.61167L9.34757 4.60926C7.90187 5.12124 6.21725 6.25949 6.42502 7.77385C6.94427 9.42346 7.53865 14.4949 11.4986 18.9458C13.3577 21.0484 16.4691 23.4158 17.8501 24.0791L17.8602 24.1021C19.2103 24.8161 20.8574 23.6152 21.8315 22.4365L21.8333 22.4262C22.2748 21.8508 22.2712 21.2318 21.8586 20.7544C21.1466 19.7983 20.0146 18.6818 19.1033 17.9315Z" fill="#F8840D"/>
</svg>
