<svg width="33" height="32" viewBox="0 0 33 32" fill="none" xmlns="http://www.w3.org/2000/svg">
<rect x="0.430176" width="32" height="32" rx="3" fill="white" fill-opacity="0.4"/>
<path d="M26.2264 18.2231C26.8773 12.744 25.9136 9.28489 24.1754 7.72034L24.1764 7.71943C21.3709 5.04761 11.8963 4.65215 8.53994 7.83943C7.03266 9.39853 6.50175 11.6867 6.44357 14.5195C6.38539 17.3531 6.3163 22.6613 11.2627 24.1013H11.2672L11.2627 26.3004C11.2627 26.3004 11.229 27.1913 11.7981 27.3704C12.449 27.5813 12.7436 27.1677 14.7681 24.7495C18.1536 25.0431 20.7536 24.3704 21.0491 24.2722C21.7327 24.0431 25.6009 23.5313 26.2264 18.2231ZM15.1018 23.2022C15.1018 23.2022 12.959 25.874 12.2927 26.5677C12.0745 26.7931 11.8354 26.7722 11.839 26.3249C11.839 26.0313 11.8554 22.674 11.8554 22.674C7.66176 21.4722 7.90903 16.9522 7.95448 14.5876C7.99994 12.2222 8.43267 10.2849 9.70904 8.98035C12.6536 6.21943 20.96 6.8367 23.0764 8.8258C25.6636 11.1194 24.7427 17.5995 24.7482 17.8204C24.2164 22.2513 21.0818 22.5322 20.5054 22.724C20.2591 22.8058 17.9727 23.394 15.1018 23.2022Z" fill="#8E24AA"/>
<path d="M16.2872 9.49951C15.9372 9.49951 15.9372 10.045 16.2872 10.0495C19.0026 10.0704 21.239 11.9632 21.2635 15.435C21.2635 15.8014 21.7999 15.7968 21.7954 15.4304H21.7945C21.7654 11.6895 19.3235 9.52042 16.2872 9.49951Z" fill="#8E24AA"/>
<path d="M19.859 14.8592C19.8508 15.221 20.3862 15.2383 20.3908 14.872C20.4353 12.8092 19.1635 11.1101 16.7735 10.931C16.4235 10.9056 16.3871 11.4556 16.7362 11.481C18.809 11.6383 19.9008 13.0529 19.859 14.8592Z" fill="#8E24AA"/>
<path d="M19.2863 17.2062C18.8372 16.9462 18.38 17.108 18.1909 17.3634L17.7954 17.8752C17.5945 18.1352 17.2191 18.1007 17.2191 18.1007C14.4791 17.3762 13.7463 14.5089 13.7463 14.5089C13.7463 14.5089 13.7127 14.1207 13.9636 13.9125L14.4581 13.5034C14.7054 13.307 14.8618 12.8343 14.61 12.3698C13.9372 11.1543 13.4854 10.7352 13.2554 10.4134C13.0136 10.1107 12.65 10.0425 12.2718 10.247H12.2636C11.4772 10.707 10.6163 11.568 10.8918 12.4543C11.3618 13.3889 12.2254 16.368 14.9781 18.6189C16.2718 19.6834 18.3191 20.7743 19.1882 21.0262L19.1963 21.0389C20.0527 21.3243 20.8854 20.4298 21.33 19.6198V19.6134C21.5273 19.2216 21.4618 18.8507 21.1736 18.608C20.6627 18.1098 19.8918 17.5598 19.2863 17.2062Z" fill="#8E24AA"/>
<path d="M17.1481 12.9607C18.0218 13.0116 18.4454 13.468 18.4909 14.4053C18.5072 14.7717 19.0391 14.7462 19.0227 14.3798C18.9645 13.1562 18.3263 12.4744 17.1772 12.4107C16.8272 12.3898 16.7945 12.9398 17.1481 12.9607Z" fill="#8E24AA"/>
</svg>
