<svg width="28" height="28" viewBox="0 0 28 28" fill="none" xmlns="http://www.w3.org/2000/svg">
<path d="M19.1032 17.9315C18.4266 17.3787 17.616 17.5056 17.2271 17.8629L16.4201 18.5739C16.0101 18.9351 15.3923 18.7685 15.3923 18.7685C11.0185 16.7894 10.6111 11.9373 10.6111 11.9373C10.6111 11.9373 10.6655 11.2997 11.1443 11.037L12.0876 10.5214C12.557 10.2767 12.9532 9.55848 12.6646 8.73313C11.8866 6.56956 11.2508 5.75875 10.958 5.1706C10.6401 4.60984 10.0516 4.39241 9.36113 4.61167L9.34745 4.60926C7.90175 5.12124 6.21713 6.25949 6.4249 7.77385C6.94415 9.42346 7.53853 14.4949 11.4985 18.9458C13.3575 21.0484 16.4689 23.4158 17.85 24.0791L17.86 24.1021C19.2102 24.8161 20.8573 23.6152 21.8314 22.4365L21.8332 22.4262C22.2747 21.8508 22.271 21.2318 21.8585 20.7544C21.1464 19.7983 20.0145 18.6818 19.1032 17.9315Z" fill="#FEFCFF"/>
</svg>
