<svg width="33" height="32" viewBox="0 0 33 32" fill="none" xmlns="http://www.w3.org/2000/svg">
<rect x="0.430176" width="32" height="32" rx="3" fill="white" fill-opacity="0.4"/>
<path d="M16.8083 5.01272C10.9981 5.28937 6.41309 10.1281 6.43071 15.9449C6.43608 17.7165 6.86379 19.3887 7.61828 20.8662L6.45986 26.4893C6.3972 26.7935 6.67153 27.0598 6.9737 26.9883L12.4837 25.6828C13.8992 26.388 15.4893 26.7953 17.172 26.8209C23.1106 26.9116 28.0623 22.1963 28.2474 16.2599C28.4458 9.89657 23.1939 4.70861 16.8083 5.01272ZM23.3829 21.9522C21.7692 23.5659 19.6238 24.4545 17.3418 24.4545C16.0056 24.4545 14.7263 24.1547 13.5394 23.5635L12.772 23.1813L9.39386 23.9816L10.1049 20.5298L9.72691 19.7895C9.11074 18.5828 8.79832 17.2779 8.79832 15.9111C8.79832 13.629 9.68698 11.4836 11.3006 9.86994C12.8998 8.27072 15.0803 7.36759 17.3419 7.36759C19.6239 7.36765 21.7693 8.25631 23.3829 9.86989C24.9966 11.4835 25.8852 13.6289 25.8853 15.9109C25.8852 18.1726 24.9821 20.3531 23.3829 21.9522Z" fill="#7AD06D"/>
<path d="M22.6372 18.2775L20.5237 17.6706C20.2458 17.5909 19.9466 17.6697 19.7442 17.876L19.2273 18.4026C19.0094 18.6246 18.6787 18.6959 18.3903 18.5792C17.3905 18.1746 15.2874 16.3047 14.7503 15.3694C14.5954 15.0996 14.621 14.7623 14.8112 14.5161L15.2625 13.9323C15.4392 13.7036 15.4765 13.3964 15.3596 13.132L14.4705 11.121C14.2575 10.6393 13.6419 10.4991 13.2398 10.8392C12.6499 11.338 11.9501 12.0962 11.865 12.9361C11.715 14.4168 12.35 16.2835 14.7515 18.5249C17.5259 21.1143 19.7476 21.4564 21.1941 21.106C22.0146 20.9073 22.6703 20.1106 23.0841 19.4583C23.3662 19.0135 23.1434 18.4229 22.6372 18.2775Z" fill="#7AD06D"/>
</svg>
