<svg width="78" height="21" viewBox="0 0 78 21" fill="none" xmlns="http://www.w3.org/2000/svg">
<path d="M16.1033 13.9315C15.4267 13.3787 14.6162 13.5056 14.2272 13.8629L13.4202 14.5739C13.0102 14.9351 12.3925 14.7685 12.3925 14.7685C8.01859 12.7894 7.61117 7.93727 7.61117 7.93727C7.61117 7.93727 7.66562 7.2997 8.14441 7.03705L9.08777 6.52136C9.55712 6.27675 9.95329 5.55848 9.66477 4.73313C8.88671 2.56956 8.25089 1.75875 7.95816 1.1706C7.64022 0.609843 7.05177 0.392413 6.36125 0.611669L6.34757 0.609257C4.90187 1.12124 3.21725 2.25948 3.42502 3.77385C3.94427 5.42346 4.53865 10.4949 8.49861 14.9458C10.3577 17.0484 13.469 19.4158 14.8501 20.0791L14.8602 20.1021C16.2103 20.8161 17.8574 19.6152 18.8315 18.4365L18.8333 18.4262C19.2748 17.8508 19.2712 17.2318 18.8586 16.7544C18.1466 15.7983 17.0146 14.6818 16.1033 13.9315Z" fill="white"/>
<path d="M44.229 13.9315C43.5524 13.3787 42.7418 13.5056 42.3529 13.8629L41.5459 14.5739C41.1359 14.9351 40.5181 14.7685 40.5181 14.7685C36.1443 12.7894 35.7368 7.93727 35.7368 7.93727C35.7368 7.93727 35.7913 7.2997 36.2701 7.03705L37.2134 6.52136C37.6828 6.27675 38.079 5.55848 37.7904 4.73313C37.0124 2.56956 36.3766 1.75875 36.0838 1.1706C35.7659 0.609843 35.1774 0.392413 34.4869 0.611669L34.4732 0.609257C33.0275 1.12124 31.3429 2.25948 31.5507 3.77385C32.0699 5.42346 32.6643 10.4949 36.6243 14.9458C38.4833 17.0484 41.5947 19.4158 42.9758 20.0791L42.9858 20.1021C44.336 20.8161 45.9831 19.6152 46.9572 18.4365L46.959 18.4262C47.4005 17.8508 47.3968 17.2318 46.9843 16.7544C46.2722 15.7983 45.1403 14.6818 44.229 13.9315Z" fill="#F8840D"/>
<path d="M72.229 13.9315C71.5524 13.3787 70.7418 13.5056 70.3529 13.8629L69.5459 14.5739C69.1359 14.9351 68.5181 14.7685 68.5181 14.7685C64.1443 12.7894 63.7368 7.93727 63.7368 7.93727C63.7368 7.93727 63.7913 7.2997 64.2701 7.03705L65.2134 6.52136C65.6828 6.27675 66.079 5.55848 65.7904 4.73313C65.0124 2.56956 64.3766 1.75875 64.0838 1.1706C63.7659 0.609843 63.1774 0.392413 62.4869 0.611669L62.4732 0.609257C61.0275 1.12124 59.3429 2.25948 59.5507 3.77385C60.0699 5.42346 60.6643 10.4949 64.6243 14.9458C66.4833 17.0484 69.5947 19.4158 70.9758 20.0791L70.9858 20.1021C72.336 20.8161 73.9831 19.6152 74.9572 18.4365L74.959 18.4262C75.4005 17.8508 75.3968 17.2318 74.9843 16.7544C74.2722 15.7983 73.1403 14.6818 72.229 13.9315Z" fill="white" fill-opacity="0.2"/>
</svg>
