<svg width="33" height="32" viewBox="0 0 33 32" fill="none" xmlns="http://www.w3.org/2000/svg">
<rect x="0.430176" width="32" height="32" rx="3" fill="white" fill-opacity="0.4"/>
<path d="M22.7574 18.7158C21.8539 18.2119 20.9339 18.5255 20.5535 19.0207L19.7579 20.0127C19.3537 20.5167 18.5984 20.4497 18.5984 20.4497C13.086 19.0454 11.6118 13.4877 11.6118 13.4877C11.6118 13.4877 11.5442 12.7353 12.049 12.3318L13.0439 11.5389C13.5414 11.1583 13.8559 10.242 13.3493 9.34155C11.9959 6.98564 11.0869 6.17332 10.6242 5.54954C10.1377 4.96277 9.40615 4.83061 8.64532 5.22708H8.62886C7.04683 6.11869 5.31483 7.78739 5.869 9.50542C6.81456 11.3168 8.55204 17.0912 14.0901 21.4541C16.6926 23.5175 20.8114 25.632 22.5598 26.1201L22.5763 26.1448C24.2992 26.6981 25.9745 24.9642 26.8688 23.3942V23.3818C27.2657 22.6224 27.134 21.9035 26.5542 21.433C25.5264 20.4674 23.9754 19.4013 22.7574 18.7158Z" fill="#30203D"/>
</svg>
