<svg width="33" height="32" viewBox="0 0 33 32" fill="none" xmlns="http://www.w3.org/2000/svg">
<rect x="0.430176" width="32" height="32" rx="3" fill="white" fill-opacity="0.4"/>
<path d="M22.7575 18.7158C21.854 18.2119 20.934 18.5255 20.5536 19.0207L19.758 20.0127C19.3538 20.5167 18.5985 20.4497 18.5985 20.4497C13.0861 19.0454 11.6119 13.4877 11.6119 13.4877C11.6119 13.4877 11.5443 12.7353 12.0491 12.3318L13.044 11.5389C13.5415 11.1583 13.856 10.242 13.3494 9.34155C11.996 6.98564 11.087 6.17332 10.6243 5.54954C10.1378 4.96277 9.40624 4.83061 8.64541 5.22708H8.62895C7.04692 6.11869 5.31492 7.78739 5.86909 9.50542C6.81465 11.3168 8.55213 17.0912 14.0901 21.4541C16.6927 23.5175 20.8115 25.632 22.5599 26.1201L22.5764 26.1448C24.2992 26.6981 25.9746 24.9642 26.8689 23.3942V23.3818C27.2658 22.6224 27.1341 21.9035 26.5543 21.433C25.5265 20.4674 23.9755 19.4013 22.7575 18.7158Z" fill="#30203D"/>
</svg>
