<svg width="33" height="32" viewBox="0 0 33 32" fill="none" xmlns="http://www.w3.org/2000/svg">
<rect x="0.43042" width="32" height="32" rx="3" fill="white" fill-opacity="0.4"/>
<path d="M24.488 17.0855C24.0973 16.592 24.2091 16.3724 24.488 15.9313C24.4931 15.9262 27.719 11.4686 28.0514 9.9568L28.0534 9.9558C28.2186 9.40488 28.0534 9 27.2547 9H24.6119C23.9391 9 23.6289 9.34747 23.4627 9.73624C23.4627 9.73624 22.1172 12.9571 20.2136 15.045C19.5993 15.6483 19.3153 15.8416 18.9799 15.8416C18.8147 15.8416 18.5579 15.6483 18.5579 15.0974V9.9558C18.5579 9.2951 18.3695 9 17.8126 9H13.657C13.235 9 12.9842 9.30819 12.9842 9.59523C12.9842 10.2217 13.936 10.3657 14.0347 12.1282V15.9524C14.0347 16.7904 13.8826 16.9445 13.5452 16.9445C12.6468 16.9445 10.4663 13.7105 9.17415 10.0092C8.9133 9.29107 8.65848 9.00101 7.98066 9.00101H5.33687C4.5825 9.00101 4.43042 9.34848 4.43042 9.73724C4.43042 10.4241 5.32881 13.8394 8.60813 18.3515C10.7937 21.4314 13.8716 23.1003 16.6715 23.1003C18.3544 23.1003 18.5599 22.7296 18.5599 22.0921C18.5599 19.1492 18.4078 18.8712 19.2508 18.8712C19.6416 18.8712 20.3144 19.0646 21.8855 20.5501C23.6813 22.3117 23.9764 23.1003 24.9816 23.1003H27.6243C28.3777 23.1003 28.7594 22.7296 28.5399 21.9984C28.0373 20.4605 24.6411 17.297 24.488 17.0855Z" fill="#326CB0"/>
</svg>
